<?xml version="1.0" encoding="UTF-8"?> <svg xmlns="http://www.w3.org/2000/svg" xmlns:xlink="http://www.w3.org/1999/xlink" xmlns:xodm="http://www.corel.com/coreldraw/odm/2003" xml:space="preserve" width="82.8996mm" height="30.0384mm" version="1.1" style="shape-rendering:geometricPrecision; text-rendering:geometricPrecision; image-rendering:optimizeQuality; fill-rule:evenodd; clip-rule:evenodd" viewBox="0 0 3777.58 1368.79"> <defs> <style type="text/css"> .fil1 {fill:#7A5828} .fil0 {fill:#7A5828;fill-rule:nonzero} </style> </defs> <g id="Слой_x0020_1"> <metadata id="CorelCorpID_0Corel-Layer"></metadata> <path class="fil0" d="M843.92 918.79c26.84,83.49 28.33,146.1 17.89,146.1l0 13.42 174.43 0 0 -13.42c-22.36,0 -59.63,-90.94 -98.4,-202.75l-284.74 -830.38 -113.3 0 28.33 82 -265.37 776.71c-46.22,134.17 -89.45,174.43 -111.81,174.43l0 13.42 126.72 0 0 -13.42c-38.76,0 -41.74,-56.65 -1.49,-169.96l73.05 -217.66c20.87,-58.14 95.42,-71.56 149.08,-67.09 146.1,14.91 248.97,141.63 293.69,272.82l11.93 35.78zm-268.35 -784.17l219.15 638.07c-56.65,-90.94 -144.61,-163.99 -256.42,-174.43 -43.23,-4.47 -98.39,2.98 -132.68,34.29l169.95 -497.93zm717.08 930.27c-8.95,0 -34.29,-16.4 -34.29,-114.8l0 -948.15 -140.14 52.18 4.47 13.42c7.45,0 23.85,10.44 31.31,62.62l0 819.94c0,98.4 -25.34,114.8 -34.29,114.8l0 13.42 172.94 0 0 -13.42zm272.82 -694.72l231.08 0 0 -10.44 -131.19 0c-108.83,0 -172.93,-84.98 -184.86,-186.35 -5.96,-52.18 4.47,-149.08 68.58,-159.52 8.95,-1.49 16.4,-1.49 25.34,-1.49 41.74,5.96 89.45,37.27 128.21,74.54 38.76,38.76 67.09,82 71.56,113.3 1.49,4.47 1.49,8.95 1.49,11.93l10.44 1.49 25.34 -161.01 -4.47 -1.49c-40.25,-19.38 -80.51,-32.8 -120.76,-41.74 -41.74,-7.45 -98.39,-13.42 -138.64,-5.96 -96.91,11.93 -180.39,74.54 -180.39,180.39 0,98.4 99.89,152.07 196.79,174.43l-101.38 1.49 -95.41 0 0 10.44c58.14,0 95.41,41.74 95.41,90.94l0 488.74c0,98.64 -25.34,115.04 -34.29,115.04l0 13.42 171.44 0 0 -13.42c-8.95,0 -34.29,-16.4 -34.29,-115.04l0 -579.68zm325 55.16c7.45,0 25.34,10.44 32.8,64.36l0 460.41c0,98.4 -25.34,114.8 -35.78,114.8l0 13.42 172.94 0 0 -13.42c-8.95,0 -34.29,-16.4 -34.29,-114.8l0 -590.36 -140.14 53.67 4.47 11.93zm73.05 -186.35c38.76,0 70.07,-31.31 70.07,-70.07 0,-38.76 -31.31,-70.07 -70.07,-70.07 -38.76,0 -70.07,31.31 -70.07,70.07 0,38.76 31.31,70.07 70.07,70.07zm313.07 876.6l-141.63 111.81 8.95 10.44c140.14,183.37 286.24,178.9 365.25,-43.23l280.28 -745.41c16.4,-46.22 52.18,-76.03 86.47,-76.03l0 -13.42 -126.72 0 0 13.42c0,0 55.16,5.96 29.82,73.05l-186.36 494.95 -222.13 -514.33c-14.91,-34.29 -8.95,-53.67 17.89,-53.67l0 -13.42 -189.33 0 0 13.42c25.34,0 38.76,17.89 56.65,58.14l280.27 647.01 4.47 0 -41.74 113.3c-65.6,181.88 -169.95,93.92 -223.62,-11.93 -7.45,-14.91 -10.44,-37.27 10.44,-53.67l-8.95 -10.44zm1206.07 -50.69c-8.95,0 -34.29,-16.4 -34.29,-114.8l0 -301.14c0,-168.47 -62.62,-293.69 -254.93,-293.69 -161.01,0 -265.36,114.79 -254.93,175.92 16.4,-4.47 123.74,-22.36 193.81,5.96 19.38,7.45 37.27,17.89 52.18,31.31 -4.47,0 -7.45,0 -10.44,1.49 -439.79,16.4 -475.57,502.4 -177.41,514.33 104.36,4.47 202.75,-82 247.48,-196.79 46.22,-113.3 22.36,-310.09 -107.34,-360.78 -49.2,-19.38 -110.32,-13.42 -128.21,-34.29 -26.83,-31.31 41.74,-126.72 184.86,-126.72 143.12,0 152.07,175.92 152.07,283.26l0 429.35 137.16 0 0 -13.42zm-287.73 -484.52c67.09,77.53 77.52,210.21 40.25,304.13 -32.8,80.51 -110.32,158.03 -204.24,140.14 -90.94,-17.89 -126.72,-108.83 -126.72,-192.32 0,-171.44 132.68,-251.95 290.71,-251.95z"></path> <path class="fil1" d="M63.97 592.37c35.33,0 63.97,28.64 63.97,63.97 0,35.33 -28.64,63.97 -63.97,63.97 -35.33,0 -63.97,-28.64 -63.97,-63.97 0,-35.33 28.64,-63.97 63.97,-63.97z"></path> <path class="fil1" d="M3713.6 592.37c35.33,0 63.97,28.64 63.97,63.97 0,35.33 -28.64,63.97 -63.97,63.97 -35.33,0 -63.97,-28.64 -63.97,-63.97 0,-35.33 28.64,-63.97 63.97,-63.97z"></path> </g> </svg> 