<?xml version="1.0" encoding="UTF-8"?> <svg xmlns="http://www.w3.org/2000/svg" xmlns:xlink="http://www.w3.org/1999/xlink" xmlns:xodm="http://www.corel.com/coreldraw/odm/2003" xml:space="preserve" width="100.607mm" height="84.1731mm" version="1.1" style="shape-rendering:geometricPrecision; text-rendering:geometricPrecision; image-rendering:optimizeQuality; fill-rule:evenodd; clip-rule:evenodd" viewBox="0 0 1800.6 1506.47"> <defs> <style type="text/css"> .str0 {stroke:#7A5828;stroke-width:3.58;stroke-miterlimit:22.9256} .fil1 {fill:none} .fil0 {fill:#7A5828;fill-rule:nonzero} </style> </defs> <g id="Слой_x0020_1"> <metadata id="CorelCorpID_0Corel-Layer"></metadata> <path class="fil0" d="M714.86 0l0 120.58 -9.13 0 0 -107.15 -44.62 74.07 -1.55 0 -44.62 -74.07 0 107.15 -9.13 0 0 -120.58 11.37 0 43.07 71.32 43.06 -71.32 11.54 0zm111.11 120.58l-11.71 -30.66 -60.46 0 -11.71 30.66 -9.65 0 46.86 -120.58 9.65 0 46.68 120.58 -9.65 0zm-68.73 -39.28l53.75 0 -26.87 -70.11 -26.87 70.11zm204.99 -81.31l0 120.58 -9.13 0 0 -107.15 -44.62 74.07 -1.55 0 -44.62 -74.07 0 107.15 -9.13 0 0 -120.58 11.37 0 43.07 71.32 43.06 -71.32 11.54 0zm29.97 120.58l0 -120.58 9.13 0 0 45.99 31.87 0c10.8,0 19.75,3.56 26.87,10.68 7.12,7.12 10.68,15.96 10.68,26.53 0,10.68 -3.56,19.58 -10.68,26.7 -7.12,7.12 -16.08,10.68 -26.87,10.68l-41 0zm92.33 0l0 -120.58 9.13 0 0 120.58 -9.13 0zm-83.2 -8.61l31.87 0c8.15,0 14.93,-2.7 20.33,-8.1 5.4,-5.4 8.09,-12.29 8.09,-20.67 0,-8.27 -2.7,-15.1 -8.09,-20.5 -5.4,-5.4 -12.17,-8.1 -20.33,-8.1l-31.87 0 0 57.36zm163.3 -111.97c10.8,0 19.75,3.56 26.87,10.68 7.12,7.12 10.68,16.02 10.68,26.7 0,10.68 -3.56,19.58 -10.68,26.7 -7.01,7.01 -15.96,10.51 -26.87,10.51l-31.87 0 0 45.99 -9.13 0 0 -120.58 41 0zm0 65.98c8.15,0 14.93,-2.7 20.33,-8.1 5.4,-5.4 8.09,-12.23 8.09,-20.5 0,-8.38 -2.7,-15.27 -8.09,-20.67 -5.4,-5.4 -12.17,-8.09 -20.33,-8.09l-31.87 0 0 57.36 31.87 0z"></path> <g id="_1846865410336"> <path class="fil0" d="M47.71 537.49l7.07 0 0 18.38 -5.15 0 0 -13.54 -43.64 0 0 13.54 -5.15 0 0 -18.38 5.86 0c3.7,-5 5.56,-11.79 5.56,-20.36l0 -25.31 35.46 0 0 45.66zm-5.15 0l0 -40.81 -25.25 0 0 20.41c0,8.38 -1.45,15.19 -4.35,20.41l29.6 0zm44.45 5.96c-7.61,0 -13.94,-2.53 -18.99,-7.58 -5.05,-5.05 -7.58,-11.31 -7.58,-18.79 0,-7.48 2.53,-13.74 7.58,-18.79 5.05,-5.05 11.38,-7.58 18.99,-7.58 4.92,0 9.36,1.15 13.33,3.43 3.97,2.29 6.87,5.46 8.69,9.5l-4.14 2.43c-1.48,-3.23 -3.82,-5.79 -7.02,-7.68 -3.2,-1.89 -6.82,-2.83 -10.86,-2.83 -5.99,0 -11.08,2.09 -15.25,6.26 -4.11,4.11 -6.16,9.19 -6.16,15.25 0,6.13 2.05,11.25 6.16,15.35 4.11,4.11 9.19,6.16 15.25,6.16 4.04,0 7.66,-0.94 10.86,-2.83 3.2,-1.88 5.64,-4.44 7.32,-7.68l4.24 2.53c-2.02,3.91 -5.03,7.02 -9.04,9.35 -4.01,2.32 -8.47,3.48 -13.39,3.48z"></path> <path class="fil0" d="M310.69 543.45c-7.61,0 -13.94,-2.53 -18.99,-7.58 -5.05,-5.05 -7.58,-11.31 -7.58,-18.79 0,-7.48 2.53,-13.74 7.58,-18.79 5.05,-5.05 11.38,-7.58 18.99,-7.58 4.92,0 9.36,1.15 13.33,3.43 3.97,2.29 6.87,5.46 8.69,9.5l-4.14 2.43c-1.48,-3.23 -3.82,-5.79 -7.02,-7.68 -3.2,-1.89 -6.82,-2.83 -10.86,-2.83 -5.99,0 -11.08,2.09 -15.25,6.26 -4.11,4.11 -6.16,9.19 -6.16,15.25 0,6.13 2.05,11.25 6.16,15.35 4.11,4.11 9.19,6.16 15.25,6.16 4.04,0 7.66,-0.94 10.86,-2.83 3.2,-1.88 5.64,-4.44 7.32,-7.68l4.24 2.53c-2.02,3.91 -5.03,7.02 -9.04,9.35 -4.01,2.32 -8.47,3.48 -13.39,3.48zm56.17 0c-7.61,0 -13.94,-2.53 -18.99,-7.58 -5.05,-5.05 -7.58,-11.31 -7.58,-18.79 0,-7.48 2.53,-13.74 7.58,-18.79 5.05,-5.05 11.38,-7.58 18.99,-7.58 4.92,0 9.36,1.15 13.33,3.43 3.97,2.29 6.87,5.46 8.69,9.5l-4.14 2.43c-1.48,-3.23 -3.82,-5.79 -7.02,-7.68 -3.2,-1.89 -6.82,-2.83 -10.86,-2.83 -5.99,0 -11.08,2.09 -15.25,6.26 -4.11,4.11 -6.16,9.19 -6.16,15.25 0,6.13 2.05,11.25 6.16,15.35 4.11,4.11 9.19,6.16 15.25,6.16 4.04,0 7.66,-0.94 10.86,-2.83 3.2,-1.88 5.64,-4.44 7.32,-7.68l4.24 2.53c-2.02,3.91 -5.03,7.02 -9.04,9.35 -4.01,2.32 -8.47,3.48 -13.39,3.48z"></path> <path class="fil0" d="M586.75 543.45c-7.61,0 -13.94,-2.53 -18.99,-7.58 -5.05,-5.05 -7.58,-11.31 -7.58,-18.79 0,-7.48 2.53,-13.74 7.58,-18.79 5.05,-5.05 11.38,-7.58 18.99,-7.58 4.92,0 9.36,1.15 13.33,3.43 3.97,2.29 6.87,5.46 8.69,9.5l-4.14 2.43c-1.48,-3.23 -3.82,-5.79 -7.02,-7.68 -3.2,-1.89 -6.82,-2.83 -10.86,-2.83 -5.99,0 -11.08,2.09 -15.25,6.26 -4.11,4.11 -6.16,9.19 -6.16,15.25 0,6.13 2.05,11.25 6.16,15.35 4.11,4.11 9.19,6.16 15.25,6.16 4.04,0 7.66,-0.94 10.86,-2.83 3.2,-1.88 5.64,-4.44 7.32,-7.68l4.24 2.53c-2.02,3.91 -5.03,7.02 -9.04,9.35 -4.01,2.32 -8.47,3.48 -13.39,3.48zm60.31 -52.73c7.27,0 13.44,2.56 18.49,7.68 5.12,5.05 7.68,11.28 7.68,18.69 0,7.41 -2.56,13.67 -7.68,18.79 -5.05,5.05 -11.21,7.58 -18.49,7.58 -4.85,0 -9.16,-1.13 -12.93,-3.38 -3.77,-2.26 -6.7,-5.4 -8.79,-9.45l0 31.92 -5.05 0 0 -70.71 5.05 0 0 11.72c2.09,-4.04 5.02,-7.19 8.79,-9.45 3.77,-2.26 8.08,-3.38 12.93,-3.38zm-15.56 41.62c4.18,4.18 9.26,6.26 15.26,6.26 5.93,0 10.98,-2.09 15.15,-6.26 4.18,-4.18 6.26,-9.26 6.26,-15.25 0,-5.99 -2.09,-11.08 -6.26,-15.25 -4.18,-4.18 -9.23,-6.26 -15.15,-6.26 -5.99,0 -11.08,2.09 -15.26,6.26 -4.11,4.11 -6.16,9.19 -6.16,15.25 0,6.06 2.05,11.15 6.16,15.25z"></path> <path class="fil0" d="M869.93 543.55c-7.21,0 -13.27,-2.39 -18.18,-7.16 -4.85,-4.83 -7.27,-11.09 -7.27,-18.76 0,-8.4 1.21,-14.88 3.64,-19.45 2.56,-4.71 7.64,-8.92 15.25,-12.63l5.25 -2.32c2.02,-0.88 3.65,-1.57 4.9,-2.07 1.25,-0.5 2.58,-1.13 3.99,-1.87 2.02,-1.15 3.64,-2.36 4.85,-3.64 1.21,-1.28 1.99,-3.03 2.32,-5.25l4.04 2.32c-0.34,1.89 -0.96,3.54 -1.87,4.95 -0.91,1.41 -2.29,2.73 -4.11,3.94 -0.88,0.54 -1.7,1.04 -2.48,1.52 -0.77,0.47 -1.52,0.88 -2.19,1.21 -1.35,0.74 -3.37,1.65 -6.08,2.73l-5.98 2.53c-5.05,2.29 -8.74,4.71 -11.03,7.27 -2.31,2.56 -3.86,6.08 -4.66,10.59 1.21,-1.82 2.59,-3.42 4.16,-4.8 1.55,-1.38 3.23,-2.53 5.05,-3.42 1.82,-0.91 3.7,-1.6 5.62,-2.07 1.92,-0.47 3.87,-0.71 5.83,-0.71 6.75,0 12.36,2.22 16.8,6.65 4.46,4.45 6.68,10.09 6.68,16.94 0,6.78 -2.32,12.39 -6.97,16.84 -4.58,4.43 -10.44,6.65 -17.58,6.65zm-0.05 -5.05c5.67,0 10.34,-1.72 13.97,-5.15 3.65,-3.5 5.47,-7.95 5.47,-13.33 0,-5.46 -1.75,-9.93 -5.27,-13.44 -3.5,-3.5 -8.06,-5.25 -13.67,-5.25 -5.13,0 -9.75,1.62 -13.87,4.85 -4.06,3.23 -6.28,7.41 -6.68,12.53 0,5.73 1.88,10.47 5.67,14.24 3.7,3.7 8.5,5.56 14.38,5.56zm58.84 4.95c-7.61,0 -13.94,-2.53 -18.99,-7.58 -5.05,-5.05 -7.58,-11.31 -7.58,-18.79 0,-7.48 2.53,-13.74 7.58,-18.79 5.05,-5.05 11.38,-7.58 18.99,-7.58 4.92,0 9.36,1.15 13.33,3.43 3.97,2.29 6.87,5.46 8.69,9.5l-4.14 2.43c-1.48,-3.23 -3.82,-5.79 -7.02,-7.68 -3.2,-1.89 -6.82,-2.83 -10.86,-2.83 -5.99,0 -11.08,2.09 -15.25,6.26 -4.11,4.11 -6.16,9.19 -6.16,15.25 0,6.13 2.05,11.25 6.16,15.35 4.11,4.11 9.19,6.16 15.25,6.16 4.04,0 7.66,-0.94 10.86,-2.83 3.2,-1.88 5.64,-4.44 7.32,-7.68l4.24 2.53c-2.02,3.91 -5.03,7.02 -9.04,9.35 -4.01,2.32 -8.47,3.48 -13.39,3.48z"></path> <path class="fil0" d="M1176.85 542.34l-6.26 0 -22.33 -24.85 0 24.85 -5.15 0 0 -24.85 -22.33 24.85 -6.26 0 23.94 -26.26 -22.93 -24.25 6.26 0 21.32 22.83 0 -22.83 5.15 0 0 22.83 21.31 -22.83 6.26 0 -22.83 24.25 23.84 26.26zm58.89 -50.51l0 50.51 -5.15 0 0 -42.83 -18.89 29.8 -0.71 0 -18.99 -30 0 43.03 -5.05 0 0 -50.51 5.96 0 18.39 28.99 18.39 -28.99 6.06 0z"></path> <path class="fil0" d="M1432.4 543.45c-7.61,0 -13.94,-2.53 -18.99,-7.58 -5.05,-5.05 -7.58,-11.31 -7.58,-18.79 0,-7.48 2.53,-13.74 7.58,-18.79 5.05,-5.05 11.38,-7.58 18.99,-7.58 4.92,0 9.36,1.15 13.33,3.43 3.97,2.29 6.87,5.46 8.69,9.5l-4.14 2.43c-1.48,-3.23 -3.82,-5.79 -7.02,-7.68 -3.2,-1.89 -6.82,-2.83 -10.86,-2.83 -5.99,0 -11.08,2.09 -15.25,6.26 -4.11,4.11 -6.16,9.19 -6.16,15.25 0,6.13 2.05,11.25 6.16,15.35 4.11,4.11 9.19,6.16 15.25,6.16 4.04,0 7.66,-0.94 10.86,-2.83 3.2,-1.88 5.64,-4.44 7.32,-7.68l4.24 2.53c-2.02,3.91 -5.03,7.02 -9.04,9.35 -4.01,2.32 -8.47,3.48 -13.39,3.48zm55.06 0.1c-7.21,0 -13.27,-2.39 -18.18,-7.16 -4.85,-4.83 -7.27,-11.09 -7.27,-18.76 0,-8.4 1.21,-14.88 3.64,-19.45 2.56,-4.71 7.64,-8.92 15.25,-12.63l5.25 -2.32c2.02,-0.88 3.65,-1.57 4.9,-2.07 1.25,-0.5 2.58,-1.13 3.99,-1.87 2.02,-1.15 3.64,-2.36 4.85,-3.64 1.21,-1.28 1.99,-3.03 2.32,-5.25l4.04 2.32c-0.34,1.89 -0.96,3.54 -1.87,4.95 -0.91,1.41 -2.29,2.73 -4.11,3.94 -0.88,0.54 -1.7,1.04 -2.48,1.52 -0.77,0.47 -1.52,0.88 -2.19,1.21 -1.35,0.74 -3.37,1.65 -6.08,2.73l-5.98 2.53c-5.05,2.29 -8.74,4.71 -11.03,7.27 -2.31,2.56 -3.86,6.08 -4.66,10.59 1.21,-1.82 2.59,-3.42 4.16,-4.8 1.55,-1.38 3.23,-2.53 5.05,-3.42 1.82,-0.91 3.7,-1.6 5.62,-2.07 1.92,-0.47 3.87,-0.71 5.83,-0.71 6.75,0 12.36,2.22 16.8,6.65 4.46,4.45 6.68,10.09 6.68,16.94 0,6.78 -2.32,12.39 -6.97,16.84 -4.58,4.43 -10.44,6.65 -17.58,6.65zm-0.05 -5.05c5.67,0 10.34,-1.72 13.97,-5.15 3.65,-3.5 5.47,-7.95 5.47,-13.33 0,-5.46 -1.75,-9.93 -5.27,-13.44 -3.5,-3.5 -8.06,-5.25 -13.67,-5.25 -5.13,0 -9.75,1.62 -13.87,4.85 -4.06,3.23 -6.28,7.41 -6.68,12.53 0,5.73 1.88,10.47 5.67,14.24 3.7,3.7 8.5,5.56 14.38,5.56z"></path> <path class="fil0" d="M1743.81 542.34l-6.26 0 -22.33 -24.85 0 24.85 -5.15 0 0 -24.85 -22.33 24.85 -6.26 0 23.94 -26.26 -22.93 -24.25 6.26 0 21.32 22.83 0 -22.83 5.15 0 0 22.83 21.31 -22.83 6.26 0 -22.83 24.25 23.84 26.26zm29.2 1.11c-7.61,0 -13.94,-2.53 -18.99,-7.58 -5.05,-5.05 -7.58,-11.31 -7.58,-18.79 0,-7.48 2.53,-13.74 7.58,-18.79 5.05,-5.05 11.38,-7.58 18.99,-7.58 4.92,0 9.36,1.15 13.33,3.43 3.97,2.29 6.87,5.46 8.69,9.5l-4.14 2.43c-1.48,-3.23 -3.82,-5.79 -7.02,-7.68 -3.2,-1.89 -6.82,-2.83 -10.86,-2.83 -5.99,0 -11.08,2.09 -15.25,6.26 -4.11,4.11 -6.16,9.19 -6.16,15.25 0,6.13 2.05,11.25 6.16,15.35 4.11,4.11 9.19,6.16 15.25,6.16 4.04,0 7.66,-0.94 10.86,-2.83 3.2,-1.88 5.64,-4.44 7.32,-7.68l4.24 2.53c-2.02,3.91 -5.03,7.02 -9.04,9.35 -4.01,2.32 -8.47,3.48 -13.39,3.48z"></path> <polygon class="fil0" points="1774.59,778.13 1774.59,783.83 1764.32,783.83 1764.32,800.61 1758.27,800.61 1758.27,783.83 1715.26,783.83 1715.26,778.13 1745.61,720.73 1752.22,720.73 1721.99,778.13 1758.27,778.13 1758.27,753.03 1764.32,753.03 1764.32,778.13 "></polygon> <path class="fil0" d="M54.14 929.41c7.45,0 13.73,2.21 18.83,6.62 5.17,4.33 7.76,10.23 7.76,17.69 0,7.38 -2.59,13.31 -7.76,17.8 -5.17,4.34 -11.45,6.5 -18.83,6.5 -2.97,0 -5.78,-0.36 -8.44,-1.08 -2.66,-0.72 -5.08,-1.77 -7.25,-3.14 -2.17,-1.37 -4.07,-3.06 -5.7,-5.08 -1.64,-2.02 -2.91,-4.28 -3.82,-6.79l5.13 -2.97c1.29,4.34 3.71,7.63 7.24,9.87 3.54,2.24 7.82,3.37 12.84,3.37 6.01,0 10.92,-1.67 14.72,-5.02 3.88,-3.27 5.82,-7.76 5.82,-13.46 0,-5.63 -1.94,-10.12 -5.82,-13.46 -3.8,-3.35 -8.71,-5.02 -14.72,-5.02l-21.34 0 2.74 -38.34 42.22 0 0 5.71 -36.86 0 -1.83 26.81 15.06 0z"></path> <path class="fil0" d="M336.28 925.41c7.76,0 14.19,2.47 19.28,7.42 5.02,4.94 7.53,11.26 7.53,18.94 0,7.76 -2.51,14.07 -7.53,18.94 -4.94,4.87 -11.37,7.3 -19.28,7.3 -7.91,0 -14.34,-2.43 -19.28,-7.3 -5.02,-4.87 -7.53,-11.18 -7.53,-18.94 0,-6.01 1.64,-11.33 4.91,-15.98l26.81 -38.91 6.85 0 -20.42 29.78c2.97,-0.84 5.86,-1.25 8.67,-1.25zm20.77 26.36c0,-6.09 -1.9,-11.03 -5.72,-14.83 -3.8,-3.8 -8.84,-5.71 -15.1,-5.71 -6.26,0 -11.29,1.9 -15.1,5.71 -3.75,3.73 -5.61,8.67 -5.61,14.83 0,2.97 0.49,5.71 1.48,8.21 0.99,2.51 2.39,4.68 4.18,6.5 1.79,1.83 3.96,3.23 6.52,4.22 2.55,0.99 5.4,1.48 8.52,1.48 3.12,0 5.97,-0.49 8.52,-1.48 2.57,-0.99 4.76,-2.4 6.58,-4.22 1.83,-1.83 3.25,-3.99 4.24,-6.5 0.99,-2.51 1.48,-5.25 1.48,-8.21z"></path> <polygon class="fil0" points="592.69,896.89 641.07,896.89 641.07,902.59 610.03,976.76 603.76,976.76 634.79,902.59 592.69,902.59 "></polygon> <path class="fil0" d="M911.84 935.45c4.39,1.75 7.87,4.37 10.4,7.87 2.55,3.5 3.82,7.53 3.82,12.1 0,7.07 -2.47,12.63 -7.4,16.66 -4.87,3.96 -11.2,5.93 -19.02,5.93 -7.82,0 -14.15,-1.98 -19.02,-5.93 -4.93,-4.03 -7.4,-9.58 -7.4,-16.66 0,-4.56 1.27,-8.6 3.82,-12.1 2.53,-3.5 6.01,-6.12 10.4,-7.87 -3.63,-1.75 -6.48,-4.2 -8.52,-7.36 -2.05,-3.16 -3.08,-6.79 -3.08,-10.9 0,-6.77 2.28,-12.06 6.85,-15.86 4.72,-3.8 10.38,-5.71 17,-5.71 6.62,0 12.25,1.9 16.89,5.71 4.64,3.73 6.96,9.01 6.96,15.86 0,4.11 -1.03,7.74 -3.1,10.9 -2.07,3.16 -4.95,5.61 -8.61,7.36zm-29.93 -18.26c0,2.43 0.44,4.6 1.31,6.5 0.88,1.9 2.11,3.54 3.71,4.91 1.6,1.37 3.48,2.41 5.65,3.14 2.17,0.72 4.54,1.08 7.13,1.08 2.59,0 4.96,-0.36 7.13,-1.08 2.17,-0.72 4.05,-1.77 5.65,-3.14 1.6,-1.37 2.83,-3 3.71,-4.91 0.88,-1.9 1.31,-4.07 1.31,-6.5 0,-5.02 -1.65,-8.9 -4.96,-11.64 -3.31,-2.74 -7.59,-4.11 -12.84,-4.11 -5.25,0 -9.53,1.37 -12.84,4.11 -3.31,2.74 -4.96,6.62 -4.96,11.64zm2.87 50.55c3.65,2.97 8.62,4.45 14.87,4.45 6.26,0 11.22,-1.48 14.87,-4.45 3.67,-2.97 5.5,-7.07 5.5,-12.32 0,-5.25 -1.83,-9.32 -5.5,-12.21 -3.65,-2.97 -8.62,-4.45 -14.87,-4.45 -6.26,0 -11.22,1.48 -14.87,4.45 -3.67,2.89 -5.5,6.96 -5.5,12.21 0,5.25 1.83,9.36 5.5,12.32z"></path> <path class="fil0" d="M1208.14 921.87c0,6.01 -1.64,11.33 -4.91,15.98l-26.7 38.91 -6.85 0 20.42 -29.78c-2.97,0.84 -5.9,1.25 -8.79,1.25 -7.91,0 -14.34,-2.43 -19.28,-7.3 -5.02,-4.87 -7.53,-11.22 -7.53,-19.06 0,-7.61 2.51,-13.88 7.53,-18.83 5.1,-4.95 11.52,-7.42 19.28,-7.42 7.76,0 14.19,2.47 19.28,7.42 5.02,4.95 7.53,11.22 7.53,18.83zm-47.58 0c0,6.16 1.86,11.11 5.61,14.83 3.8,3.8 8.84,5.71 15.1,5.71 6.26,0 11.3,-1.9 15.1,-5.71 3.82,-3.8 5.72,-8.75 5.72,-14.83 0,-2.97 -0.49,-5.7 -1.48,-8.21 -0.99,-2.51 -2.41,-4.68 -4.24,-6.5 -1.83,-1.83 -4.01,-3.23 -6.58,-4.22 -2.55,-0.99 -5.4,-1.48 -8.52,-1.48 -3.12,0 -5.97,0.5 -8.52,1.48 -2.57,0.99 -4.74,2.4 -6.52,4.22 -1.79,1.83 -3.19,3.99 -4.18,6.5 -0.99,2.51 -1.48,5.25 -1.48,8.21z"></path> <path class="fil0" d="M1431.01 896.89l5.13 0 0 79.87 -6.05 0 0 -73.25 -18.48 5.82 -1.48 -5.25 20.88 -7.19zm72.93 69.94c-5.25,7.46 -12.57,11.18 -21.98,11.18 -9.41,0 -16.74,-3.73 -21.99,-11.18 -5.23,-7.38 -7.85,-17.38 -7.85,-30.01 0,-12.55 2.62,-22.55 7.85,-30.01 5.25,-7.45 12.57,-11.18 21.99,-11.18 9.41,0 16.73,3.73 21.98,11.18 5.23,7.45 7.85,17.46 7.85,30.01 0,12.55 -2.62,22.55 -7.85,30.01zm-39.48 -3.88c4.18,6.16 10.02,9.24 17.5,9.24 7.4,0 13.24,-3.08 17.49,-9.24 4.2,-6.24 6.29,-14.95 6.29,-26.13 0,-11.26 -2.09,-19.93 -6.29,-26.02 -4.18,-6.24 -10.02,-9.36 -17.49,-9.36 -7.47,0 -13.31,3.12 -17.5,9.36 -4.2,6.09 -6.29,14.76 -6.29,26.02 0,11.18 2.09,19.89 6.29,26.13z"></path> <polygon class="fil0" points="903.58,720.74 908.72,720.74 908.72,800.61 902.67,800.61 902.67,727.35 884.19,733.17 882.7,727.92 "></polygon> <path class="fil0" d="M1156.23 800.61l0 -5.48 29.32 -30.12c8.6,-8.98 12.89,-16.51 12.89,-22.59 0,-2.66 -0.44,-5.04 -1.31,-7.13 -0.88,-2.09 -2.11,-3.88 -3.71,-5.36 -1.6,-1.48 -3.46,-2.62 -5.59,-3.42 -2.13,-0.8 -4.45,-1.2 -6.96,-1.2 -8.98,0 -15.33,4.03 -19.06,12.1l-5.13 -3.08c2.36,-4.79 5.65,-8.46 9.87,-11.01 4.22,-2.55 9,-3.82 14.32,-3.82 6.39,0 11.94,2.05 16.66,6.16 4.64,4.11 6.96,9.7 6.96,16.77 0,4.57 -1.27,9 -3.82,13.29 -2.55,4.3 -6.22,8.84 -11.01,13.63l-24.76 25.45 41.42 0 0 5.82 -50.09 0z"></path> <path class="fil0" d="M1465.41 753.94c6.69,0.68 12.21,3.08 16.54,7.19 4.34,4.11 6.5,9.58 6.5,16.43 0,7.45 -2.55,13.39 -7.65,17.8 -5.17,4.34 -11.41,6.5 -18.71,6.5 -5.93,0 -11.18,-1.33 -15.75,-3.99 -4.56,-2.66 -7.8,-6.39 -9.7,-11.18l5.02 -2.97c1.44,3.96 3.96,7 7.53,9.13 3.57,2.13 7.87,3.19 12.89,3.19 2.97,0 5.69,-0.44 8.16,-1.31 2.47,-0.88 4.62,-2.11 6.45,-3.71 1.83,-1.6 3.23,-3.54 4.22,-5.82 0.99,-2.28 1.48,-4.83 1.48,-7.64 0,-5.63 -1.94,-10.12 -5.82,-13.46 -3.8,-3.35 -8.71,-5.02 -14.72,-5.02l0 -0.11 -0.11 0.11 -1.6 0 -2.62 -3.99 20.2 -28.64 -39.02 0 0 -5.71 45.98 0 0 5.71 -19.28 27.5z"></path> <path class="fil0" d="M1729.69 896.89l5.13 0 0 79.87 -6.05 0 0 -73.25 -18.48 5.82 -1.48 -5.25 20.88 -7.19zm37.88 0l5.13 0 0 79.87 -6.05 0 0 -73.25 -18.48 5.82 -1.48 -5.25 20.88 -7.19z"></path> <path class="fil0" d="M28.47 1073.04l5.13 0 0 79.87 -6.05 0 0 -73.25 -18.48 5.82 -1.48 -5.25 20.88 -7.19zm19.97 79.87l0 -5.48 29.32 -30.12c8.6,-8.98 12.89,-16.51 12.89,-22.59 0,-2.66 -0.44,-5.04 -1.31,-7.13 -0.88,-2.09 -2.11,-3.88 -3.71,-5.36 -1.6,-1.48 -3.46,-2.62 -5.59,-3.42 -2.13,-0.8 -4.45,-1.2 -6.96,-1.2 -8.98,0 -15.33,4.03 -19.06,12.1l-5.13 -3.08c2.36,-4.79 5.65,-8.46 9.87,-11.01 4.22,-2.55 9,-3.82 14.32,-3.82 6.39,0 11.94,2.05 16.66,6.16 4.64,4.11 6.96,9.7 6.96,16.77 0,4.57 -1.27,9 -3.82,13.29 -2.55,4.3 -6.22,8.84 -11.01,13.63l-24.76 25.45 41.42 0 0 5.82 -50.09 0z"></path> <path class="fil0" d="M309.47 1073.04l5.13 0 0 79.87 -6.05 0 0 -73.25 -18.48 5.82 -1.48 -5.25 20.88 -7.19zm48.15 33.2c6.69,0.68 12.21,3.08 16.54,7.19 4.34,4.11 6.5,9.58 6.5,16.43 0,7.45 -2.55,13.39 -7.65,17.8 -5.17,4.34 -11.41,6.5 -18.71,6.5 -5.93,0 -11.18,-1.33 -15.75,-3.99 -4.56,-2.66 -7.8,-6.39 -9.7,-11.18l5.02 -2.97c1.44,3.96 3.96,7 7.53,9.13 3.57,2.13 7.87,3.19 12.89,3.19 2.97,0 5.69,-0.44 8.16,-1.31 2.47,-0.88 4.62,-2.11 6.45,-3.71 1.83,-1.6 3.23,-3.54 4.22,-5.82 0.99,-2.28 1.48,-4.83 1.48,-7.64 0,-5.63 -1.94,-10.12 -5.82,-13.46 -3.8,-3.35 -8.71,-5.02 -14.72,-5.02l0 -0.11 -0.11 0.11 -1.6 0 -2.62 -3.99 20.2 -28.64 -39.02 0 0 -5.71 45.98 0 0 5.71 -19.28 27.5z"></path> <path class="fil0" d="M589.21 1073.04l5.13 0 0 79.87 -6.05 0 0 -73.25 -18.48 5.82 -1.48 -5.25 20.88 -7.19zm77.59 57.39l0 5.71 -10.27 0 0 16.77 -6.05 0 0 -16.77 -43.02 0 0 -5.71 30.35 -57.39 6.62 0 -30.24 57.39 36.28 0 0 -25.1 6.05 0 0 25.1 10.27 0z"></path> <path class="fil0" d="M872.72 1073.04l5.13 0 0 79.87 -6.05 0 0 -73.25 -18.48 5.82 -1.48 -5.25 20.88 -7.19zm45.41 32.52c7.45,0 13.73,2.21 18.83,6.62 5.17,4.33 7.76,10.23 7.76,17.69 0,7.38 -2.59,13.31 -7.76,17.8 -5.17,4.34 -11.45,6.5 -18.83,6.5 -2.97,0 -5.78,-0.36 -8.44,-1.08 -2.66,-0.72 -5.08,-1.77 -7.25,-3.14 -2.17,-1.37 -4.07,-3.06 -5.7,-5.08 -1.64,-2.02 -2.91,-4.28 -3.82,-6.79l5.13 -2.97c1.29,4.34 3.71,7.63 7.24,9.87 3.54,2.24 7.82,3.37 12.84,3.37 6.01,0 10.92,-1.67 14.72,-5.02 3.88,-3.27 5.82,-7.76 5.82,-13.46 0,-5.63 -1.94,-10.12 -5.82,-13.46 -3.8,-3.35 -8.71,-5.02 -14.72,-5.02l-21.34 0 2.74 -38.34 42.22 0 0 5.71 -36.86 0 -1.83 26.81 15.06 0z"></path> <path class="fil0" d="M1154.63 1073.04l5.13 0 0 79.87 -6.05 0 0 -73.25 -18.48 5.82 -1.48 -5.25 20.88 -7.19zm45.64 28.53c7.76,0 14.19,2.47 19.28,7.42 5.02,4.94 7.53,11.26 7.53,18.94 0,7.76 -2.51,14.07 -7.53,18.94 -4.94,4.87 -11.37,7.3 -19.28,7.3 -7.91,0 -14.34,-2.43 -19.28,-7.3 -5.02,-4.87 -7.53,-11.18 -7.53,-18.94 0,-6.01 1.64,-11.33 4.91,-15.98l26.81 -38.91 6.85 0 -20.42 29.78c2.97,-0.84 5.86,-1.25 8.67,-1.25zm20.77 26.36c0,-6.09 -1.9,-11.03 -5.72,-14.83 -3.8,-3.8 -8.84,-5.71 -15.1,-5.71 -6.26,0 -11.29,1.9 -15.1,5.71 -3.75,3.73 -5.61,8.67 -5.61,14.83 0,2.97 0.49,5.71 1.48,8.21 0.99,2.51 2.39,4.68 4.18,6.5 1.79,1.83 3.96,3.23 6.52,4.22 2.55,0.99 5.4,1.48 8.52,1.48 3.12,0 5.97,-0.49 8.52,-1.48 2.57,-0.99 4.76,-2.4 6.58,-4.22 1.83,-1.83 3.25,-3.99 4.24,-6.5 0.99,-2.51 1.48,-5.25 1.48,-8.21z"></path> <path class="fil0" d="M1438.99 1073.04l5.13 0 0 79.87 -6.05 0 0 -73.25 -18.48 5.82 -1.48 -5.25 20.88 -7.19zm17.68 0l48.38 0 0 5.71 -31.04 74.17 -6.28 0 31.04 -74.17 -42.11 0 0 -5.71z"></path> <path class="fil0" d="M1717.25 1073.04l5.13 0 0 79.87 -6.05 0 0 -73.25 -18.48 5.82 -1.48 -5.25 20.88 -7.19zm58.57 38.57c4.39,1.75 7.87,4.37 10.4,7.87 2.55,3.5 3.82,7.53 3.82,12.1 0,7.07 -2.47,12.63 -7.4,16.66 -4.87,3.96 -11.2,5.93 -19.02,5.93 -7.82,0 -14.15,-1.98 -19.02,-5.93 -4.93,-4.03 -7.4,-9.58 -7.4,-16.66 0,-4.56 1.27,-8.6 3.82,-12.1 2.53,-3.5 6.01,-6.12 10.4,-7.87 -3.63,-1.75 -6.48,-4.2 -8.52,-7.36 -2.05,-3.16 -3.08,-6.79 -3.08,-10.9 0,-6.77 2.28,-12.06 6.85,-15.86 4.72,-3.8 10.38,-5.71 17,-5.71 6.62,0 12.25,1.9 16.89,5.71 4.64,3.73 6.96,9.01 6.96,15.86 0,4.11 -1.03,7.74 -3.1,10.9 -2.07,3.16 -4.95,5.61 -8.61,7.36zm-29.93 -18.26c0,2.43 0.44,4.6 1.31,6.5 0.88,1.9 2.11,3.54 3.71,4.91 1.6,1.37 3.48,2.41 5.65,3.14 2.17,0.72 4.54,1.08 7.13,1.08 2.59,0 4.96,-0.36 7.13,-1.08 2.17,-0.72 4.05,-1.77 5.65,-3.14 1.6,-1.37 2.83,-3 3.71,-4.91 0.88,-1.9 1.31,-4.07 1.31,-6.5 0,-5.02 -1.65,-8.9 -4.96,-11.64 -3.31,-2.74 -7.59,-4.11 -12.84,-4.11 -5.25,0 -9.53,1.37 -12.84,4.11 -3.31,2.74 -4.96,6.62 -4.96,11.64zm2.87 50.55c3.65,2.97 8.62,4.45 14.87,4.45 6.26,0 11.22,-1.48 14.87,-4.45 3.67,-2.97 5.5,-7.07 5.5,-12.32 0,-5.25 -1.83,-9.32 -5.5,-12.21 -3.65,-2.97 -8.62,-4.45 -14.87,-4.45 -6.26,0 -11.22,1.48 -14.87,4.45 -3.67,2.89 -5.5,6.96 -5.5,12.21 0,5.25 1.83,9.36 5.5,12.32z"></path> <path class="fil0" d="M27.9 1249.19l5.13 0 0 79.87 -6.05 0 0 -73.25 -18.48 5.82 -1.48 -5.25 20.88 -7.19zm72.45 24.99c0,6.01 -1.64,11.33 -4.91,15.98l-26.7 38.91 -6.85 0 20.42 -29.78c-2.97,0.84 -5.9,1.25 -8.79,1.25 -7.91,0 -14.34,-2.43 -19.28,-7.3 -5.02,-4.87 -7.53,-11.22 -7.53,-19.06 0,-7.61 2.51,-13.88 7.53,-18.83 5.1,-4.95 11.52,-7.42 19.28,-7.42 7.76,0 14.19,2.47 19.28,7.42 5.02,4.95 7.53,11.22 7.53,18.83zm-47.58 0c0,6.16 1.86,11.11 5.61,14.83 3.8,3.8 8.84,5.71 15.1,5.71 6.26,0 11.3,-1.9 15.1,-5.71 3.82,-3.8 5.72,-8.75 5.72,-14.83 0,-2.97 -0.49,-5.7 -1.48,-8.21 -0.99,-2.51 -2.41,-4.68 -4.24,-6.5 -1.83,-1.83 -4.01,-3.23 -6.58,-4.22 -2.55,-0.99 -5.4,-1.48 -8.52,-1.48 -3.12,0 -5.97,0.5 -8.52,1.48 -2.57,0.99 -4.74,2.4 -6.52,4.22 -1.79,1.83 -3.19,3.99 -4.18,6.5 -0.99,2.51 -1.48,5.25 -1.48,8.21z"></path> <path class="fil0" d="M275.81 1329.06l0 -5.48 29.32 -30.12c8.6,-8.98 12.89,-16.51 12.89,-22.59 0,-2.66 -0.44,-5.04 -1.31,-7.13 -0.88,-2.09 -2.11,-3.88 -3.71,-5.36 -1.6,-1.48 -3.46,-2.62 -5.59,-3.42 -2.13,-0.8 -4.45,-1.2 -6.96,-1.2 -8.98,0 -15.33,4.03 -19.06,12.1l-5.13 -3.08c2.36,-4.79 5.65,-8.46 9.87,-11.01 4.22,-2.55 9,-3.82 14.32,-3.82 6.39,0 11.94,2.05 16.66,6.16 4.64,4.11 6.96,9.7 6.96,16.77 0,4.57 -1.27,9 -3.82,13.29 -2.55,4.3 -6.22,8.84 -11.01,13.63l-24.76 25.45 41.42 0 0 5.82 -50.09 0zm111.95 -9.93c-5.25,7.46 -12.57,11.18 -21.98,11.18 -9.41,0 -16.74,-3.73 -21.99,-11.18 -5.23,-7.38 -7.85,-17.38 -7.85,-30.01 0,-12.55 2.62,-22.55 7.85,-30.01 5.25,-7.45 12.57,-11.18 21.99,-11.18 9.41,0 16.73,3.73 21.98,11.18 5.23,7.45 7.85,17.46 7.85,30.01 0,12.55 -2.62,22.55 -7.85,30.01zm-39.48 -3.88c4.18,6.16 10.02,9.24 17.5,9.24 7.4,0 13.24,-3.08 17.49,-9.24 4.2,-6.24 6.29,-14.95 6.29,-26.13 0,-11.26 -2.09,-19.93 -6.29,-26.02 -4.18,-6.24 -10.02,-9.36 -17.49,-9.36 -7.47,0 -13.31,3.12 -17.5,9.36 -4.2,6.09 -6.29,14.76 -6.29,26.02 0,11.18 2.09,19.89 6.29,26.13z"></path> <path class="fil0" d="M573.92 1329.06l0 -5.48 29.32 -30.12c8.6,-8.98 12.89,-16.51 12.89,-22.59 0,-2.66 -0.44,-5.04 -1.31,-7.13 -0.88,-2.09 -2.11,-3.88 -3.71,-5.36 -1.6,-1.48 -3.46,-2.62 -5.59,-3.42 -2.13,-0.8 -4.45,-1.2 -6.96,-1.2 -8.98,0 -15.33,4.03 -19.06,12.1l-5.13 -3.08c2.36,-4.79 5.65,-8.46 9.87,-11.01 4.22,-2.55 9,-3.82 14.32,-3.82 6.39,0 11.94,2.05 16.66,6.16 4.64,4.11 6.96,9.7 6.96,16.77 0,4.57 -1.27,9 -3.82,13.29 -2.55,4.3 -6.22,8.84 -11.01,13.63l-24.76 25.45 41.42 0 0 5.82 -50.09 0zm78.05 -79.87l5.13 0 0 79.87 -6.05 0 0 -73.25 -18.48 5.82 -1.48 -5.25 20.88 -7.19z"></path> <path class="fil0" d="M844.48 1329.06l0 -5.48 29.32 -30.12c8.6,-8.98 12.89,-16.51 12.89,-22.59 0,-2.66 -0.44,-5.04 -1.31,-7.13 -0.88,-2.09 -2.11,-3.88 -3.71,-5.36 -1.6,-1.48 -3.46,-2.62 -5.59,-3.42 -2.13,-0.8 -4.45,-1.2 -6.96,-1.2 -8.98,0 -15.33,4.03 -19.06,12.1l-5.13 -3.08c2.36,-4.79 5.65,-8.46 9.87,-11.01 4.22,-2.55 9,-3.82 14.32,-3.82 6.39,0 11.94,2.05 16.66,6.16 4.64,4.11 6.96,9.7 6.96,16.77 0,4.57 -1.27,9 -3.82,13.29 -2.55,4.3 -6.22,8.84 -11.01,13.63l-24.76 25.45 41.42 0 0 5.82 -50.09 0zm60.13 0l0 -5.48 29.32 -30.12c8.6,-8.98 12.89,-16.51 12.89,-22.59 0,-2.66 -0.44,-5.04 -1.31,-7.13 -0.88,-2.09 -2.11,-3.88 -3.71,-5.36 -1.6,-1.48 -3.46,-2.62 -5.59,-3.42 -2.13,-0.8 -4.45,-1.2 -6.96,-1.2 -8.98,0 -15.33,4.03 -19.06,12.1l-5.13 -3.08c2.36,-4.79 5.65,-8.46 9.87,-11.01 4.22,-2.55 9,-3.82 14.32,-3.82 6.39,0 11.94,2.05 16.66,6.16 4.64,4.11 6.96,9.7 6.96,16.77 0,4.57 -1.27,9 -3.82,13.29 -2.55,4.3 -6.22,8.84 -11.01,13.63l-24.76 25.45 41.42 0 0 5.82 -50.09 0z"></path> <path class="fil0" d="M1126.05 1329.06l0 -5.48 29.32 -30.12c8.6,-8.98 12.89,-16.51 12.89,-22.59 0,-2.66 -0.44,-5.04 -1.31,-7.13 -0.88,-2.09 -2.11,-3.88 -3.71,-5.36 -1.6,-1.48 -3.46,-2.62 -5.59,-3.42 -2.13,-0.8 -4.45,-1.2 -6.96,-1.2 -8.98,0 -15.33,4.03 -19.06,12.1l-5.13 -3.08c2.36,-4.79 5.65,-8.46 9.87,-11.01 4.22,-2.55 9,-3.82 14.32,-3.82 6.39,0 11.94,2.05 16.66,6.16 4.64,4.11 6.96,9.7 6.96,16.77 0,4.57 -1.27,9 -3.82,13.29 -2.55,4.3 -6.22,8.84 -11.01,13.63l-24.76 25.45 41.42 0 0 5.82 -50.09 0zm87.18 -46.67c6.69,0.68 12.21,3.08 16.54,7.19 4.34,4.11 6.5,9.58 6.5,16.43 0,7.45 -2.55,13.39 -7.65,17.8 -5.17,4.34 -11.41,6.5 -18.71,6.5 -5.93,0 -11.18,-1.33 -15.75,-3.99 -4.56,-2.66 -7.8,-6.39 -9.7,-11.18l5.02 -2.97c1.44,3.96 3.96,7 7.53,9.13 3.57,2.13 7.87,3.19 12.89,3.19 2.97,0 5.69,-0.44 8.16,-1.31 2.47,-0.88 4.62,-2.11 6.45,-3.71 1.83,-1.6 3.23,-3.54 4.22,-5.82 0.99,-2.28 1.48,-4.83 1.48,-7.64 0,-5.63 -1.94,-10.12 -5.82,-13.46 -3.8,-3.35 -8.71,-5.02 -14.72,-5.02l0 -0.11 -0.11 0.11 -1.6 0 -2.62 -3.99 20.2 -28.64 -39.02 0 0 -5.71 45.98 0 0 5.71 -19.28 27.5z"></path> <path class="fil0" d="M561.77 1505.22l0 -5.48 29.32 -30.12c8.6,-8.98 12.89,-16.51 12.89,-22.59 0,-2.66 -0.44,-5.04 -1.31,-7.13 -0.88,-2.09 -2.11,-3.88 -3.71,-5.36 -1.6,-1.48 -3.46,-2.62 -5.59,-3.42 -2.13,-0.8 -4.45,-1.2 -6.96,-1.2 -8.98,0 -15.33,4.03 -19.06,12.1l-5.13 -3.08c2.36,-4.79 5.65,-8.46 9.87,-11.01 4.22,-2.55 9,-3.82 14.32,-3.82 6.39,0 11.94,2.05 16.66,6.16 4.64,4.11 6.96,9.7 6.96,16.77 0,4.57 -1.27,9 -3.82,13.29 -2.55,4.3 -6.22,8.84 -11.01,13.63l-24.76 25.45 41.42 0 0 5.82 -50.09 0zm98.17 -41.31c4.39,1.75 7.87,4.37 10.4,7.87 2.55,3.5 3.82,7.53 3.82,12.1 0,7.07 -2.47,12.63 -7.4,16.66 -4.87,3.96 -11.2,5.93 -19.02,5.93 -7.82,0 -14.15,-1.98 -19.02,-5.93 -4.93,-4.03 -7.4,-9.58 -7.4,-16.66 0,-4.56 1.27,-8.6 3.82,-12.1 2.53,-3.5 6.01,-6.12 10.4,-7.87 -3.63,-1.75 -6.48,-4.2 -8.52,-7.36 -2.05,-3.16 -3.08,-6.79 -3.08,-10.9 0,-6.77 2.28,-12.06 6.85,-15.86 4.72,-3.8 10.38,-5.71 17,-5.71 6.62,0 12.25,1.9 16.89,5.71 4.64,3.73 6.96,9.01 6.96,15.86 0,4.11 -1.03,7.74 -3.1,10.9 -2.07,3.16 -4.95,5.61 -8.61,7.36zm-29.93 -18.26c0,2.43 0.44,4.6 1.31,6.5 0.88,1.9 2.11,3.54 3.71,4.91 1.6,1.37 3.48,2.41 5.65,3.14 2.17,0.72 4.54,1.08 7.13,1.08 2.59,0 4.96,-0.36 7.13,-1.08 2.17,-0.72 4.05,-1.77 5.65,-3.14 1.6,-1.37 2.83,-3 3.71,-4.91 0.88,-1.9 1.31,-4.07 1.31,-6.5 0,-5.02 -1.65,-8.9 -4.96,-11.64 -3.31,-2.74 -7.59,-4.11 -12.84,-4.11 -5.25,0 -9.53,1.37 -12.84,4.11 -3.31,2.74 -4.96,6.62 -4.96,11.64zm2.87 50.55c3.65,2.97 8.62,4.45 14.87,4.45 6.26,0 11.22,-1.48 14.87,-4.45 3.67,-2.97 5.5,-7.07 5.5,-12.32 0,-5.25 -1.83,-9.32 -5.5,-12.21 -3.65,-2.97 -8.62,-4.45 -14.87,-4.45 -6.26,0 -11.22,1.48 -14.87,4.45 -3.67,2.89 -5.5,6.96 -5.5,12.21 0,5.25 1.83,9.36 5.5,12.32z"></path> <path class="fil0" d="M843.91 1505.22l0 -5.48 29.32 -30.12c8.6,-8.98 12.89,-16.51 12.89,-22.59 0,-2.66 -0.44,-5.04 -1.31,-7.13 -0.88,-2.09 -2.11,-3.88 -3.71,-5.36 -1.6,-1.48 -3.46,-2.62 -5.59,-3.42 -2.13,-0.8 -4.45,-1.2 -6.96,-1.2 -8.98,0 -15.33,4.03 -19.06,12.1l-5.13 -3.08c2.36,-4.79 5.65,-8.46 9.87,-11.01 4.22,-2.55 9,-3.82 14.32,-3.82 6.39,0 11.94,2.05 16.66,6.16 4.64,4.11 6.96,9.7 6.96,16.77 0,4.57 -1.27,9 -3.82,13.29 -2.55,4.3 -6.22,8.84 -11.01,13.63l-24.76 25.45 41.42 0 0 5.82 -50.09 0zm112.62 -54.88c0,6.01 -1.64,11.33 -4.91,15.98l-26.7 38.91 -6.85 0 20.42 -29.78c-2.97,0.84 -5.9,1.25 -8.79,1.25 -7.91,0 -14.34,-2.43 -19.28,-7.3 -5.02,-4.87 -7.53,-11.22 -7.53,-19.06 0,-7.61 2.51,-13.88 7.53,-18.83 5.1,-4.95 11.52,-7.42 19.28,-7.42 7.76,0 14.19,2.47 19.28,7.42 5.02,4.95 7.53,11.22 7.53,18.83zm-47.58 0c0,6.16 1.86,11.11 5.61,14.83 3.8,3.8 8.84,5.71 15.1,5.71 6.26,0 11.3,-1.9 15.1,-5.71 3.82,-3.8 5.72,-8.75 5.72,-14.83 0,-2.97 -0.49,-5.7 -1.48,-8.21 -0.99,-2.51 -2.41,-4.68 -4.24,-6.5 -1.83,-1.83 -4.01,-3.23 -6.58,-4.22 -2.55,-0.99 -5.4,-1.48 -8.52,-1.48 -3.12,0 -5.97,0.5 -8.52,1.48 -2.57,0.99 -4.74,2.4 -6.52,4.22 -1.79,1.83 -3.19,3.99 -4.18,6.5 -0.99,2.51 -1.48,5.25 -1.48,8.21z"></path> <path class="fil0" d="M1147.79 1458.55c6.69,0.68 12.21,3.08 16.54,7.19 4.34,4.11 6.5,9.58 6.5,16.43 0,7.45 -2.55,13.39 -7.65,17.8 -5.17,4.34 -11.41,6.5 -18.71,6.5 -5.93,0 -11.18,-1.33 -15.75,-3.99 -4.56,-2.66 -7.8,-6.39 -9.7,-11.18l5.02 -2.97c1.44,3.96 3.96,7 7.53,9.13 3.57,2.13 7.87,3.19 12.89,3.19 2.97,0 5.69,-0.44 8.16,-1.31 2.47,-0.88 4.62,-2.11 6.45,-3.71 1.83,-1.6 3.23,-3.54 4.22,-5.82 0.99,-2.28 1.48,-4.83 1.48,-7.64 0,-5.63 -1.94,-10.12 -5.82,-13.46 -3.8,-3.35 -8.71,-5.02 -14.72,-5.02l0 -0.11 -0.11 0.11 -1.6 0 -2.62 -3.99 20.2 -28.64 -39.02 0 0 -5.71 45.98 0 0 5.71 -19.28 27.5zm86.28 36.74c-5.25,7.46 -12.57,11.18 -21.98,11.18 -9.41,0 -16.74,-3.73 -21.99,-11.18 -5.23,-7.38 -7.85,-17.38 -7.85,-30.01 0,-12.55 2.62,-22.55 7.85,-30.01 5.25,-7.45 12.57,-11.18 21.99,-11.18 9.41,0 16.73,3.73 21.98,11.18 5.23,7.45 7.85,17.46 7.85,30.01 0,12.55 -2.62,22.55 -7.85,30.01zm-39.48 -3.88c4.18,6.16 10.02,9.24 17.5,9.24 7.4,0 13.24,-3.08 17.49,-9.24 4.2,-6.24 6.29,-14.95 6.29,-26.13 0,-11.26 -2.09,-19.93 -6.29,-26.02 -4.18,-6.24 -10.02,-9.36 -17.49,-9.36 -7.47,0 -13.31,3.12 -17.5,9.36 -4.2,6.09 -6.29,14.76 -6.29,26.02 0,11.18 2.09,19.89 6.29,26.13z"></path> <path class="fil0" d="M1406.36 1329.06l0 -5.48 29.32 -30.12c8.6,-8.98 12.89,-16.51 12.89,-22.59 0,-2.66 -0.44,-5.04 -1.31,-7.13 -0.88,-2.09 -2.11,-3.88 -3.71,-5.36 -1.6,-1.48 -3.46,-2.62 -5.59,-3.42 -2.13,-0.8 -4.45,-1.2 -6.96,-1.2 -8.98,0 -15.33,4.03 -19.06,12.1l-5.13 -3.08c2.36,-4.79 5.65,-8.46 9.87,-11.01 4.22,-2.55 9,-3.82 14.32,-3.82 6.39,0 11.94,2.05 16.66,6.16 4.64,4.11 6.96,9.7 6.96,16.77 0,4.57 -1.27,9 -3.82,13.29 -2.55,4.3 -6.22,8.84 -11.01,13.63l-24.76 25.45 41.42 0 0 5.82 -50.09 0zm115.47 -22.48l0 5.71 -10.27 0 0 16.77 -6.05 0 0 -16.77 -43.02 0 0 -5.71 30.35 -57.39 6.62 0 -30.24 57.39 36.28 0 0 -25.1 6.05 0 0 25.1 10.27 0z"></path> <path class="fil0" d="M1689.01 1329.06l0 -5.48 29.32 -30.12c8.6,-8.98 12.89,-16.51 12.89,-22.59 0,-2.66 -0.44,-5.04 -1.31,-7.13 -0.88,-2.09 -2.11,-3.88 -3.71,-5.36 -1.6,-1.48 -3.46,-2.62 -5.59,-3.42 -2.13,-0.8 -4.45,-1.2 -6.96,-1.2 -8.98,0 -15.33,4.03 -19.06,12.1l-5.13 -3.08c2.36,-4.79 5.65,-8.46 9.87,-11.01 4.22,-2.55 9,-3.82 14.32,-3.82 6.39,0 11.94,2.05 16.66,6.16 4.64,4.11 6.96,9.7 6.96,16.77 0,4.57 -1.27,9 -3.82,13.29 -2.55,4.3 -6.22,8.84 -11.01,13.63l-24.76 25.45 41.42 0 0 5.82 -50.09 0zm85.01 -47.35c7.45,0 13.73,2.21 18.83,6.62 5.17,4.33 7.76,10.23 7.76,17.69 0,7.38 -2.59,13.31 -7.76,17.8 -5.17,4.34 -11.45,6.5 -18.83,6.5 -2.97,0 -5.78,-0.36 -8.44,-1.08 -2.66,-0.72 -5.08,-1.77 -7.25,-3.14 -2.17,-1.37 -4.07,-3.06 -5.7,-5.08 -1.64,-2.02 -2.91,-4.28 -3.82,-6.79l5.13 -2.97c1.29,4.34 3.71,7.63 7.24,9.87 3.54,2.24 7.82,3.37 12.84,3.37 6.01,0 10.92,-1.67 14.72,-5.02 3.88,-3.27 5.82,-7.76 5.82,-13.46 0,-5.63 -1.94,-10.12 -5.82,-13.46 -3.8,-3.35 -8.71,-5.02 -14.72,-5.02l-21.34 0 2.74 -38.34 42.22 0 0 5.71 -36.86 0 -1.83 26.81 15.06 0z"></path> <path class="fil0" d="M-0 1505.22l0 -5.48 29.32 -30.12c8.6,-8.98 12.89,-16.51 12.89,-22.59 0,-2.66 -0.44,-5.04 -1.31,-7.13 -0.88,-2.09 -2.11,-3.88 -3.71,-5.36 -1.6,-1.48 -3.46,-2.62 -5.59,-3.42 -2.13,-0.8 -4.45,-1.2 -6.96,-1.2 -8.98,0 -15.33,4.03 -19.06,12.1l-5.13 -3.08c2.36,-4.79 5.65,-8.46 9.87,-11.01 4.22,-2.55 9,-3.82 14.32,-3.82 6.39,0 11.94,2.05 16.66,6.16 4.64,4.11 6.96,9.7 6.96,16.77 0,4.57 -1.27,9 -3.82,13.29 -2.55,4.3 -6.22,8.84 -11.01,13.63l-24.76 25.45 41.42 0 0 5.82 -50.09 0zm83.52 -51.35c7.76,0 14.19,2.47 19.28,7.42 5.02,4.94 7.53,11.26 7.53,18.94 0,7.76 -2.51,14.07 -7.53,18.94 -4.94,4.87 -11.37,7.3 -19.28,7.3 -7.91,0 -14.34,-2.43 -19.28,-7.3 -5.02,-4.87 -7.53,-11.18 -7.53,-18.94 0,-6.01 1.64,-11.33 4.91,-15.98l26.81 -38.91 6.85 0 -20.42 29.78c2.97,-0.84 5.86,-1.25 8.67,-1.25zm20.77 26.36c0,-6.09 -1.9,-11.03 -5.72,-14.83 -3.8,-3.8 -8.84,-5.71 -15.1,-5.71 -6.26,0 -11.29,1.9 -15.1,5.71 -3.75,3.73 -5.61,8.67 -5.61,14.83 0,2.97 0.49,5.71 1.48,8.21 0.99,2.51 2.39,4.68 4.18,6.5 1.79,1.83 3.96,3.23 6.52,4.22 2.55,0.99 5.4,1.48 8.52,1.48 3.12,0 5.97,-0.49 8.52,-1.48 2.57,-0.99 4.76,-2.4 6.58,-4.22 1.83,-1.83 3.25,-3.99 4.24,-6.5 0.99,-2.51 1.48,-5.25 1.48,-8.21z"></path> <path class="fil0" d="M284.37 1505.22l0 -5.48 29.32 -30.12c8.6,-8.98 12.89,-16.51 12.89,-22.59 0,-2.66 -0.44,-5.04 -1.31,-7.13 -0.88,-2.09 -2.11,-3.88 -3.71,-5.36 -1.6,-1.48 -3.46,-2.62 -5.59,-3.42 -2.13,-0.8 -4.45,-1.2 -6.96,-1.2 -8.98,0 -15.33,4.03 -19.06,12.1l-5.13 -3.08c2.36,-4.79 5.65,-8.46 9.87,-11.01 4.22,-2.55 9,-3.82 14.32,-3.82 6.39,0 11.94,2.05 16.66,6.16 4.64,4.11 6.96,9.7 6.96,16.77 0,4.57 -1.27,9 -3.82,13.29 -2.55,4.3 -6.22,8.84 -11.01,13.63l-24.76 25.45 41.42 0 0 5.82 -50.09 0zm55.57 -79.87l48.38 0 0 5.71 -31.04 74.17 -6.28 0 31.04 -74.17 -42.11 0 0 -5.71z"></path> <path class="fil0" d="M1447.04 1458.55c6.69,0.68 12.21,3.08 16.54,7.19 4.34,4.11 6.5,9.58 6.5,16.43 0,7.45 -2.55,13.39 -7.65,17.8 -5.17,4.34 -11.41,6.5 -18.71,6.5 -5.93,0 -11.18,-1.33 -15.75,-3.99 -4.56,-2.66 -7.8,-6.39 -9.7,-11.18l5.02 -2.97c1.44,3.96 3.96,7 7.53,9.13 3.57,2.13 7.87,3.19 12.89,3.19 2.97,0 5.69,-0.44 8.16,-1.31 2.47,-0.88 4.62,-2.11 6.45,-3.71 1.83,-1.6 3.23,-3.54 4.22,-5.82 0.99,-2.28 1.48,-4.83 1.48,-7.64 0,-5.63 -1.94,-10.12 -5.82,-13.46 -3.8,-3.35 -8.71,-5.02 -14.72,-5.02l0 -0.11 -0.11 0.11 -1.6 0 -2.62 -3.99 20.2 -28.64 -39.02 0 0 -5.71 45.98 0 0 5.71 -19.28 27.5zm50.09 -33.2l5.13 0 0 79.87 -6.05 0 0 -73.25 -18.48 5.82 -1.48 -5.25 20.88 -7.19z"></path> </g> <line class="fil1 str0" x1="448.13" y1="226.16" x2="1352.48" y2="226.16"></line> </g> </svg> 