<?xml version="1.0" encoding="UTF-8"?> <svg xmlns="http://www.w3.org/2000/svg" xmlns:xlink="http://www.w3.org/1999/xlink" xmlns:xodm="http://www.corel.com/coreldraw/odm/2003" xml:space="preserve" width="90.4653mm" height="31.4378mm" version="1.1" style="shape-rendering:geometricPrecision; text-rendering:geometricPrecision; image-rendering:optimizeQuality; fill-rule:evenodd; clip-rule:evenodd" viewBox="0 0 6804.16 2364.53"> <defs> <style type="text/css"> .fil0 {fill:#7A5828;fill-rule:nonzero} </style> </defs> <g id="Слой_x0020_1"> <metadata id="CorelCorpID_0Corel-Layer"></metadata> <path class="fil0" d="M1055.88 1021.61c5.89,-5.89 11.29,-5.89 16.19,0 4.91,5.89 5.4,11.78 1.47,17.67 -27.48,25.51 -54.96,50.54 -82.43,75.07 -27.48,24.53 -55.94,47.6 -85.38,69.19 -27.48,21.59 -61.82,47.59 -103.04,78.02 -41.22,30.42 -84.89,59.37 -131.01,86.86 -46.13,27.48 -91.76,51.03 -136.9,70.65 -45.14,19.63 -85.38,29.45 -120.71,29.45 7.85,43.18 11.29,88.32 10.3,135.43 -0.98,47.11 -5.4,94.7 -13.24,142.78 -7.85,48.09 -18.16,95.69 -30.92,142.79 -12.76,47.11 -26,91.27 -39.74,132.49 -15.7,47.11 -37.29,100.59 -64.77,160.45 -27.48,59.87 -60.84,107.46 -100.09,142.79 -29.45,27.48 -54.47,45.14 -75.08,52.99 -20.61,7.85 -37.79,8.34 -51.52,1.47 -13.74,-6.87 -24.53,-19.63 -32.39,-38.28 -7.85,-18.65 -12.76,-40.73 -14.72,-66.24 -5.89,-68.7 1.96,-140.34 23.55,-214.92 21.59,-74.59 50.54,-147.7 86.86,-219.34 36.31,-71.64 76.06,-140.83 119.23,-207.56 43.18,-66.73 84.4,-126.6 123.65,-179.59 -23.55,-13.73 -36.31,-26 -38.27,-36.8 -1.96,-10.79 0.98,-19.13 8.83,-25.02 7.85,-5.89 18.65,-8.83 32.39,-8.83 13.73,0 24.53,5.89 32.38,17.67 35.34,-47.11 71.15,-93.72 107.46,-139.85 36.31,-46.12 74.09,-90.77 113.35,-133.95 -15.7,9.82 -31.89,19.62 -48.57,29.44 -16.69,9.82 -34.84,18.65 -54.47,26.5 -23.55,11.78 -46.62,18.16 -69.19,19.13 -22.57,0.99 -41.22,-2.94 -55.94,-11.77 -14.72,-8.84 -23.06,-23.56 -25.02,-44.17 -1.96,-20.61 5.89,-47.59 23.55,-80.96 15.7,-25.52 34.35,-49.07 55.94,-70.66 21.59,-21.59 44.16,-40.24 67.71,-55.94 17.66,-11.78 37.29,-21.59 58.88,-29.45 21.59,-7.84 42.2,-11.28 61.83,-10.3 19.62,0.99 36.8,8.84 51.52,23.56 14.72,14.72 23.06,38.76 25.02,72.13l0 29.44c5.89,-7.84 12.27,-14.72 19.13,-20.61 6.87,-5.88 14.23,-12.76 22.08,-20.61 11.78,-11.77 23.56,-11.77 35.33,0 11.78,11.78 11.78,23.56 0,35.34 -3.93,5.88 -8.34,11.28 -13.24,16.19 -4.91,4.9 -9.33,10.3 -13.25,16.19 -54.95,56.92 -107.46,115.32 -157.51,175.18 -50.05,59.86 -98.63,121.2 -145.73,184.01l-26.5 35.33c31.41,-1.96 68.7,-12.76 111.88,-32.39 43.18,-19.62 86.85,-42.69 131.01,-69.19 44.17,-26.49 86.36,-54.46 126.6,-83.9 40.23,-29.45 73.11,-53.98 98.63,-73.6 29.44,-23.56 57.41,-47.6 83.91,-72.14 26.5,-24.53 53.48,-48.57 80.96,-72.13zm-556.43 120.71c33.36,-13.74 64.28,-31.4 92.74,-52.99 28.46,-21.59 56.43,-43.18 83.91,-64.77 1.96,-7.85 2.94,-15.7 2.94,-23.56 0,-7.85 0,-16.68 0,-26.5 -1.96,-21.59 -8.34,-35.82 -19.13,-42.69 -10.79,-6.87 -23.55,-9.32 -38.28,-7.36 -14.72,1.96 -29.93,6.87 -45.63,14.72 -15.7,7.85 -29.44,15.7 -41.22,23.55 -45.14,27.48 -81.46,63.79 -108.93,108.94 -21.59,35.33 -27.48,61.34 -17.67,78.02 9.82,16.68 40.24,14.23 91.27,-7.36zm-123.66 259.09c-9.81,-15.7 -19.62,-21.1 -29.44,-16.19 -9.82,4.9 -2.95,14.23 20.61,27.96 1.96,-1.96 3.44,-3.93 4.41,-5.89 0.99,-1.96 2.45,-3.92 4.41,-5.88zm-55.94 591.77c13.74,-39.26 26.5,-80.97 38.28,-125.12 11.77,-44.17 21.59,-89.31 29.44,-135.44 7.85,-46.12 12.76,-91.75 14.72,-136.89 1.96,-45.15 -0.98,-88.33 -8.83,-129.55 -37.29,52.99 -76.54,111.39 -117.77,175.18 -41.22,63.79 -79.48,130.03 -114.82,198.73 -35.33,68.69 -65.26,138.87 -89.8,210.51 -24.53,71.64 -36.8,140.82 -36.8,207.56 0,39.25 8.84,65.75 26.5,79.49 17.67,13.74 51.03,-1.96 100.1,-47.11 35.34,-33.36 66.74,-79.98 94.21,-139.84 27.48,-59.87 49.07,-112.37 64.77,-157.51zm1427.89 -974.5c7.85,-3.93 13.74,-2.46 17.67,4.41 3.92,6.87 2.94,12.27 -2.95,16.19 -84.4,54.96 -170.76,105 -259.08,150.15 -88.33,45.14 -176.65,90.29 -264.97,135.43 -39.25,68.7 -80.47,144.27 -123.65,226.7 -43.18,82.43 -88.32,163.89 -135.43,244.36 -47.11,80.48 -96.17,158 -147.21,232.59 -51.03,74.58 -103.05,138.37 -156.04,191.36 -51.02,51.03 -99.6,83.42 -145.73,97.16 -46.12,13.74 -86.85,13.74 -122.18,0 -35.34,-13.74 -63.8,-38.76 -85.38,-75.08 -21.59,-36.31 -33.86,-78.02 -36.8,-125.12 -2.94,-47.11 4.9,-97.65 23.55,-151.62 18.65,-53.97 49.57,-106.48 92.75,-157.51 43.18,-49.07 96.17,-96.17 158.98,-141.32 62.81,-45.14 129.55,-87.83 200.2,-128.07 70.66,-40.23 141.81,-78.02 213.45,-113.35 71.64,-35.33 138.87,-67.71 201.68,-97.15 21.59,-37.3 44.17,-74.1 67.71,-110.4 23.56,-36.31 46.13,-73.11 67.71,-110.4 -31.4,31.4 -65.75,59.86 -103.04,85.38 -64.77,45.14 -112.86,67.22 -144.27,66.24 -31.4,-0.99 -50.54,-15.22 -57.41,-42.69 -6.87,-27.48 -3.93,-64.77 8.84,-111.88 12.76,-47.11 30.91,-94.21 54.46,-141.32 3.93,-7.84 9.33,-12.76 16.19,-14.72 6.87,-1.96 13.25,-1.47 19.13,1.47 5.89,2.94 10.3,7.85 13.25,14.72 2.94,6.87 2.45,14.23 -1.47,22.08 -15.7,31.4 -30.91,65.75 -45.63,103.04 -14.72,37.29 -22.57,68.7 -23.56,94.21 -0.98,25.52 9.33,39.75 30.92,42.69 21.59,2.94 60.84,-15.21 117.76,-54.47 29.44,-21.59 57.9,-45.14 85.38,-70.65 27.48,-25.52 53.97,-52.01 79.49,-79.49 11.77,-17.67 22.57,-36.31 32.38,-55.94 7.85,-15.7 19.63,-19.63 35.34,-11.78 15.7,7.85 19.62,19.63 11.77,35.33 -27.48,51.03 -56.91,101.09 -88.32,150.15 -31.4,49.07 -61.82,98.14 -91.26,147.21 82.43,-41.22 164.87,-83.42 247.3,-126.6 82.44,-43.18 161.93,-90.29 238.48,-141.32zm-1095.21 1174.7c45.14,-45.14 90.29,-102.55 135.43,-172.23 45.14,-69.68 89.31,-143.77 132.49,-222.28 43.18,-78.51 84.4,-156.04 123.65,-232.59 39.25,-76.54 75.57,-143.28 108.93,-200.2 -58.88,29.45 -122.18,60.36 -189.89,92.75 -67.71,32.38 -134.94,67.71 -201.68,105.98 -66.73,38.28 -130.03,79 -189.9,122.18 -59.86,43.18 -110.4,89.31 -151.62,138.38 -39.25,45.14 -67.22,92.25 -83.91,141.32 -16.68,49.07 -24.53,95.68 -23.55,139.84 0.98,44.17 10.3,82.43 27.97,114.82 17.66,32.39 41.71,54.96 72.13,67.71 30.42,12.76 65.75,12.27 105.99,-1.47 40.23,-13.73 84.89,-45.14 133.95,-94.21zm1775.3 -1168.81c7.85,-5.89 13.74,-5.4 17.67,1.47 3.93,6.87 2.94,12.27 -2.95,16.19 -33.36,21.59 -66.73,42.2 -100.1,61.82 -33.36,19.63 -66.73,38.28 -100.09,55.94 -45.14,21.59 -89.31,42.69 -132.49,63.3 -43.18,20.61 -87.34,41.71 -132.49,63.3 5.89,27.48 2.45,62.31 -10.3,104.52 -12.76,42.19 -29.44,85.37 -50.05,129.54 -20.61,44.16 -42.69,85.87 -66.25,125.12 -23.55,39.25 -42.19,69.68 -55.94,91.27 -51.03,78.51 -107.95,157.01 -170.76,235.53 -62.81,78.51 -130.52,148.18 -203.15,209.03 -21.59,17.66 -45.14,36.31 -70.65,55.94 -25.52,19.63 -52.51,35.82 -80.97,48.58 -28.46,12.76 -57.9,21.1 -88.32,25.02 -30.42,3.93 -60.35,-0.99 -89.8,-14.72 -43.18,-17.67 -72.13,-44.17 -86.85,-79.49 -14.72,-35.33 -20.61,-73.6 -17.67,-114.82 2.95,-41.22 12.76,-82.43 29.45,-123.66 16.68,-41.22 34.84,-76.54 54.46,-105.98 60.85,-92.25 141.81,-174.19 242.89,-245.83 101.08,-71.64 199.71,-132.98 295.88,-184.01 52.99,-27.48 105.99,-54.47 158.98,-80.97 52.99,-26.5 106.97,-52.5 161.93,-78.02 1.96,-39.25 -12.27,-63.79 -42.69,-73.6 -30.42,-9.82 -61.34,-13.74 -92.74,-11.78 -9.82,0 -16.19,-4.9 -19.13,-14.72 -2.95,-9.82 4.41,-22.57 22.07,-38.28 27.48,-27.48 53.98,-51.52 79.49,-72.13 25.52,-20.61 50.05,-44.65 73.6,-72.13 7.85,-9.82 16.19,-21.59 25.02,-35.33 8.84,-13.74 14.23,-26.5 16.19,-38.28 0,-11.78 -3.93,-18.16 -11.77,-19.13 -7.85,-0.99 -17.67,0.49 -29.45,4.41 -11.78,3.93 -22.57,8.83 -32.39,14.72 -9.81,5.89 -15.7,9.82 -17.66,11.78 -21.59,13.74 -45.14,30.42 -70.66,50.05 -25.51,19.63 -49.07,37.29 -70.65,52.99 -5.89,5.89 -10.8,4.91 -14.72,-2.94 -3.93,-5.89 -2.95,-11.78 2.94,-17.67 21.59,-15.7 44.65,-32.88 69.19,-51.52 24.53,-18.65 47.59,-35.82 69.19,-51.52 33.36,-21.59 60.84,-32.88 82.43,-33.86 21.59,-0.98 36.8,4.91 45.63,17.67 8.83,12.76 10.79,30.42 5.89,52.99 -4.9,22.57 -16.19,46.62 -33.86,72.13 -21.59,27.48 -46.12,53.97 -73.6,79.49 -27.48,25.51 -54.96,48.08 -82.44,67.71 33.37,-1.96 62.81,3.44 88.32,16.19 25.52,12.76 43.18,36.8 52.99,72.13 43.18,-21.59 86.36,-42.2 129.55,-61.82 43.18,-19.63 86.36,-40.24 129.54,-61.82 31.4,-15.7 65.26,-33.37 101.57,-52.99 36.31,-19.63 68.21,-40.24 95.69,-61.82zm-677.15 683.03c15.7,-23.55 33.37,-52.01 52.99,-85.38 19.63,-33.36 38.28,-68.2 55.94,-104.52 17.66,-36.31 32.88,-72.62 45.63,-108.93 12.76,-36.31 20.12,-69.19 22.08,-98.63 -51.03,25.51 -102.06,50.54 -153.1,75.08 -51.03,24.53 -102.06,50.54 -153.1,78.02 -47.11,25.51 -95.69,53.48 -145.73,83.91 -50.05,30.42 -98.63,63.3 -145.73,98.63 -47.11,35.33 -91.27,73.11 -132.49,113.35 -41.22,40.24 -76.54,82.93 -105.99,128.07 -17.66,25.51 -34.34,56.92 -50.05,94.21 -15.7,37.29 -25.52,75.08 -29.44,113.35 -3.93,38.28 0.49,73.11 13.24,104.52 12.76,31.41 38.76,53.98 78.02,67.71 23.56,7.85 48.58,8.34 75.08,1.47 26.5,-6.87 52.99,-17.17 79.49,-30.91 26.5,-13.74 51.02,-29.44 73.6,-47.11 22.57,-17.67 41.71,-33.36 57.41,-47.11 68.69,-58.88 133.95,-127.09 195.78,-204.62 61.82,-77.53 117.27,-154.56 166.34,-231.11zm1943.12 -683.03c7.85,-7.85 13.74,-7.85 17.67,0 3.93,7.84 3.93,13.73 0,17.66 -31.4,27.48 -65.26,54.47 -101.57,80.97 -36.31,26.5 -71.14,51.52 -104.52,75.07 -37.29,27.48 -77.03,55.94 -119.23,85.38 -42.2,29.44 -83.91,53.97 -125.12,73.6 -29.44,15.7 -52.99,20.61 -70.66,14.72 -17.66,-5.89 -30.42,-17.17 -38.27,-33.85 -7.85,-16.68 -11.29,-36.8 -10.3,-60.36 0.98,-23.55 4.41,-47.11 10.3,-70.65 11.78,-51.03 31.4,-97.16 58.88,-138.38 -27.48,19.63 -54.96,38.28 -82.44,55.94 -27.48,17.67 -55.94,34.35 -85.37,50.05 -9.82,3.93 -23.07,8.83 -39.75,14.72 -16.68,5.89 -31.89,6.87 -45.63,2.95 -15.7,-3.93 -25.52,-13.25 -29.45,-27.97 -3.92,-14.72 -3.92,-28.95 0,-42.69 5.89,-15.7 13.74,-31.4 23.56,-47.11 9.82,-15.7 19.63,-31.4 29.44,-47.11 7.85,-9.82 15.7,-20.12 23.56,-30.91 7.85,-10.79 16.68,-21.1 26.5,-30.91 11.78,-13.74 24.05,-14.72 36.8,-2.95 12.76,11.78 14.23,24.53 4.41,38.28 -19.63,19.63 -36.31,39.25 -50.05,58.88 -9.82,11.78 -20.12,26 -30.92,42.69 -10.79,16.68 -18.65,30.91 -23.55,42.68 -4.9,11.78 -2.95,19.14 5.89,22.08 8.83,2.95 27.96,-2.45 57.41,-16.19 39.25,-17.66 77.53,-39.25 114.82,-64.77 37.29,-25.52 73.6,-51.03 108.93,-76.55 3.93,-5.89 8.83,-11.77 14.72,-17.66 5.89,-5.89 11.78,-11.78 17.67,-17.67 11.78,-13.74 24.05,-14.23 36.8,-1.47 12.76,12.76 12.27,26.01 -1.47,39.75 -13.74,15.7 -26.99,31.4 -39.74,47.11 -12.76,15.7 -24.05,32.39 -33.86,50.05 -9.82,17.67 -18.65,35.33 -26.5,52.99 -7.85,17.67 -15.7,37.29 -23.55,58.88 -3.93,15.7 -8.34,32.39 -13.25,50.05 -4.9,17.67 -6.38,33.37 -4.41,47.11 1.96,13.74 7.85,23.07 17.67,27.97 9.82,4.9 26.5,1.47 50.05,-10.3 41.22,-21.59 82.43,-46.13 123.66,-73.6 41.22,-27.48 80.47,-54.96 117.76,-82.43 33.36,-23.56 67.71,-48.58 103.04,-75.08 35.34,-26.5 68.7,-53.48 100.1,-80.96zm680.09 0c7.85,-5.89 13.74,-5.4 17.67,1.47 3.93,6.87 2.94,12.27 -2.95,16.19 -33.36,21.59 -66.73,42.2 -100.1,61.82 -33.36,19.63 -66.73,38.28 -100.09,55.94 -45.14,21.59 -89.31,42.69 -132.49,63.3 -43.18,20.61 -87.34,41.71 -132.49,63.3 5.89,27.48 2.45,62.31 -10.3,104.52 -12.76,42.19 -29.44,85.37 -50.05,129.54 -20.61,44.16 -42.69,85.87 -66.25,125.12 -23.55,39.25 -42.19,69.68 -55.94,91.27 -51.03,78.51 -107.95,157.01 -170.76,235.53 -62.81,78.51 -130.52,148.18 -203.15,209.03 -21.59,17.66 -45.14,36.31 -70.65,55.94 -25.52,19.63 -52.51,35.82 -80.97,48.58 -28.46,12.76 -57.9,21.1 -88.32,25.02 -30.42,3.93 -60.35,-0.99 -89.8,-14.72 -43.18,-17.67 -72.13,-44.17 -86.85,-79.49 -14.72,-35.33 -20.61,-73.6 -17.67,-114.82 2.95,-41.22 12.76,-82.43 29.45,-123.66 16.68,-41.22 34.84,-76.54 54.46,-105.98 60.85,-92.25 141.81,-174.19 242.89,-245.83 101.08,-71.64 199.71,-132.98 295.88,-184.01 52.99,-27.48 105.99,-54.47 158.98,-80.97 52.99,-26.5 106.97,-52.5 161.93,-78.02 1.96,-39.25 -12.27,-63.79 -42.69,-73.6 -30.42,-9.82 -61.34,-13.74 -92.74,-11.78 -9.82,0 -16.19,-4.9 -19.13,-14.72 -2.95,-9.82 4.41,-22.57 22.07,-38.28 27.48,-27.48 53.98,-51.52 79.49,-72.13 25.52,-20.61 50.05,-44.65 73.6,-72.13 7.85,-9.82 16.19,-21.59 25.02,-35.33 8.84,-13.74 14.23,-26.5 16.19,-38.28 0,-11.78 -3.93,-18.16 -11.77,-19.13 -7.85,-0.99 -17.67,0.49 -29.45,4.41 -11.78,3.93 -22.57,8.83 -32.39,14.72 -9.81,5.89 -15.7,9.82 -17.66,11.78 -21.59,13.74 -45.14,30.42 -70.66,50.05 -25.51,19.63 -49.07,37.29 -70.65,52.99 -5.89,5.89 -10.8,4.91 -14.72,-2.94 -3.93,-5.89 -2.95,-11.78 2.94,-17.67 21.59,-15.7 44.65,-32.88 69.19,-51.52 24.53,-18.65 47.59,-35.82 69.19,-51.52 33.36,-21.59 60.84,-32.88 82.43,-33.86 21.59,-0.98 36.8,4.91 45.63,17.67 8.83,12.76 10.79,30.42 5.89,52.99 -4.9,22.57 -16.19,46.62 -33.86,72.13 -21.59,27.48 -46.12,53.97 -73.6,79.49 -27.48,25.51 -54.96,48.08 -82.44,67.71 33.37,-1.96 62.81,3.44 88.32,16.19 25.52,12.76 43.18,36.8 52.99,72.13 43.18,-21.59 86.36,-42.2 129.55,-61.82 43.18,-19.63 86.36,-40.24 129.54,-61.82 31.4,-15.7 65.26,-33.37 101.57,-52.99 36.31,-19.63 68.21,-40.24 95.69,-61.82zm-677.15 683.03c15.7,-23.55 33.37,-52.01 52.99,-85.38 19.63,-33.36 38.28,-68.2 55.94,-104.52 17.66,-36.31 32.88,-72.62 45.63,-108.93 12.76,-36.31 20.12,-69.19 22.08,-98.63 -51.03,25.51 -102.06,50.54 -153.1,75.08 -51.03,24.53 -102.06,50.54 -153.1,78.02 -47.11,25.51 -95.69,53.48 -145.73,83.91 -50.05,30.42 -98.63,63.3 -145.73,98.63 -47.11,35.33 -91.27,73.11 -132.49,113.35 -41.22,40.24 -76.54,82.93 -105.99,128.07 -17.66,25.51 -34.34,56.92 -50.05,94.21 -15.7,37.29 -25.52,75.08 -29.44,113.35 -3.93,38.28 0.49,73.11 13.24,104.52 12.76,31.41 38.76,53.98 78.02,67.71 23.56,7.85 48.58,8.34 75.08,1.47 26.5,-6.87 52.99,-17.17 79.49,-30.91 26.5,-13.74 51.02,-29.44 73.6,-47.11 22.57,-17.67 41.71,-33.36 57.41,-47.11 68.69,-58.88 133.95,-127.09 195.78,-204.62 61.82,-77.53 117.27,-154.56 166.34,-231.11zm1410.23 -680.09c5.89,-5.89 11.29,-5.4 16.19,1.47 4.9,6.87 5.4,12.27 1.47,16.19 -33.37,33.36 -67.71,66.24 -103.05,98.63 -35.33,32.39 -71.64,63.3 -108.93,92.74 -17.66,15.7 -39.25,33.36 -64.77,52.99 -25.52,19.63 -52.51,38.28 -80.97,55.94 -28.46,17.67 -57.41,32.88 -86.85,45.64 -29.45,12.76 -55.94,19.13 -79.49,19.13 -41.22,0 -68.7,-13.25 -82.44,-39.75 -13.73,-26.49 -19.13,-57.41 -16.19,-92.74 2.94,-35.33 10.79,-71.64 23.55,-108.93 12.76,-37.29 25.02,-66.74 36.8,-88.32 -11.78,11.78 -24.05,23.06 -36.8,33.85 -12.76,10.8 -26.01,21.1 -39.74,30.91 -15.7,9.82 -37.3,18.16 -64.77,25.03 -27.48,6.87 -49.07,2.45 -64.77,-13.25 -15.7,-11.78 -23.06,-28.95 -22.07,-51.52 0.98,-22.57 4.41,-41.71 10.3,-57.41 7.84,-19.63 19.62,-41.71 35.33,-66.24 15.7,-24.53 34.35,-45.64 55.94,-63.3 21.59,-17.67 45.14,-30.91 70.66,-39.75 25.51,-8.83 50.05,-9.32 73.6,-1.47 27.48,9.81 41.22,28.46 41.22,55.94 0,27.48 -3.93,52.01 -11.78,73.6 5.89,-7.85 11.78,-15.7 17.67,-23.56 5.89,-7.84 11.77,-15.7 17.66,-23.55 9.82,-13.74 21.59,-14.72 35.34,-2.95 13.73,11.78 15.7,24.53 5.88,38.28 -27.48,33.36 -53.97,70.66 -79.48,111.88 -7.85,13.74 -17.67,36.31 -29.45,67.71 -11.78,31.4 -20.61,62.81 -26.5,94.21 -5.89,31.4 -5.89,58.88 0,82.43 5.89,23.56 22.57,35.33 50.05,35.33 21.59,0 46.12,-6.38 73.6,-19.13 27.48,-12.76 55.45,-27.97 83.91,-45.63 28.46,-17.67 54.96,-35.82 79.48,-54.47 24.53,-18.65 44.65,-34.84 60.36,-48.58 39.25,-31.4 75.08,-62.8 107.46,-94.21 32.39,-31.4 66.25,-63.79 101.57,-97.15zm-635.93 97.15c19.63,-11.77 37.3,-25.51 52.99,-41.22 15.7,-15.7 31.41,-31.4 47.11,-47.11 3.93,-7.85 8.34,-18.16 13.25,-30.91 4.9,-12.76 8.34,-26.5 10.3,-41.22 1.96,-14.72 1.47,-27.97 -1.47,-39.74 -2.94,-11.78 -10.3,-19.63 -22.08,-23.56 -11.77,-3.93 -27.48,0.49 -47.11,13.25 -19.62,12.76 -39.25,29.44 -58.88,50.05 -19.63,20.61 -37.3,42.2 -52.99,64.77 -15.7,22.57 -24.53,41.71 -26.5,57.41 -3.93,17.66 -3.93,30.91 0,39.74 3.93,8.83 10.3,14.23 19.13,16.19 8.83,1.96 19.13,0.99 30.91,-2.94 11.78,-3.93 23.56,-8.84 35.33,-14.73zm2314.08 -842.02c5.89,-3.93 11.28,-2.94 16.19,2.95 4.9,5.88 3.43,10.79 -4.42,14.72 -82.43,58.88 -176.16,103.53 -281.16,133.95 -105,30.42 -212.96,49.07 -323.85,55.94 -110.89,6.87 -222.28,4.9 -334.16,-5.89 -111.88,-10.8 -215.91,-26.99 -312.08,-48.58 -58.88,78.51 -119.23,163.4 -181.06,254.66 -61.82,91.27 -121.69,183.52 -179.59,276.75 -57.9,93.23 -111.88,185.97 -161.93,278.22 -50.05,92.25 -90.77,178.62 -122.18,259.09 -31.4,80.47 -52.01,153.58 -61.82,219.34 -9.82,65.75 -4.9,119.23 14.72,160.45 3.93,5.89 2.46,10.8 -4.41,14.73 -6.87,3.93 -12.27,1.96 -16.19,-5.89 -35.33,-70.66 -38.27,-164.87 -8.83,-282.63 29.44,-117.77 78.51,-244.86 147.21,-381.27 68.69,-136.41 149.66,-275.27 242.88,-416.59 93.23,-141.32 184.01,-271.84 272.34,-391.57 -107.95,-23.56 -215.91,-49.56 -323.86,-78.02 -107.95,-28.46 -216.88,-47.6 -326.79,-57.41 -117.77,-9.82 -227.19,0.49 -328.27,30.91 -101.08,30.42 -188.91,93.72 -263.49,189.89 -3.93,5.89 -8.84,6.39 -14.73,1.47 -5.88,-4.9 -6.87,-10.3 -2.94,-16.19 74.58,-98.14 164.87,-162.9 270.86,-194.31 105.99,-31.4 218.85,-43.18 338.58,-35.33 113.83,9.82 225.71,28.95 335.63,57.41 109.91,28.46 219.82,55.45 329.74,80.97 68.69,-88.32 131.5,-166.84 188.42,-235.53 56.92,-68.7 103.04,-121.69 138.37,-158.98 9.82,-7.85 19.14,-7.85 27.97,0 8.83,7.85 9.33,16.68 1.47,26.5 -29.45,35.33 -70.66,85.87 -123.66,151.62 -52.99,65.75 -110.89,142.79 -173.7,231.11 94.21,19.62 195.79,34.84 304.72,45.63 108.93,10.79 217.87,12.27 326.8,4.41 108.93,-7.85 214.92,-26 317.96,-54.46 103.05,-28.46 194.8,-71.15 275.28,-128.07zm-627.1 741.92c7.85,-7.85 13.74,-7.85 17.67,0 3.93,7.84 3.93,13.73 0,17.66 -31.4,27.48 -65.26,54.47 -101.57,80.97 -36.31,26.5 -71.14,51.52 -104.52,75.07 -37.29,27.48 -77.03,55.94 -119.23,85.38 -42.2,29.44 -83.91,53.97 -125.12,73.6 -29.44,15.7 -52.99,20.61 -70.66,14.72 -17.66,-5.89 -30.42,-17.17 -38.27,-33.85 -7.85,-16.68 -11.29,-36.8 -10.3,-60.36 0.98,-23.55 4.41,-47.11 10.3,-70.65 11.78,-51.03 31.4,-97.16 58.88,-138.38 -27.48,19.63 -54.96,38.28 -82.44,55.94 -27.48,17.67 -55.94,34.35 -85.37,50.05 -9.82,3.93 -23.07,8.83 -39.75,14.72 -16.68,5.89 -31.89,6.87 -45.63,2.95 -15.7,-3.93 -25.52,-13.25 -29.45,-27.97 -3.92,-14.72 -3.92,-28.95 0,-42.69 5.89,-15.7 13.74,-31.4 23.56,-47.11 9.82,-15.7 19.63,-31.4 29.44,-47.11 7.85,-9.82 15.7,-20.12 23.56,-30.91 7.85,-10.79 16.68,-21.1 26.5,-30.91 11.78,-13.74 24.05,-14.72 36.8,-2.95 12.76,11.78 14.23,24.53 4.41,38.28 -19.63,19.63 -36.31,39.25 -50.05,58.88 -9.82,11.78 -20.12,26 -30.92,42.69 -10.79,16.68 -18.65,30.91 -23.55,42.68 -4.9,11.78 -2.95,19.14 5.89,22.08 8.83,2.95 27.96,-2.45 57.41,-16.19 39.25,-17.66 77.53,-39.25 114.82,-64.77 37.29,-25.52 73.6,-51.03 108.93,-76.55 3.93,-5.89 8.83,-11.77 14.72,-17.66 5.89,-5.89 11.78,-11.78 17.67,-17.67 11.78,-13.74 24.05,-14.23 36.8,-1.47 12.76,12.76 12.27,26.01 -1.47,39.75 -13.74,15.7 -26.99,31.4 -39.74,47.11 -12.76,15.7 -24.05,32.39 -33.86,50.05 -9.82,17.67 -18.65,35.33 -26.5,52.99 -7.85,17.67 -15.7,37.29 -23.55,58.88 -3.93,15.7 -8.34,32.39 -13.25,50.05 -4.9,17.67 -6.38,33.37 -4.41,47.11 1.96,13.74 7.85,23.07 17.67,27.97 9.82,4.9 26.5,1.47 50.05,-10.3 41.22,-21.59 82.43,-46.13 123.66,-73.6 41.22,-27.48 80.47,-54.96 117.76,-82.43 33.36,-23.56 67.71,-48.58 103.04,-75.08 35.34,-26.5 68.7,-53.48 100.1,-80.96z"></path> </g> </svg> 