<?xml version="1.0" encoding="UTF-8"?> <svg xmlns="http://www.w3.org/2000/svg" xmlns:xlink="http://www.w3.org/1999/xlink" xmlns:xodm="http://www.corel.com/coreldraw/odm/2003" xml:space="preserve" width="175.391mm" height="44.9119mm" version="1.1" style="shape-rendering:geometricPrecision; text-rendering:geometricPrecision; image-rendering:optimizeQuality; fill-rule:evenodd; clip-rule:evenodd" viewBox="0 0 5043.09 1291.37"> <defs> <style type="text/css"> .str0 {stroke:#7A5828;stroke-width:2.19;stroke-miterlimit:22.9256} .fil0 {fill:#7A5828;fill-rule:nonzero} </style> </defs> <g id="Слой_x0020_1"> <metadata id="CorelCorpID_0Corel-Layer"></metadata> <path class="fil0" d="M1777.82 609.87c-15.13,13.24 -27.27,19.86 -36.41,19.86 -5.99,0 -13.95,-2.44 -23.88,-7.33 -9.93,-4.89 -17.73,-7.33 -23.41,-7.33 -9.46,0 -19.07,4.89 -28.85,14.66 -1.89,0 -2.84,-0.47 -2.84,-1.42 3.15,-4.1 8.83,-8.98 17.02,-14.66 10.72,-7.57 19.39,-11.35 26.01,-11.35 5.36,0 12.77,2.68 22.23,8.04 9.46,5.36 17.02,8.04 22.7,8.04 8.2,0 16.87,-3.78 26.01,-11.35 0.94,0 1.42,0.95 1.42,2.84z"></path> <path class="fil0 str0" d="M2544.5 758.28c0,36.44 -13.03,68.95 -39.21,97.44 -23.33,25.38 -46.15,38.03 -68.32,38.03 -13.07,0 -19.41,-7.92 -19.01,-23.77 0.4,-15.45 7.08,-37.69 30.9,-53.47l95.06 -62.98 0.59 4.76zm-4.75 1.78c-26.54,13.47 -49.91,28.52 -70.11,45.15 -30.1,23.76 -45.35,45.35 -45.75,64.76 -0.4,12.67 3.96,19.01 13.07,19.01 14.26,0 32.87,-12.28 55.85,-36.84 31.29,-33.67 46.93,-64.36 46.93,-92.09z"></path> <g id="_1847990365296"> <path class="fil0" d="M1829.63 12.34c69.26,-19.27 105.56,-15.92 108.91,9.77 4.19,22.34 -18.71,48.59 -68.7,79.31 -18.15,9.77 -38.26,19.27 -60.6,28.48 -56.69,22.34 -120.92,37.42 -192.41,44.96 -62.55,7.82 -99.7,13.68 -111.15,18.15 -23.46,8.66 -45.8,20.39 -67.02,35.19 -211.12,138.51 -346.29,296.02 -405.21,472.79 -32.11,92.72 -26.53,160.86 16.48,204.7 27.93,27.65 62.56,43.29 103.89,46.64 46.92,5.31 106.68,-1.12 179.29,-19.83 80.15,-20.11 165.32,-48.03 255.25,-84.06 29.88,-10.89 63.95,-27.09 102.21,-48.31 2.23,-1.12 4.47,-1.4 6.42,-0.84 2.23,0.56 2.79,1.95 1.67,3.91 -1.12,3.35 -4.75,6.7 -11.45,10.06 -129.86,63.67 -255.52,108.91 -377,135.72 -57.81,15.92 -111.7,20.1 -161.13,13.12 -111.98,-14.8 -167.84,-77.63 -167.84,-189.06 2.23,-106.4 51.1,-213.91 146.89,-322.83 95.79,-108.63 203.86,-197.16 324.22,-265.3 -31,5.31 -117.01,6.42 -258.32,3.07 -27.93,-1.12 -67.86,-3.91 -119.52,-8.94 -51.94,-4.75 -88.25,-7.82 -109.75,-8.94 -89.37,-6.7 -177.61,-10.05 -265.02,-10.61 -94.95,-2.23 -181.8,4.47 -260.83,20.39 -148.57,31 -266.42,94.11 -353.55,189.06 -50.27,50.27 -75.68,94.39 -76.24,132.37 0,10.06 -1.39,13.13 -4.75,10.06 -8.66,-7.82 -4.47,-28.76 12.57,-63.39 17.31,-34.63 39.37,-67.02 66.74,-97.18 33.23,-36.03 66.75,-64.51 100.25,-85.46 33.51,-20.94 78.75,-41.61 135.44,-61.72 68.14,-24.58 141.03,-40.21 218.38,-47.47 100.26,-12.57 281.22,-8.38 542.33,12.29 81.82,8.66 173.14,11.45 273.4,8.1l125.95 -6.42c169.79,-88.53 286.52,-141.03 350.19,-157.78zm-15.64 100.53c52.5,-22.34 88.25,-46.36 107.24,-72.05 7.82,-12.57 7.26,-20.94 -1.67,-25.41 -24.58,-10.89 -75.68,0.56 -153.32,34.07 -77.63,33.51 -156.67,74.28 -236.81,122.32 124.83,-11.45 219.78,-31.28 284.57,-58.92zm-790.31 180.68c-88.25,109.75 -150.52,184.59 -186.55,225.08 -64.79,71.49 -132.93,135.44 -204.42,192.13 -89.36,70.37 -173.14,126.5 -251.34,167.84 -95.79,49.15 -172.86,73.72 -230.67,73.72 -20.11,0 -37.14,-3.91 -51.39,-12.01 -14.24,-7.82 -22.34,-16.76 -24.58,-26.53 -2.23,-14.8 0.84,-25.97 8.94,-33.51 7.54,-10.89 12.57,-15.92 14.8,-14.8 2.23,1.12 -0.56,7.26 -8.1,18.15 -13.68,17.87 -9.49,33.51 12.85,46.64 23.46,15.64 60.88,17.04 112.26,3.91 116.17,-32.11 251.89,-113.66 407.44,-244.63 84.06,-68.14 161.69,-142.7 233.18,-223.41 12.57,-14.52 65.35,-80.43 158.62,-197.16 9.77,-12.57 16.48,-19.55 20.11,-21.23 3.63,-1.67 7.54,-0.28 11.73,4.19 3.91,5.31 -3.63,19.27 -22.9,41.61zm-146.33 364.16c-15.92,32.11 -25.97,59.48 -30.44,81.82 -1.96,13.68 -1.12,25.41 2.51,35.19 0,1.12 0.84,3.35 2.51,6.42 1.68,3.35 3.35,6.7 5.03,10.33 1.68,3.63 2.79,5.31 3.91,5.31 -14.52,9.77 -25.97,9.22 -34.35,-1.96 -8.1,-11.17 -12.29,-24.85 -12.29,-40.49 0,-22.34 6.14,-48.03 18.15,-77.08 15.64,-37.98 44.96,-88.25 87.41,-150.52 49.15,-72.33 90.76,-123.99 125.39,-154.43 20.11,-15.92 32.95,-23.18 38.26,-21.5 7.82,-1.96 11.73,-1.4 12.01,1.68 0.28,3.35 -8.66,12.84 -26.81,28.76 -59.2,60.6 -123.15,152.76 -191.29,276.47zm537.58 -68.7c4.47,-3.35 6.42,-3.35 6.42,0 0,3.35 -1.12,5.86 -3.07,8.1 -12.57,9.78 -21.78,16.48 -27.93,19.55 -24.58,13.68 -51.11,15.08 -79.31,4.19 -6.7,12.57 -13.13,23.18 -19.55,31.84 -10.05,13.68 -24.58,29.32 -44.4,46.64 -23.46,15.92 -39.38,23.74 -48.31,23.74 -14.52,2.23 -23.46,-3.35 -26.81,-17.04 -2.23,-15.92 10.33,-39.65 37.98,-71.21 27.65,-31.56 47.75,-47.47 60.88,-47.47 4.47,0 7.82,2.79 9.77,8.1 -0.84,-1.96 -1.39,-5.87 -1.39,-11.45 0,-7.54 2.23,-14.24 7.26,-20.39 7.54,-10.89 15.92,-13.68 24.58,-8.1 10.89,7.54 11.45,26.53 1.68,56.41 17.87,7.54 36.02,9.22 53.9,4.75 13.13,-1.4 29.32,-10.89 48.31,-27.65zm-110.59 19.55c1.12,-1.12 1.96,-2.79 2.51,-4.75 0.56,-2.23 1.12,-4.19 1.68,-5.86 0.56,-1.68 1.12,-3.91 1.67,-6.42 0.56,-2.79 0.84,-5.58 0.84,-8.66 0,-3.07 0,-5.86 0,-8.66 0,-2.79 -0.56,-5.03 -1.68,-7.26 -2.23,-8.66 -6.42,-9.22 -13.13,-1.68 -3.35,2.23 -5.31,5.59 -6.42,9.78 -2.23,10.89 -1.12,19.27 3.07,25.41 3.35,3.35 6.14,5.31 8.38,6.42l3.07 1.67zm-67.02 87.69c24.58,-19.27 45.8,-45.52 63.95,-79.59l-8.38 -4.75c-4.19,-2.23 -7.82,-5.58 -10.61,-9.77l-16.2 11.45c-12.57,8.66 -25.41,20.39 -38.54,35.19 -36.03,44.68 -45.52,67.02 -28.76,67.02 1.12,-1.12 2.79,-1.68 5.03,-1.68 8.65,-1.12 19.83,-6.98 33.51,-17.87zm368.35 -214.47c-37.14,14.8 -62.27,10.61 -75.4,-12.29 -12.57,-18.99 -9.77,-38.82 8.1,-59.76 5.58,-7.54 11.17,-8.94 17.31,-3.91 1.12,1.12 1.12,3.35 0,7.26 -1.12,1.12 -3.35,4.75 -6.98,10.61 -3.63,6.14 -5.86,11.17 -6.98,15.64 -5.58,27.65 3.07,41.89 25.41,42.45 5.31,0 24.02,-6.14 55.57,-18.71 2.23,-1.12 9.77,-5.58 22.9,-13.12 2.23,-1.12 4.47,-0.56 6.98,1.67 2.51,2.23 3.07,4.19 1.96,6.42 0,1.12 -0.84,1.96 -2.79,2.51 -1.96,0.56 -3.63,1.4 -5.31,2.51 -1.67,1.12 -3.07,2.23 -4.19,3.07 -3.07,2.79 -15.36,8.1 -36.59,15.64zm-166.16 294.62c-17.03,5.31 -29.32,3.35 -36.86,-6.7 -14.8,-16.76 -7.26,-44.96 22.06,-84.06l17.31 -18.15c-54.73,31 -87.69,40.77 -99.14,28.76 -6.42,-6.7 -5.58,-18.43 3.35,-35.19 4.19,-7.82 23.18,-28.49 56.41,-62.28 1.12,-1.12 3.07,-3.35 6.14,-6.42 3.07,-3.35 5.31,-6.14 6.98,-8.65 1.67,-2.52 3.91,-4.47 7.26,-6.14 3.35,-1.68 6.14,-1.96 8.1,-0.84 10.89,5.59 10.61,15.64 -1.39,30.16 -4.47,4.47 -14.24,13.68 -29.04,27.93 -15.08,14.24 -27.37,26.53 -36.86,37.14 -9.49,10.61 -13.4,17.59 -11.17,20.95 4.47,7.54 24.58,1.96 60.6,-17.32 20.1,-9.77 43.56,-26.25 70.37,-49.71 17.87,-15.92 30.72,-20.94 38.54,-15.64 3.07,3.35 0.56,9.49 -8.38,18.71l-35.19 35.19c-36.03,32.39 -57.81,61.16 -65.34,86.85 -3.35,13.68 1.67,20.39 14.8,20.39 25.69,0 94.95,-49.43 207.77,-148.84 21.22,-18.99 33.51,-28.21 36.86,-27.09 3.07,1.12 2.79,3.91 -1.68,8.38 -4.47,4.19 -26.25,23.46 -65.35,57.25 -80.98,68.14 -136.28,106.68 -166.16,115.34zm250.22 -43.29c-10.89,0 -19.27,-4.75 -24.85,-13.68 -5.86,-8.94 -8.1,-19.27 -6.98,-31 1.12,-11.73 3.63,-21.5 8.1,-29.04 12.57,-18.99 37.42,-41.33 74.84,-66.18 37.42,-25.13 60.32,-43.56 69.26,-55.02 12.57,-16.75 9.78,-24.57 -8.38,-22.9 -13.4,1.12 -27.37,6.14 -41.61,14.8 -34.35,22.34 -67.86,48.59 -100.53,78.47 -6.7,6.7 -11.17,8.38 -13.96,5.03 -2.23,-2.23 10.05,-15.64 36.86,-40.21 36.03,-32.11 67.86,-52.78 95.79,-62 27.65,-10.89 45.52,-8.38 53.34,7.54 8.1,16.2 -1.4,34.35 -28.21,54.46 -42.45,31.28 -75.4,58.65 -98.86,82.66 -23.46,21.23 -34.07,39.1 -31.84,53.34 5.31,31 44.4,19.83 117.01,-33.79 45.8,-33.23 79.31,-59.2 100.54,-78.47 2.23,-2.23 4.75,-3.35 7.82,-3.35 2.79,0 4.47,1.12 4.47,3.35 0,3.35 -25.41,24.02 -76.24,62.28 -62,49.15 -107.51,73.72 -136.56,73.72zm262.79 38.26c-24.58,7.82 -40.21,3.91 -46.92,-11.45 -4.19,-15.64 -4.47,-31.84 -0.56,-47.75 3.63,-16.2 9.22,-28.76 16.2,-37.98 -18.99,13.4 -32.11,21.5 -39.1,23.74 -15.92,6.42 -28.21,8.1 -36.86,4.75 -8.94,-3.35 -12.84,-10.89 -12.29,-23.18 0.56,-12.29 4.47,-25.41 12.29,-38.82 20.11,-31.28 50.27,-55.3 90.76,-72.05 36.03,-15.92 56.69,-14.24 62.28,4.75 4.19,12.57 1.39,24.85 -8.38,36.86 -3.07,6.42 -4.47,11.73 -3.91,15.64 0.84,4.19 -2.79,12.01 -11.45,22.9 -3.35,3.35 -7.82,8.38 -13.68,15.08 -5.58,6.7 -10.61,13.13 -15.08,18.71 -4.47,5.87 -8.1,11.45 -11.45,16.76 -21.23,43.84 -22.9,66.18 -5.03,67.3 14.8,1.96 46.08,-14.8 94.11,-50.82 31.28,-23.46 67.58,-55.57 108.91,-96.63l21.22 -22.06c7.82,-5.31 11.73,-5.31 12.29,0 0,1.12 -3.63,5.03 -10.61,11.45l-63.67 60.6c-22.62,21.23 -44.12,39.94 -64.79,55.57 -31.55,25.69 -56.41,41.33 -74.28,46.64zm-99.98 -78.47c1.12,3.35 10.33,2.23 27.93,-3.35 2.23,-1.12 11.73,-7.26 28.48,-18.71 1.12,-1.12 12.29,-10.61 33.51,-28.76 2.23,-1.96 8.1,-6.98 17.59,-14.24 9.49,-7.26 15.92,-13.68 19.27,-19.27 14.8,-18.99 16.48,-31.84 5.03,-38.26 -4.47,-4.47 -16.76,-0.56 -36.86,11.45 -22.34,12.29 -44.96,31.56 -67.58,57.53 -22.62,25.97 -31.84,43.84 -27.37,53.62zm622.47 103.89c-21.22,6.42 -36.03,1.95 -44.96,-13.97 -9.77,-13.68 -9.77,-33.51 0,-59.76 6.7,-14.52 17.87,-34.35 33.51,-58.92 18.15,-28.76 22.34,-43.84 13.13,-44.96 -8.66,0 -25.97,12.01 -51.94,36.03 -25.97,24.02 -43.29,43.56 -51.94,58.92 -2.23,3.35 -4.75,6.98 -8.1,10.61 -10.89,3.35 -13.13,-3.91 -6.7,-22.06 11.17,-32.11 38.26,-76.24 81.82,-132.37 21.5,-26.81 36.86,-40.21 46.64,-40.21 12.57,1.12 16.2,6.42 10.61,16.48 -1.96,3.07 -8.38,11.17 -18.71,23.74 -6.42,8.65 -12.01,15.92 -16.2,22.06 -13.68,18.99 -20.11,29.04 -18.99,30.16 0,1.12 3.35,-1.12 10.33,-6.98 6.7,-5.59 13.97,-11.73 21.5,-18.43l23.74 -18.71c33.51,-27.93 67.3,-50.82 101.93,-69.26 34.63,-18.15 54.18,-18.15 58.65,0.56 4.19,16.75 -1.12,33.23 -16.48,49.15 -2.23,1.95 -5.31,3.07 -8.94,3.07 -6.7,0 -7.82,-2.23 -3.35,-6.42 22.34,-22.34 27.65,-38.26 15.64,-47.47 -15.92,-8.66 -57.81,13.68 -125.95,67.02 -7.82,5.58 -15.36,11.45 -22.62,17.59 -7.26,6.42 -12.57,10.89 -15.92,13.4 -3.35,2.79 -5.59,4.19 -6.7,4.19 12.57,-5.31 20.67,-3.91 23.74,5.03 3.35,5.31 -6.14,27.09 -28.48,65.35 -44.68,75.96 -48.31,111.43 -10.61,107.24 2.23,0 3.91,0 5.59,0 20.39,-2.23 45.24,-12.85 75.4,-31.84 55.57,-37.14 119.52,-90.2 192.13,-158.9 7.82,-7.54 11.73,-8.1 12.29,-1.67 0,2.23 -3.91,7.26 -12.29,14.8 -59.49,54.46 -96.63,87.69 -111.99,99.14 -58.92,47.2 -107.51,76.52 -145.77,87.41zm313.61 -25.42c-24.58,7.82 -40.21,3.91 -46.92,-11.45 -4.19,-15.64 -4.47,-31.84 -0.56,-47.75 3.63,-16.2 9.22,-28.76 16.2,-37.98 -18.99,13.4 -32.11,21.5 -39.1,23.74 -15.92,6.42 -28.21,8.1 -36.86,4.75 -8.94,-3.35 -12.84,-10.89 -12.29,-23.18 0.56,-12.29 4.47,-25.41 12.29,-38.82 20.11,-31.28 50.27,-55.3 90.76,-72.05 36.03,-15.92 56.69,-14.24 62.28,4.75 4.19,12.57 1.39,24.85 -8.38,36.86 -3.07,6.42 -4.47,11.73 -3.91,15.64 0.84,4.19 -2.79,12.01 -11.45,22.9 -3.35,3.35 -7.82,8.38 -13.68,15.08 -5.58,6.7 -10.61,13.13 -15.08,18.71 -4.47,5.87 -8.1,11.45 -11.45,16.76 -21.23,43.84 -22.9,66.18 -5.03,67.3 14.8,1.96 46.08,-14.8 94.11,-50.82 31.28,-23.46 67.58,-55.57 108.91,-96.63l21.22 -22.06c7.82,-5.31 11.73,-5.31 12.29,0 0,1.12 -3.63,5.03 -10.61,11.45l-63.67 60.6c-22.62,21.23 -44.12,39.94 -64.79,55.57 -31.55,25.69 -56.41,41.33 -74.28,46.64zm-99.98 -78.47c1.12,3.35 10.33,2.23 27.93,-3.35 2.23,-1.12 11.73,-7.26 28.48,-18.71 1.12,-1.12 12.29,-10.61 33.51,-28.76 2.23,-1.96 8.1,-6.98 17.59,-14.24 9.49,-7.26 15.92,-13.68 19.27,-19.27 14.8,-18.99 16.48,-31.84 5.03,-38.26 -4.47,-4.47 -16.76,-0.56 -36.86,11.45 -22.34,12.29 -44.96,31.56 -67.58,57.53 -22.62,25.97 -31.84,43.84 -27.37,53.62zm400.18 111.98c-4.47,-8.66 -1.96,-22.06 7.26,-39.94 17.87,-33.23 55.85,-79.03 113.66,-137.4 18.99,-19.27 28.21,-30.44 27.09,-33.79 -2.23,-4.19 -13.68,-1.12 -34.35,9.49 -20.94,10.61 -40.21,22.06 -58.09,34.07 -24.58,14.52 -45.24,31.56 -62.27,50.55 -9.77,10.06 -14.24,10.06 -13.13,0 1.12,-15.64 9.49,-31.55 25.41,-47.19 3.35,-4.47 12.57,-15.08 28.21,-31.56 15.64,-16.76 29.6,-31.84 42.45,-45.52 12.85,-13.68 19.83,-21.5 20.95,-23.74 2.23,-4.19 3.35,-7.82 3.35,-10.61 0,-2.79 -2.23,-3.63 -6.7,-2.52 -22.34,4.47 -57.53,25.69 -105.56,63.39 -47.75,37.98 -81.54,70.66 -100.54,97.74 -5.31,5.59 -7.54,9.5 -6.42,11.45 0,2.23 -2.23,4.47 -6.7,6.7 -4.19,3.35 -8.1,3.63 -10.89,0.84 -3.07,-2.79 -5.03,-8.38 -6.14,-17.32 -3.35,-29.88 22.34,-72.33 76.8,-127.62 26.81,-26.53 46.36,-42.73 58.92,-48.31 6.7,-1.96 12.29,-3.35 17.32,-3.91 5.31,1.12 7.82,4.19 7.26,9.22 -0.56,5.31 -3.63,8.94 -8.94,11.17 -7.82,3.35 -22.9,16.2 -45.8,38.54 -33.23,33.23 -55.85,58.37 -67.3,75.12l-19.55 40.21c6.7,-7.82 15.08,-16.48 25.41,-26.25 46.92,-45.8 89.64,-81.54 128.46,-107.24 26.81,-18.99 50.83,-29.6 72.05,-31.84 5.31,-1.12 8.94,0.28 10.89,4.19 1.96,3.63 2.79,8.1 2.23,12.84 -0.56,5.03 -1.96,9.5 -4.19,13.13 -3.35,7.82 -18.15,27.09 -44.12,58.09l-22.9 28.76c63.67,-39.37 100.54,-54.73 110.31,-46.64 2.23,1.12 3.91,2.79 5.03,4.75 3.35,10.05 -6.42,25.97 -28.76,48.31l-44.96 49.15 -12.29 14.8c-8.66,8.66 -16.2,17.04 -22.9,24.85 -6.42,8.1 -14.24,18.15 -23.18,30.44 -9.22,12.29 -14.24,21.22 -15.36,26.81 -0.84,5.86 -0.56,11.45 1.68,16.75 13.68,7.82 58.37,-19.55 134.32,-81.82 23.46,-18.99 55.01,-48.03 94.95,-87.41l42.45 -38.54c2.23,-2.23 3.91,-3.35 5.03,-3.35 3.07,0 4.75,1.12 4.75,3.35 1.12,1.12 0.56,2.79 -1.68,5.03 -6.42,5.31 -20.11,17.59 -40.77,36.86 -20.67,18.99 -36.86,33.51 -48.31,43.29 -38.26,36.03 -71.77,65.07 -100.53,87.41 -58.37,42.72 -92.99,54.46 -103.89,35.19zm299.09 -68.7c-10.89,-13.68 -6.14,-37.98 13.97,-73.45 9.77,-15.92 23.74,-32.95 41.89,-50.82l-72.05 17.03c4.19,8.94 4.19,19.55 0,32.12 -6.7,13.68 -15.64,23.74 -27.09,30.16 -7.54,4.47 -15.08,5.03 -22.06,1.68 -5.31,-2.23 -8.1,-8.94 -8.1,-20.39 1.12,-10.89 8.38,-25.42 22.06,-43.57 1.12,-1.95 15.64,-20.1 43.29,-53.9l20.39 -19.55c5.58,-7.82 12.01,-11.17 19.83,-10.61l1.67 0 1.4 1.68c1.12,3.07 0.56,6.14 -1.4,8.94l-11.45 14.8 -43.56 52.22c48.03,-8.66 82.1,-19.27 102.49,-31.84 1.96,-1.12 4.47,-2.51 7.26,-4.19 2.79,-1.68 5.31,-3.07 8.1,-4.47 2.79,-1.4 5.87,-1.96 8.94,-1.96 2.23,0 3.35,0.56 3.35,1.68 1.12,1.96 0.56,5.03 -1.67,8.94 -48.04,48.03 -77.92,82.66 -89.92,103.88 -9.77,16.76 -13.4,30.16 -10.61,39.94 4.47,7.82 20.11,3.91 47.47,-11.45 26.81,-18.99 74.56,-60.88 143.82,-125.95 5.58,-5.31 8.94,-5.86 10.05,-1.67 0.84,2.23 -1.68,6.7 -8.38,13.12 -64.79,60.6 -111.15,100.26 -139.07,118.69 -27.65,18.43 -48.03,21.5 -60.6,8.94zm-58.08 -53.9c3.35,5.31 8.94,4.47 16.48,-3.35 5.58,-3.35 10.05,-8.94 13.4,-16.76 3.63,-7.82 5.31,-14.8 5.31,-20.94 0,-5.87 -1.67,-8.94 -5.58,-8.94 -4.47,-1.12 -11.45,5.87 -21.23,20.94 -9.77,15.08 -12.57,24.58 -8.38,29.04zm275.63 44.12c-35.74,12.57 -58.92,7.82 -68.7,-13.96 -3.07,-8.66 -3.63,-21.5 -1.68,-38.26 3.35,-14.8 11.45,-30.44 23.74,-46.64 18.15,-24.58 37.98,-44.4 59.76,-58.92 22.34,-12.57 41.05,-18.71 55.85,-18.15 15.64,0 24.85,4.47 27.65,13.13 2.79,8.65 -1.4,19.83 -12.29,33.51 -8.66,10.89 -16.76,19.55 -24.58,25.69 -7.54,6.42 -12.85,9.22 -15.36,8.66 -2.79,-0.56 -4.75,-1.4 -5.87,-2.52 15.92,-9.77 28.76,-21.5 38.82,-34.91 10.06,-13.68 14.24,-22.9 12.01,-27.09 -7.82,-18.15 -31.28,-9.49 -70.37,25.41 -12.57,9.78 -28.49,26.81 -47.47,51.39 -23.46,33.23 -31.56,57.81 -24.58,73.73 5.58,13.68 19.27,15.64 41.61,5.58 42.73,-16.75 87.41,-44.4 134.33,-82.38 5.31,-4.47 22.06,-18.99 49.99,-43.57 4.19,-4.19 7.54,-4.19 9.77,0 0,2.23 -1.68,5.03 -5.03,8.38 -67.02,60.32 -126.23,100.82 -177.61,120.92zm502.39 -132.65c3.35,3.35 1.12,8.94 -6.42,16.48 -62.83,60.6 -111.71,102.77 -146.89,126.79 -35.19,24.02 -87.97,53.9 -158.34,89.08 -13.68,6.7 -23.74,11.73 -30.16,15.64 -1.12,1.12 -4.47,5.03 -9.78,12.01 -5.58,6.7 -10.61,12.84 -15.64,18.43 -10.89,14.52 -49.43,63.67 -115.34,147.17 -99.42,124.83 -192.13,207.49 -278.15,247.98 -40.49,17.87 -67.02,25.69 -80.15,23.74 -20.39,-3.35 -29.32,-17.32 -27.09,-41.89 2.23,-42.45 35.19,-95.23 99.14,-157.78 43.57,-42.72 105,-85.73 184.04,-129.3 17.87,-8.65 83.5,-44.96 196.32,-108.91l14.8 -21.22c0.84,-1.12 18.99,-29.04 54.18,-83.78 35.19,-55.01 54.46,-84.62 57.81,-88.8 -56.69,36.03 -92.44,53.62 -107.24,53.06 -9.77,0 -16.2,-3.35 -19.55,-10.61 -3.35,-6.98 -3.63,-15.08 -0.84,-24.02 2.79,-8.94 6.14,-16.75 10.61,-23.46 13.68,-18.99 30.44,-39.38 50.27,-61.16 19.83,-22.06 32.95,-33.51 38.82,-34.35 14.8,-2.23 21.78,0.84 21.5,9.77 0,3.07 -2.51,7.54 -7.54,12.57 -4.75,5.31 -11.17,11.17 -19.27,17.59 -7.82,6.7 -12.84,11.45 -15.08,14.8 -40.21,42.45 -61.16,68.42 -62.28,77.63 -0.84,3.35 -0.84,6.14 0,8.1 3.35,7.82 21.5,2.51 54.18,-15.36l46.64 -27.93c10.89,-6.42 27.65,-21.22 50.55,-44.12 21.5,-21.22 39.66,-38.54 55.01,-51.66 24.58,-17.87 38.26,-22.62 41.61,-13.68 1.12,4.19 -3.63,11.73 -14.8,22.06 -32.11,28.76 -77.91,85.73 -137.4,170.91 -12.57,17.87 -22.9,33.51 -31,46.36 -8.1,12.57 -14.52,22.62 -19.27,29.6 -4.75,7.26 -7.54,11.45 -8.65,13.13l42.72 -22.06c75.68,-41.33 133.77,-78.19 174.26,-110.31 28.76,-23.46 66.19,-56.41 111.99,-99.14 3.35,-3.35 5.58,-4.19 6.42,-3.35zm-447.38 343.77c24.58,-29.04 41.89,-51.94 52.22,-68.7 -150.52,81.82 -237.09,130.42 -259.99,145.5 -53.62,36.03 -97.74,72.33 -132.65,108.91 -25.69,27.93 -42.17,50.27 -49.99,67.02 -25.41,50.27 -28.2,79.59 -8.1,88.53 4.47,1.96 9.78,2.79 16.48,2.23 44.68,-5.31 98.86,-35.47 162.81,-90.76 60.88,-53.34 134.05,-137.68 219.22,-252.73zm452.4 -201.35c-10.89,-13.68 -6.14,-37.98 13.97,-73.45 9.77,-15.92 23.74,-32.95 41.89,-50.82l-72.05 17.03c4.19,8.94 4.19,19.55 0,32.12 -6.7,13.68 -15.64,23.74 -27.09,30.16 -7.54,4.47 -15.08,5.03 -22.06,1.68 -5.31,-2.23 -8.1,-8.94 -8.1,-20.39 1.12,-10.89 8.38,-25.42 22.06,-43.57 1.12,-1.95 15.64,-20.1 43.29,-53.9l20.39 -19.55c5.58,-7.82 12.01,-11.17 19.83,-10.61l1.67 0 1.4 1.68c1.12,3.07 0.56,6.14 -1.4,8.94l-11.45 14.8 -43.56 52.22c48.03,-8.66 82.1,-19.27 102.49,-31.84 1.96,-1.12 4.47,-2.51 7.26,-4.19 2.79,-1.68 5.31,-3.07 8.1,-4.47 2.79,-1.4 5.87,-1.96 8.94,-1.96 2.23,0 3.35,0.56 3.35,1.68 1.12,1.96 0.56,5.03 -1.67,8.94 -48.04,48.03 -77.92,82.66 -89.92,103.88 -9.77,16.76 -13.4,30.16 -10.61,39.94 4.47,7.82 20.11,3.91 47.47,-11.45 26.81,-18.99 74.56,-60.88 143.82,-125.95 5.58,-5.31 8.94,-5.86 10.05,-1.67 0.84,2.23 -1.68,6.7 -8.38,13.12 -64.79,60.6 -111.15,100.26 -139.07,118.69 -27.65,18.43 -48.03,21.5 -60.6,8.94zm-58.08 -53.9c3.35,5.31 8.94,4.47 16.48,-3.35 5.58,-3.35 10.05,-8.94 13.4,-16.76 3.63,-7.82 5.31,-14.8 5.31,-20.94 0,-5.87 -1.67,-8.94 -5.58,-8.94 -4.47,-1.12 -11.45,5.87 -21.23,20.94 -9.77,15.08 -12.57,24.58 -8.38,29.04zm328.13 77.63c-17.04,-1.12 -24.3,-12.29 -22.06,-33.51 3.35,-26.81 16.48,-54.17 39.93,-82.66l20.67 -24.58 -18.15 1.68c-7.54,1.12 -20.1,1.68 -37.7,1.68 -7.54,0 -13.13,1.12 -17.04,3.35 -3.91,2.23 -10.89,9.22 -21.22,21.22 -13.68,17.87 -19.83,29.04 -18.15,33.51 0,5.59 -1.96,8.38 -6.42,8.94 -18.99,0 -20.11,-16.2 -3.35,-48.87 6.7,-13.68 24.01,-33.79 52.5,-59.76 28.2,-26.25 49.15,-42.17 62.83,-47.47 6.7,-2.23 13.96,-2.23 22.06,0 7.82,3.07 3.63,10.61 -12.29,22.06 -13.4,8.66 -26.25,19.27 -38.26,31.84 -13.68,13.68 -19.55,21.78 -17.59,24.3 1.96,2.23 12.01,3.07 30.72,1.96 17.87,-2.23 33.23,-8.66 45.8,-19.83 17.87,-13.4 30.72,-17.59 38.26,-12.01 4.47,0.84 5.58,3.91 3.35,8.94 -3.35,5.31 -17.31,20.39 -41.61,44.96 -31.28,31 -49.15,50.27 -54.18,57.25 -15.64,26.81 -20.67,43.84 -14.52,51.66 7.54,9.78 24.01,8.1 49.71,-5.03 27.93,-14.8 69.81,-44.4 125.95,-89.08l63.95 -53.34c6.42,-6.42 9.78,-6.42 9.78,0 0,2.23 -2.23,5.59 -6.42,9.78 -96.07,80.15 -162.53,128.18 -199.67,144.1 -13.68,5.87 -25.97,8.94 -36.86,8.94zm227.32 -23.74c-10.89,-13.68 -6.14,-37.98 13.97,-73.45 9.77,-15.92 23.74,-32.95 41.89,-50.82l-72.05 17.03c4.19,8.94 4.19,19.55 0,32.12 -6.7,13.68 -15.64,23.74 -27.09,30.16 -7.54,4.47 -15.08,5.03 -22.06,1.68 -5.31,-2.23 -8.1,-8.94 -8.1,-20.39 1.12,-10.89 8.38,-25.42 22.06,-43.57 1.12,-1.95 15.64,-20.1 43.29,-53.9l20.39 -19.55c5.58,-7.82 12.01,-11.17 19.83,-10.61l1.67 0 1.4 1.68c1.12,3.07 0.56,6.14 -1.4,8.94l-11.45 14.8 -43.56 52.22c48.03,-8.66 82.1,-19.27 102.49,-31.84 1.96,-1.12 4.47,-2.51 7.26,-4.19 2.79,-1.68 5.31,-3.07 8.1,-4.47 2.79,-1.4 5.87,-1.96 8.94,-1.96 2.23,0 3.35,0.56 3.35,1.68 1.12,1.96 0.56,5.03 -1.67,8.94 -48.04,48.03 -77.92,82.66 -89.92,103.88 -9.77,16.76 -13.4,30.16 -10.61,39.94 4.47,7.82 20.11,3.91 47.47,-11.45 26.81,-18.99 74.56,-60.88 143.82,-125.95 5.58,-5.31 8.94,-5.86 10.05,-1.67 0.84,2.23 -1.68,6.7 -8.38,13.12 -64.79,60.6 -111.15,100.26 -139.07,118.69 -27.65,18.43 -48.03,21.5 -60.6,8.94zm-58.08 -53.9c3.35,5.31 8.94,4.47 16.48,-3.35 5.58,-3.35 10.05,-8.94 13.4,-16.76 3.63,-7.82 5.31,-14.8 5.31,-20.94 0,-5.87 -1.67,-8.94 -5.58,-8.94 -4.47,-1.12 -11.45,5.87 -21.23,20.94 -9.77,15.08 -12.57,24.58 -8.38,29.04z"></path> <path class="fil0" d="M4424.53 1219.03c-25.69,0 -32.68,-22.9 -21.23,-68.7 3.35,-18.15 11.45,-36.58 24.58,-55.85 9.77,-14.52 36.3,-44.68 79.31,-89.92 41.33,-41.33 77.08,-73.17 107.24,-95.79 36.03,-26.53 62.56,-46.36 80.15,-58.65l63.67 -43.56c30.16,-18.99 50.55,-33.51 61.44,-43.29 8.66,-18.99 12.84,-36.58 12.29,-52.5 0,-7.54 -6.7,-10.89 -20.39,-9.78 -4.47,2.23 -6.7,0.56 -6.7,-4.75l-1.39 -13.96c-2.23,-4.47 1.95,-11.45 12.84,-21.22 85.18,-72.61 127.62,-118.41 127.62,-137.4 -0.84,-6.7 -11.17,-3.91 -30.16,8.1 -7.54,5.31 -36.58,31 -86.85,76.79 -1.96,2.23 -4.47,1.68 -7.26,-1.67 -1.12,-1.96 3.07,-7.54 12.29,-16.2l46.64 -41.89c17.03,-15.64 30.16,-26.25 40.21,-31.84l4.75 -3.35c17.03,-7.54 27.09,-6.42 30.44,3.35 3.07,5.59 3.07,13.68 0,24.58 -8.94,24.58 -32.39,54.73 -70.37,90.76l-35.19 33.51 -14.8 14.8 6.42 12.29c5.58,9.77 7.82,20.94 6.7,33.51l-1.68 22.9c12.57,-7.54 31.56,-20.95 57.25,-39.94 24.58,-18.15 54.46,-42.73 89.92,-73.73l41.05 -38.54c6.42,-4.19 9.77,-4.75 9.77,-1.67 0,3.35 -3.91,8.94 -11.45,16.48 -24.58,24.58 -52.22,48.59 -82.66,72.05l-33.51 26.81c-17.03,12.57 -28.76,21.22 -35.19,25.41l-18.15 11.45 -18.71 13.96 -16.48 49.99c-6.42,20.11 -14.8,37.98 -25.13,53.9 -15.92,25.69 -39.37,58.92 -70.37,99.98 -32.39,43.56 -67.86,84.34 -107.24,122.6 -55.57,51.39 -97.74,85.46 -125.95,102.21 -32.11,20.39 -56.69,29.88 -73.72,28.76zm-14.8 -31.84c0,8.66 3.07,13.96 9.22,16.2 5.87,2.23 13.4,1.68 22.34,-1.68 8.94,-3.07 17.03,-6.7 23.74,-10.61 6.98,-3.91 12.57,-7.26 16.76,-10.61 45.8,-29.88 82.66,-60.88 110.59,-92.44 105.28,-111.7 175.1,-205.54 209.45,-281.5l13.13 -26.81 -33.79 22.06c-118.13,83.78 -181.24,129.02 -188.78,135.72 -41.61,34.35 -80.99,73.44 -118.69,117.01 -43.56,48.03 -65.07,92.16 -63.95,132.65z"></path> </g> <path class="fil0 str0" d="M4420.25 751.6c0,36.44 -13.03,68.95 -39.21,97.44 -23.33,25.38 -46.15,38.03 -68.32,38.03 -13.07,0 -19.41,-7.92 -19.01,-23.77 0.4,-15.45 7.08,-37.69 30.9,-53.47l95.06 -62.98 0.59 4.76zm-4.75 1.78c-26.54,13.47 -49.91,28.52 -70.11,45.15 -30.1,23.76 -45.35,45.35 -45.75,64.76 -0.4,12.67 3.96,19.01 13.07,19.01 14.26,0 32.87,-12.28 55.85,-36.84 31.29,-33.67 46.93,-64.36 46.93,-92.09z"></path> </g> </svg> 