<?xml version="1.0" encoding="UTF-8"?> <svg xmlns="http://www.w3.org/2000/svg" xmlns:xlink="http://www.w3.org/1999/xlink" xmlns:xodm="http://www.corel.com/coreldraw/odm/2003" xml:space="preserve" width="24.098mm" height="24.098mm" version="1.1" style="shape-rendering:geometricPrecision; text-rendering:geometricPrecision; image-rendering:optimizeQuality; fill-rule:evenodd; clip-rule:evenodd" viewBox="0 0 286.87 286.87"> <defs> <style type="text/css"> .fil0 {fill:#7A5828} </style> </defs> <g id="Слой_x0020_1"> <metadata id="CorelCorpID_0Corel-Layer"></metadata> <g id="_1811868388304"> <path class="fil0" d="M12.48 146.75c-0.04,-0.1 0,-3.56 0,-3.98 0,-0.91 -0.06,-2.18 0.17,-2.88 0.12,-0.37 0.1,-0.51 0.1,-0.97 -0.01,-1 -0.13,-3.24 0,-4.12 0.11,-0.78 0.27,-0.47 0.26,-1.73 -0.01,-0.65 -0.09,-1.49 0.09,-2.03 0.01,-0.03 0.03,-0.06 0.04,-0.09 0.2,-0.57 0.1,-1.13 0.12,-1.74 0.03,-0.79 0.29,-0.88 0.28,-1.71 -0.02,-1.34 0.16,-1.06 0.25,-1.74 0.04,-0.31 -0.03,-0.73 0.01,-1.05 0.14,-0.98 0.12,0.17 0.25,-0.81l0.18 -1.28c0.14,-0.42 0.04,-0.96 0.19,-1.41 0.12,-0.37 0.02,0.25 0.15,-0.39l0.16 -1.3c0.05,-0.15 0.04,0.17 0.12,-0.41l0.55 -3.04c0.06,-0.57 0.12,-0.28 0.23,-0.83l0.23 -1.23c0.07,-0.24 0.03,-0.23 0.08,-0.45l1.11 -4.47c0.01,-0.03 0.02,-0.07 0.03,-0.1l0.27 -0.79c0.01,-0.03 0.03,-0.06 0.04,-0.1l0.07 -0.2c0.06,-0.23 0.03,-0.24 0.08,-0.45l1.52 -4.86c0.01,-0.03 0.02,-0.07 0.03,-0.1l0.33 -1c0.01,-0.03 0.02,-0.07 0.03,-0.1l0.64 -1.89c0.01,-0.03 0.02,-0.07 0.03,-0.1 0.01,-0.03 0.02,-0.07 0.03,-0.1 0.07,-0.23 0.04,-0.19 0.12,-0.41l0.61 -1.52c0.01,-0.03 0.02,-0.07 0.03,-0.1 0.01,-0.03 0.02,-0.07 0.03,-0.1 0.01,-0.03 0.02,-0.07 0.03,-0.1l0.93 -2.25c0.01,-0.03 0.03,-0.06 0.04,-0.09l0.72 -1.94c0.01,-0.04 0.06,-0.15 0.08,-0.19l0.98 -2.21c0.2,-0.39 -0.11,0.22 0.09,-0.18l0.27 -0.53c0.02,-0.04 0.07,-0.14 0.09,-0.18l1.2 -2.66c0.01,-0.03 0.03,-0.06 0.04,-0.09l0.22 -0.44c0.01,-0.03 0.03,-0.06 0.04,-0.09l1.33 -2.66c0.04,-0.07 0.08,-0.16 0.13,-0.27l2.7 -4.87c0.01,-0.03 0.03,-0.06 0.04,-0.09l1.1 -1.95c0.05,-0.1 0.12,-0.25 0.18,-0.35l1.28 -2.04c0.02,-0.02 0.03,-0.06 0.05,-0.08l0.58 -0.88c0.02,-0.02 0.04,-0.05 0.06,-0.08l2.6 -3.91c0.02,-0.02 0.04,-0.05 0.06,-0.08l1.56 -2.16c0.02,-0.02 0.03,-0.06 0.05,-0.08l3.28 -4.43c0.01,-0.02 0.03,-0.06 0.05,-0.09 0.02,-0.02 0.04,-0.06 0.05,-0.08l0.97 -1.16c0.17,-0.29 0.95,-1.01 1.37,-1.68l0.71 -0.75c0.16,-0.15 0.13,-0.11 0.27,-0.26 0.02,-0.03 0.1,-0.11 0.12,-0.15l0.29 -0.51c0.04,-0.05 0.2,-0.23 0.25,-0.28l1.53 -1.52c0.25,-0.32 0.37,-0.64 0.93,-1.2 1.2,-1.19 7.21,-7.44 8.05,-8.02l1.78 -1.54c0.12,-0.12 0.13,-0.14 0.26,-0.27l0.77 -0.55c0.02,-0.02 0.06,-0.03 0.08,-0.05l1.01 -0.98c0.38,-0.29 -0.27,0.16 0.16,-0.11 0.02,-0.02 0.06,-0.03 0.09,-0.05l0.26 -0.14c0.43,-0.27 -0.22,0.18 0.16,-0.11 0.38,-0.29 0.62,-0.71 1.01,-0.98l1.76 -1.3c0.52,-0.33 0.55,-0.51 0.8,-0.66 0.02,-0.02 0.06,-0.03 0.09,-0.05 0.03,-0.01 0.06,-0.03 0.09,-0.05 0.2,-0.12 0.57,-0.61 1.07,-0.92l3.49 -2.48c0.03,-0.02 0.12,-0.1 0.15,-0.12l1.94 -1.38c0.19,-0.12 0.15,-0.06 0.34,-0.19l3.3 -2.15c0.02,-0.02 0.06,-0.04 0.08,-0.05l1.32 -0.8c0.1,-0.05 0.25,-0.12 0.35,-0.18 0.06,-0.04 0.16,-0.13 0.3,-0.23 0.18,-0.13 0.11,-0.09 0.32,-0.21l1.42 -0.84c0.03,-0.01 0.06,-0.03 0.09,-0.04l0.45 -0.22c0.03,-0.01 0.06,-0.03 0.09,-0.04 0.03,-0.01 0.06,-0.03 0.09,-0.04l3.19 -1.72c0.21,-0.12 0.15,-0.08 0.32,-0.21l4.54 -2.36c0.04,-0.02 0.14,-0.07 0.18,-0.09 0.03,-0.01 0.06,-0.03 0.09,-0.04l1.06 -0.54c0.03,-0.01 0.06,-0.03 0.09,-0.05l0.8 -0.26c0.03,-0.01 0.07,-0.03 0.09,-0.04l1.59 -0.8c0.03,-0.01 0.06,-0.03 0.09,-0.05l2.91 -1.21c0.03,-0.01 0.07,-0.02 0.1,-0.03l3.28 -1.37c0.03,-0.01 0.06,-0.03 0.09,-0.04 0.03,-0.01 0.07,-0.02 0.1,-0.03l7.42 -2.55c0.03,-0.01 0.16,-0.06 0.2,-0.07l2.65 -0.8c0.03,-0.01 0.07,-0.02 0.1,-0.03l0.78 -0.15c0.03,-0.01 0.07,-0.02 0.1,-0.04l4.17 -1.14c0.04,-0.01 0.07,-0.02 0.11,-0.03l2.12 -0.54c0.33,-0.07 0.49,0 0.84,-0.09l6.96 -1.28c0.98,-0.13 -0.17,-0.12 0.81,-0.25 0.4,-0.05 0.68,0.03 1.09,-0.1 0.6,-0.2 1.07,-0.07 1.66,-0.2 0.63,-0.13 0.02,-0.02 0.38,-0.15 0.41,-0.14 1.03,-0.08 1.51,-0.08l0.88 -0.18c0.62,-0.21 1.25,-0 1.89,-0.1 0.97,-0.14 -0.16,-0.11 0.81,-0.25 0.24,-0.04 0.78,-0.01 1.06,-0.01 0.61,0 1.39,0.08 1.9,-0.09 1.46,-0.49 4.18,0.14 5.48,-0.23l0.19 -0.08c0.95,-0.34 4.73,-0.16 6.12,-0.14 0.84,0.01 0.99,0.29 1.84,0.28 1,-0.01 3.24,-0.13 4.12,0 0.93,0.14 -0.05,0.07 0.7,0.23 1.06,0.23 2.06,-0.13 3.35,0.24 0.6,0.17 1.3,-0.05 1.91,0.08 0.62,0.13 0.02,0.02 0.38,0.15 0.56,0.19 1.29,0.01 1.89,0.1 0.97,0.14 -0.16,0.12 0.81,0.25 0.31,0.04 0.73,-0.03 1.05,0.01 0.98,0.14 -0.17,0.12 0.81,0.25l1.28 0.18c0.42,0.14 0.96,0.04 1.41,0.19l3.93 0.72c0.58,0.08 0.27,0.07 0.41,0.12l0.79 0.14c0.57,0.06 0.28,0.12 0.83,0.23l1.23 0.23c0.24,0.07 0.23,0.03 0.45,0.08l3.41 0.84c0.03,0.01 0.07,0.02 0.1,0.03l2.92 0.79c0.03,0.01 0.07,0.02 0.1,0.04l5.04 1.6c0.03,0.01 0.07,0.02 0.1,0.04 0.03,0.01 0.07,0.02 0.1,0.03l2.39 0.8c0.03,0.01 0.07,0.02 0.1,0.03l3.25 1.27c0.03,0.01 0.07,0.02 0.1,0.03l1.23 0.5c0.03,0.01 0.07,0.02 0.1,0.03 0.03,0.01 0.07,0.02 0.1,0.03l2.71 1.14c0.03,0.01 0.06,0.03 0.09,0.04l4.34 1.9c0.03,0.01 0.06,0.03 0.09,0.05l6.2 3.23c0.18,0.09 -0,-0 0.18,0.09l4.52 2.52c0.1,0.05 0.25,0.12 0.35,0.18l0.71 0.49c0.03,0.01 0.06,0.03 0.09,0.04l1.86 1.19c0.01,0.01 0.16,0.08 0.17,0.09l6.02 4.07c0.07,0.07 0.19,0.19 0.28,0.25l3.62 2.63c0.02,0.02 0.06,0.03 0.08,0.05l0.98 0.75c0.02,0.02 0.06,0.04 0.08,0.05 0.36,0.25 0.59,0.64 0.99,0.87 0.02,0.02 0.06,0.03 0.09,0.05 0.03,0.02 0.06,0.03 0.09,0.05 0.02,0.02 0.06,0.03 0.09,0.05l0.69 0.64c0.2,0.21 0.32,0.35 0.56,0.51 0.2,0.12 0.15,0.06 0.35,0.18 0.46,0.29 0.73,0.79 1.16,1.09l0.79 0.54c0.03,0.03 0.22,0.23 0.26,0.27l0.73 0.73c0.12,0.12 0.13,0.14 0.26,0.27l0.78 0.55c0.29,0.18 7.53,7.3 8.6,8.54l0.86 1.13c0.15,0.15 0.12,0.12 0.27,0.26 0.44,0.43 0.92,0.8 1.22,1.31 0.01,0.01 0.08,0.16 0.09,0.17 0.31,0.54 1.1,1.19 1.19,1.33 0.02,0.02 0.03,0.06 0.05,0.08l0.25 0.42c0.15,0.2 0.09,0.1 0.19,0.2l0.79 0.8c0.02,0.02 0.04,0.06 0.05,0.08l0.24 0.43c0.02,0.03 0.09,0.12 0.12,0.15l0.89 1.1c0.21,0.33 0.29,0.29 0.5,0.56l1.31 1.75c0.02,0.02 0.03,0.06 0.05,0.09l0.66 0.8c0.02,0.02 0.03,0.06 0.05,0.09 0.02,0.02 0.03,0.06 0.05,0.09 0.02,0.02 0.03,0.06 0.05,0.08l0.29 0.38c0.02,0.02 0.04,0.06 0.05,0.08l0.8 1.06c0.12,0.19 0.06,0.15 0.19,0.34 0.08,0.13 0.05,0.07 0.17,0.23 0.02,0.03 0.1,0.12 0.12,0.15l0.1 0.16c0.06,0.1 0.03,0.07 0.09,0.17l0.44 0.62c0.02,0.02 0.03,0.06 0.05,0.09 0.01,0.02 0.03,0.06 0.05,0.09l1.91 2.74c0.01,0.03 0.03,0.06 0.04,0.09 0.01,0.03 0.03,0.06 0.04,0.09l0.13 0.27c0.01,0.02 0.03,0.06 0.05,0.08 0.02,0.02 0.04,0.06 0.05,0.08l0.34 0.46c0.06,0.1 0.03,0.07 0.09,0.17l0.34 0.46c0.02,0.02 0.04,0.05 0.05,0.08 0.02,0.02 0.04,0.06 0.05,0.08l2.35 3.9c0.01,0.03 0.03,0.06 0.04,0.09 0.02,0.04 0.07,0.14 0.09,0.18l0.37 0.69c0.71,1.01 1.12,2.21 1.83,3.22l0.32 0.6c0.01,0.03 0.03,0.06 0.04,0.09 0.09,0.18 -0,-0 0.09,0.18l0.4 0.8c0.01,0.03 0.03,0.06 0.04,0.09 0.02,0.04 0.07,0.14 0.09,0.18l0.18 0.35c0.02,0.04 0.07,0.14 0.09,0.18 0.01,0.03 0.03,0.06 0.04,0.09 0.02,0.04 0.07,0.14 0.09,0.18 0.05,0.1 0.13,0.25 0.18,0.35l3.46 7.43c0.01,0.03 0.03,0.06 0.04,0.09l0.63 1.62c0.07,0.23 0.03,0.18 0.12,0.41l2.13 5.57c0.01,0.03 0.02,0.07 0.04,0.1 0.01,0.03 0.02,0.07 0.04,0.1l1.06 3.19c0.05,0.13 0.07,0.23 0.13,0.4l2.11 7.59c0.01,0.04 0.01,0.07 0.02,0.11l0.82 3.56c0.26,0.97 0.34,1.98 0.65,2.94l0.63 4.02c0.13,0.98 0.12,-0.17 0.25,0.81l0.22 1.37c0.12,0.43 -0.01,0.93 0.08,1.38 0.22,1.06 0.21,0.16 0.23,1.9 0,0.17 0,0.33 0.04,0.5 0.35,1.65 0.15,0.46 0.23,2.29 0.03,0.69 0.29,0.96 0.28,1.85 -0.02,1.84 0.26,1.96 0.26,3.85 -0,1.03 -0.21,2.75 0.13,3.72l0.08 0.19c0.17,0.58 0.06,3.13 0.06,3.93 0,0.91 0.06,2.18 -0.17,2.88 -0.36,1.08 0.08,3.86 -0.1,5.08 -0.14,0.93 -0.07,-0.05 -0.23,0.7 -0.05,0.25 -0.03,0.75 -0.03,1.03 0,0.35 0.02,0.73 0.01,1.07 -0,0.16 -0,0.33 -0.04,0.5 -0.35,1.64 -0.15,0.47 -0.23,2.29l-0.18 0.75c-0.19,0.56 -0.01,1.29 -0.1,1.89 -0.14,0.97 -0.12,-0.16 -0.25,0.81 -0.04,0.31 0.03,0.73 -0.01,1.05 -0.14,0.98 -0.12,-0.17 -0.25,0.81l-0.18 1.28c-0.14,0.42 -0.04,0.96 -0.19,1.41 -0.12,0.37 -0.02,-0.25 -0.15,0.39l-0.31 2.22c-0.14,0.96 -0.1,-0.14 -0.24,0.82l-0.37 2.15c-0.11,0.36 -0.01,-0.24 -0.14,0.39l-1.69 6.94c-0.01,0.03 -0.02,0.07 -0.04,0.1l-1.02 3.62c-0.01,0.03 -0.02,0.07 -0.03,0.1 -0.01,0.03 -0.06,0.16 -0.07,0.2l-2.39 6.91c-0.01,0.03 -0.02,0.07 -0.03,0.1l-1.68 4.29c-0.01,0.03 -0.02,0.07 -0.03,0.1 -0.01,0.03 -0.02,0.07 -0.03,0.1l-0.84 1.68c-0.01,0.03 -0.03,0.06 -0.04,0.1l-1.02 2.3c-0.01,0.03 -0.03,0.06 -0.04,0.09l-1.24 2.74c-0.05,0.11 -0.03,0.07 -0.09,0.18l-1.06 2.13c-0.04,0.07 -0.08,0.16 -0.13,0.27 -0.01,0.03 -0.03,0.06 -0.05,0.09l-0.31 0.62c-0.01,0.03 -0.03,0.06 -0.04,0.09l-0.53 0.8c-0.02,0.02 -0.04,0.06 -0.05,0.08l-4.24 7.44c-0.02,0.04 -0.07,0.14 -0.09,0.17l-0.1 0.16c-0.58,0.82 -1.18,1.59 -1.62,2.5l-2.48 3.63c-0.02,0.02 -0.03,0.06 -0.05,0.09l-2.08 2.83c-0.01,0.03 -0.03,0.06 -0.05,0.09l-1.11 1.41c-0.02,0.02 -0.03,0.06 -0.05,0.08l-0.8 1.06c-0.04,0.06 -0.2,0.22 -0.25,0.28l-1.13 1.39c-0.14,0.14 -0.13,0.12 -0.27,0.26 -0.21,0.2 -0.35,0.32 -0.5,0.56l-1.51 1.94c-0.02,0.02 -0.03,0.06 -0.05,0.08l-1.98 2.14c-0.01,0.02 -0.03,0.06 -0.05,0.09l-0.41 0.51c-0.13,0.13 -0.15,0.14 -0.27,0.26 -0.73,0.72 -1.37,1.36 -2.06,2.06l-5.05 5.05c-1.31,1.31 -1.31,1.02 -2.98,2.73l-2.53 1.99c-0.38,0.29 -0.62,0.71 -1.01,0.98l-4.23 3.21c-0.03,0.02 -0.12,0.09 -0.15,0.12 -0.23,0.21 -0.03,0.06 -0.26,0.27l-3.85 2.65c-0.4,0.23 -0.27,0.31 -0.89,0.7l-7.17 4.38c-0.02,0.01 -0.06,0.03 -0.08,0.05 -0.02,0.02 -0.06,0.04 -0.08,0.05l-0.81 0.52c-0.03,0.01 -0.06,0.03 -0.09,0.04l-1.68 0.98c-0.03,0.02 -0.15,0.07 -0.18,0.09l-3.19 1.73c-0.03,0.01 -0.06,0.03 -0.09,0.04l-3.98 1.99c-0.04,0.02 -0.14,0.07 -0.17,0.09l-0.27 0.12c-0.03,0.01 -0.07,0.02 -0.1,0.03l-1.05 0.41c-0.41,0.21 0.23,-0.12 -0.18,0.09l-0.97 0.49c-0.03,0.01 -0.06,0.03 -0.1,0.04l-1.68 0.71c-0.03,0.01 -0.06,0.03 -0.09,0.05l-0.44 0.22c-0.03,0.01 -0.06,0.03 -0.09,0.04l-5.93 2.3c-0.03,0.01 -0.06,0.03 -0.09,0.05l-3.38 1.14c-0.13,0.05 -0.23,0.07 -0.4,0.13l-0.2 0.07c-0.04,0.01 -0.15,0.06 -0.2,0.07l-2 0.66c-0.03,0.01 -0.07,0.02 -0.1,0.03l-4.68 1.3c-0.04,0.01 -0.07,0.02 -0.11,0.03l-3.29 0.83c-1.08,0.33 -1.82,0.37 -2.3,0.49l-0.28 0.11c-0.03,0.01 -0.06,0.03 -0.1,0.03l-5.29 0.95c-0.37,0.12 0.25,0.02 -0.39,0.15 -0.31,0.06 -0.6,-0 -0.89,0.04 -0.98,0.13 0.17,0.12 -0.82,0.25 -0.38,0.05 -0.61,-0.04 -1,0.07l-0.28 0.12c-0.03,0.01 -0.06,0.03 -0.1,0.04 -0.23,0.07 -0.21,0.05 -0.47,0.06 -0.3,0.01 -0.61,-0.04 -0.91,0.02 -1.06,0.22 -0.16,0.21 -1.9,0.23l-0.88 0.18c-0.55,0.19 -1.27,0.05 -1.91,0.08 -0.69,0.03 -0.96,0.29 -1.85,0.28 -1.84,-0.02 -1.96,0.26 -3.85,0.26 -0.66,-0 -1.33,0 -1.99,-0 -0.34,0 -0.75,-0.02 -1.07,-0.01l-0.84 0.22c-0.34,0.1 -5.63,0.2 -6.42,0.03 -0.62,-0.13 -0.02,-0.03 -0.38,-0.15 -1.08,-0.36 -3.86,0.08 -5.08,-0.1 -0.78,-0.11 -0.47,-0.27 -1.73,-0.26l-1.57 -0.02c-0.62,-0.13 -0.02,-0.02 -0.38,-0.15 -0.71,-0.24 -1.9,-0.01 -2.66,-0.27 -0.56,-0.19 -1.29,-0.01 -1.89,-0.1 -0.97,-0.14 0.16,-0.12 -0.81,-0.25 -0.31,-0.04 -0.73,0.03 -1.05,-0.01 -0.98,-0.14 0.17,-0.12 -0.81,-0.25 -0.3,-0.04 -0.59,0.03 -0.89,-0.04 -0.63,-0.13 -0.02,-0.02 -0.39,-0.15 -0.42,-0.14 -0.96,-0.04 -1.41,-0.19l-0.89 -0.17c-0.13,-0 -0.26,0.01 -0.39,-0.01 -0.88,-0.12 0.08,-0.11 -0.82,-0.24l-6.93 -1.44c-0.04,-0.01 -0.15,-0.06 -0.19,-0.07l-6.51 -1.72c-0.61,-0.13 0.03,0.02 -0.4,-0.13l-2.29 -0.77c-0.03,-0.01 -0.07,-0.02 -0.1,-0.04 -0.03,-0.01 -0.07,-0.02 -0.1,-0.03 -0.03,-0.01 -0.07,-0.02 -0.1,-0.03l-1.3 -0.43c-0.03,-0.01 -0.07,-0.02 -0.1,-0.04l-5.65 -2.05c-0.03,-0.01 -0.06,-0.03 -0.09,-0.04 -0.03,-0.01 -0.06,-0.03 -0.09,-0.04l-0.26 -0.14c-0.03,-0.01 -0.06,-0.03 -0.09,-0.05l-1.92 -0.73c-0.03,-0.01 -0.07,-0.02 -0.1,-0.03l-2.49 -1.09c-0.39,-0.2 0.22,0.11 -0.18,-0.09l-2.75 -1.24c-0.03,-0.01 -0.06,-0.03 -0.09,-0.05l-0.18 -0.09c-0.06,-0.03 -0.12,-0.06 -0.18,-0.09l-0.35 -0.18c0,0 -0.18,-0.09 -0.18,-0.09l-0.18 -0.09c-0.03,-0.01 -0.06,-0.03 -0.09,-0.04l-3.28 -1.64c-0.18,-0.09 0,0 -0.18,-0.09l-0.53 -0.26c-0.02,-0.01 -0.06,-0.03 -0.08,-0.05l-2.04 -1.15c-0.03,-0.01 -0.06,-0.03 -0.09,-0.04l-3.45 -2c0,0 -0.18,-0.08 -0.18,-0.08l-1.68 -1.11c-0.03,-0.02 -0.14,-0.07 -0.17,-0.09 -0.03,-0.01 -0.06,-0.03 -0.09,-0.04l-0.18 -0.08c-0.03,-0.01 -0.06,-0.03 -0.09,-0.04l-0.8 -0.53c-0.1,-0.06 -0.07,-0.03 -0.17,-0.09l-0.54 -0.39c-0.1,-0.06 -0.25,-0.13 -0.35,-0.18l-0.68 -0.38c-0.13,-0.1 -0.23,-0.18 -0.3,-0.23 -0.19,-0.12 -0.15,-0.07 -0.34,-0.19 -0.09,-0.06 -0.15,-0.12 -0.3,-0.23 -0.02,-0.02 -0.05,-0.04 -0.08,-0.06l-0.16 -0.1c-0.02,-0.01 -0.06,-0.03 -0.09,-0.05l-1.23 -0.89c-0.02,-0.02 -0.06,-0.04 -0.08,-0.05l-3.12 -2.2c-0.15,-0.09 -0.09,-0.03 -0.26,-0.14l-3.37 -2.61c-0.49,-0.29 -0.85,-0.76 -1.41,-1.11 -0.19,-0.12 -1,-0.95 -1.59,-1.33 -0.01,-0 -0.29,-0.23 -0.3,-0.23l-0.46 -0.47c-0.15,-0.16 -0.11,-0.13 -0.26,-0.27 -0.03,-0.02 -0.12,-0.1 -0.15,-0.12l-0.51 -0.29c-0.05,-0.04 -0.23,-0.2 -0.28,-0.25l-1.52 -1.53c-0.38,-0.29 0.27,0.16 -0.16,-0.11 -0.02,-0.02 -0.06,-0.03 -0.09,-0.05l-0.17 -0.09c-0.59,-0.34 -2.01,-1.92 -2.83,-2.74 -1.32,-1.32 -4.62,-4.41 -5.85,-5.84l-0.17 -0.23c-0.02,-0.02 -0.03,-0.06 -0.05,-0.09 -0.09,-0.15 -0.03,-0.09 -0.14,-0.26 -0.49,-0.79 -1.45,-1.32 -2.12,-2.39 -0.46,-0.73 -0.9,-0.86 -1.28,-1.51l-3.14 -3.9c-0.02,-0.03 -0.03,-0.06 -0.05,-0.09l-1.11 -1.41c-0.02,-0.02 -0.03,-0.06 -0.05,-0.08l-2.08 -2.84c-0.08,-0.13 -0.05,-0.07 -0.17,-0.23l-1.98 -2.8c-0.02,-0.02 -0.04,-0.06 -0.05,-0.08 -0.02,-0.02 -0.03,-0.06 -0.05,-0.08 -0.02,-0.02 -0.03,-0.06 -0.05,-0.09l-1.23 -1.95c-0.02,-0.02 -0.03,-0.06 -0.05,-0.08l-1.91 -3c-0.02,-0.04 -0.07,-0.14 -0.09,-0.18l-1.06 -1.86c-0.01,-0.03 -0.03,-0.06 -0.04,-0.09l-0.62 -0.97c-0.48,-0.81 -0.75,-1.79 -1.31,-2.54l-1.43 -2.68c-0.01,-0.03 -0.03,-0.06 -0.04,-0.09 -0.02,-0.04 -0.07,-0.14 -0.09,-0.18 -0.05,-0.1 -0.13,-0.25 -0.18,-0.35l-1.29 -2.56c-0.01,-0.03 -0.03,-0.06 -0.04,-0.09l-1.99 -4.52c-0.02,-0.04 -0.07,-0.14 -0.09,-0.17 -0.01,-0.03 -0.03,-0.06 -0.04,-0.09 -0.01,-0.03 -0.03,-0.06 -0.04,-0.09l-0.63 -1.62c-0.07,-0.23 -0.03,-0.18 -0.12,-0.41l-1.14 -2.85c-0.01,-0.03 -0.02,-0.07 -0.03,-0.1l-1.69 -4.82c-0.01,-0.03 -0.02,-0.07 -0.03,-0.1l-0.11 -0.29c-0.05,-0.13 -0.07,-0.23 -0.13,-0.4l-1.89 -6.47c-0.01,-0.03 -0.02,-0.07 -0.03,-0.1l-2.3 -10.72c-0.04,-0.59 -0.13,-0.28 -0.24,-0.82 -0.06,-0.3 0,-0.6 -0.04,-0.89 -0.13,-0.98 -0.12,0.17 -0.25,-0.81 -0.05,-0.42 0.01,-0.76 -0.14,-1.19 -0.18,-0.52 -0.05,-1.03 -0.16,-1.57 -0.13,-0.63 -0.02,-0.02 -0.15,-0.38 -0.09,-0.28 -0.06,-0.04 -0.1,-0.43 -0.04,-0.5 0.09,-1.07 -0.02,-1.57 -0.13,-0.62 -0.03,-0.02 -0.15,-0.38 -0.21,-0.62 -0,-1.25 -0.1,-1.89 -0.11,-0.73 -0.27,-0.3 -0.26,-1.87 0.01,-1.82 -0.27,-1.99 -0.27,-3.85l0.01 -3.07c-0.04,-1.13 -0.13,-0.35 -0.28,-0.78zm123.44 -146.75l8.44 0 6.05 0c0.46,0.04 0.84,0.09 1.08,0.17 1.19,0.4 2.78,-0.14 3.98,0.27 0.56,0.19 1.19,0.09 1.77,0.09 1.04,-0.01 0.98,0.29 1.98,0.28 0.49,-0.01 0.69,-0.05 1.11,0.09 0.65,0.22 1.41,0.05 2.03,0.23l0.85 0.22c1.18,0.04 1.16,0.26 1.99,0.26 1.18,0 0.83,0.17 1.47,0.25 0.17,0.02 0.35,0 0.52,0.01l2.18 0.48c0.04,0.01 0.07,0.02 0.1,0.03l2.63 0.43c0.03,0.01 0.06,0.03 0.09,0.04 0.03,0.01 0.06,0.03 0.1,0.04l5.56 1.22c0.04,0.01 0.15,0.06 0.19,0.07l0.87 0.19c0.03,0.01 0.06,0.03 0.1,0.04l0.97 0.22c0.03,0.01 0.07,0.02 0.1,0.03 0.03,0.01 0.06,0.03 0.1,0.04l0.4 0.13c0.03,0.01 0.07,0.02 0.1,0.03 0.03,0.01 0.07,0.02 0.1,0.04 0.04,0.01 0.15,0.06 0.19,0.07 0.34,0.1 0.54,0.09 0.87,0.19l0.4 0.13c0.19,0.04 0.27,0.03 0.46,0.07l12.59 4.28c0.03,0.01 0.07,0.02 0.1,0.03 0.03,0.01 0.07,0.02 0.1,0.03l4.17 1.68c0.04,0.02 0.14,0.07 0.17,0.09l2.74 1.24c0.04,0.02 0.14,0.07 0.17,0.09l2.66 1.19c0.03,0.01 0.06,0.03 0.09,0.05 0.04,0.02 0.14,0.07 0.18,0.09l0.27 0.13c0.03,0.01 0.06,0.03 0.09,0.04 0.04,0.02 0.14,0.07 0.18,0.09l0.53 0.27c0.03,0.01 0.06,0.03 0.09,0.04l0.97 0.49c0.03,0.01 0.06,0.03 0.09,0.04l0.97 0.49c0.03,0.01 0.06,0.03 0.09,0.04 0.04,0.02 0.14,0.07 0.18,0.09l0.53 0.27c0.03,0.01 0.06,0.03 0.09,0.04 0.04,0.02 0.14,0.07 0.18,0.09l2.47 1.38c0.03,0.01 0.06,0.03 0.09,0.04l1.5 0.75c0.06,0.04 0.16,0.13 0.3,0.23 0.17,0.13 0.11,0.1 0.32,0.21 0.03,0.02 0.14,0.07 0.18,0.09l0.61 0.32c0,0 0.29,0.24 0.29,0.24 0.02,0.02 0.05,0.04 0.08,0.05l0.88 0.45c0.04,0.02 0.14,0.07 0.18,0.09l0.65 0.42c0.02,0.02 0.05,0.04 0.08,0.06l0.34 0.2c0.02,0.02 0.06,0.03 0.08,0.05l1.79 1.14c0.02,0.02 0.06,0.03 0.08,0.05l1.35 0.9c0.17,0.13 0.11,0.1 0.32,0.21l0.79 0.41c0,0 0.29,0.23 0.3,0.24 0.02,0.02 0.06,0.04 0.08,0.05l10.09 7.44c0.02,0.02 0.06,0.03 0.09,0.05 0.03,0.02 0.06,0.03 0.09,0.05l1.24 1.02c0,0 0.17,0.09 0.17,0.09l0.77 0.69c0.05,0.05 0.25,0.26 0.26,0.27l2.16 1.83c0.91,0.57 1.5,1.56 2.39,2.12l0.26 0.14c0.02,0.02 0.06,0.03 0.09,0.05 0.76,0.48 4.11,4.06 5.01,4.95 1.02,1.02 3.6,3.34 4.07,4.16l0.57 0.75c0.09,0.09 0.18,0.18 0.27,0.26l4.3 5c0.3,0.51 0.78,0.89 1.11,1.41 0.3,0.47 0.74,0.77 1.02,1.24 0.02,0.03 0.03,0.06 0.05,0.09 0.02,0.02 0.03,0.06 0.05,0.08l0.56 0.63c0.02,0.02 0.03,0.06 0.05,0.09 0.03,0.05 0.06,0.12 0.09,0.17l1.34 1.71c0.02,0.02 0.04,0.05 0.06,0.08l2.32 3.26c0.02,0.02 0.03,0.06 0.05,0.08l2.25 3.19c0.01,0.02 0.13,0.26 0.13,0.27 0.02,0.04 0.07,0.15 0.08,0.18 0.47,0.97 1.31,1.77 1.78,2.74l1.86 3.19c0.02,0.02 0.04,0.06 0.05,0.08l1.32 2.14c0.01,0.03 0.03,0.06 0.04,0.09l0.44 0.89c0.01,0.03 0.03,0.06 0.04,0.09l1.37 2.48c0.01,0.03 0.03,0.06 0.04,0.09 0.02,0.04 0.07,0.14 0.09,0.18l0.18 0.35c0.02,0.04 0.07,0.14 0.09,0.18l0.18 0.35c0.02,0.04 0.07,0.14 0.09,0.18l0.18 0.35c0.02,0.04 0.07,0.14 0.09,0.18l0.4 0.8c0.02,0.04 0.07,0.14 0.09,0.18 0.01,0.03 0.03,0.06 0.04,0.09 0.01,0.03 0.03,0.06 0.04,0.09l0.35 0.71c0.01,0.03 0.03,0.06 0.04,0.09 0.05,0.11 0.03,0.07 0.09,0.18l0.18 0.35c0.05,0.11 0.03,0.07 0.09,0.18l0.53 1.06c0.01,0.03 0.03,0.06 0.04,0.09l2.65 6.11c0.02,0.04 0.07,0.14 0.09,0.17l0.79 1.86c0.01,0.03 0.02,0.07 0.03,0.1l0.42 1.31c0.01,0.03 0.03,0.07 0.04,0.1l0.63 1.62c0.07,0.23 0.04,0.19 0.12,0.41l0.54 1.32c0.01,0.03 0.02,0.07 0.04,0.1l0.6 1.79c0.01,0.03 0.02,0.07 0.03,0.1l0.46 1.4c0.01,0.03 0.02,0.07 0.03,0.1 0.01,0.03 0.02,0.07 0.03,0.1l0.16 0.5c0.01,0.03 0.02,0.07 0.04,0.1 0.01,0.03 0.02,0.07 0.03,0.1l0.5 1.49c0.1,0.32 0.05,0.23 0.11,0.56l0.49 1.51c0.01,0.03 0.02,0.07 0.03,0.1l0.57 2.22c0.13,0.61 -0.02,-0.03 0.13,0.4l1.2 4.64c0.01,0.04 0.02,0.07 0.03,0.11l0.22 1.11c0.1,0.74 0.36,1.12 0.49,1.77 0.05,0.24 0.01,0.39 0.04,0.62 0.08,0.58 0.07,0.27 0.12,0.41 0.05,0.14 0.04,-0.17 0.12,0.41l0.94 5.43c0.01,0.03 0.03,0.06 0.04,0.09 0.19,0.56 0,1.13 0.18,1.67l0.44 2.88c-0.01,0.49 -0.05,0.69 0.09,1.11 0.22,0.65 0.06,1.52 0.27,2.12 0.01,0.03 0.03,0.06 0.04,0.09 0.01,0.03 0.03,0.06 0.04,0.09l0.1 0.56c0.02,0.59 -0.09,1.73 0.02,2.24 0.25,1.14 0.24,0.46 0.24,2.02 -0,0.36 -0.01,0.72 -0.01,1.07l0.14 0.92c0.04,0.12 0.02,-0.11 0.11,0.29 0.01,0.05 0.02,0.11 0.03,0.18l0 8.42 0 6.05c-0.04,0.46 -0.09,0.84 -0.17,1.08 -0.14,0.4 -0.1,1.03 -0.09,1.5 0,0.6 0.02,1.69 -0.13,2.13l-0.14 0.53c-0.07,0.8 0.1,2.02 -0.13,2.66l-0.14 0.92c0.01,0.99 -0.26,1.1 -0.27,1.99 -0,0.39 0.06,0.78 -0.05,1.15 -0.01,0.03 -0.03,0.06 -0.04,0.1l-0.12 0.28c-0.07,0.23 -0.05,0.21 -0.06,0.47 -0.02,0.83 -0.1,0.85 -0.23,1.5l-0.03 1.16c-0.09,0.67 -0.05,0.18 -0.12,0.4 -0.17,0.48 -0.08,0.8 -0.34,1.78l-0.23 1.23c-0.13,0.41 -0.04,0.8 -0.12,1.21 -0.13,0.63 -0.03,0.03 -0.14,0.39 -0.15,0.46 -0.05,0.69 -0.19,1.14l-0.19 0.74c-0.05,0.26 -0.02,0.13 -0.08,0.32l-1.29 5.74c-0.01,0.03 -0.02,0.07 -0.03,0.1l-1.26 4.58c-0.01,0.03 -0.02,0.07 -0.03,0.1l-0.34 0.99c-0.01,0.03 -0.02,0.06 -0.04,0.1l-0.39 1.47c-0.01,0.03 -0.02,0.07 -0.03,0.1l-1.36 4.08c-0.01,0.04 -0.06,0.15 -0.07,0.2 -0.01,0.03 -0.02,0.07 -0.03,0.1 -0.01,0.03 -0.02,0.07 -0.03,0.1l-0.06 0.21c-0.01,0.03 -0.02,0.07 -0.03,0.1l-0.64 1.62c-0.01,0.03 -0.02,0.07 -0.03,0.1l-0.72 1.93c-0.01,0.03 -0.03,0.06 -0.04,0.09 -0.01,0.03 -0.02,0.07 -0.03,0.1l-0.26 0.8c-0.05,0.17 -0.06,0.25 -0.12,0.41l-1.33 3.19c-0.01,0.03 -0.02,0.07 -0.03,0.1l-1.64 3.54c-0.01,0.03 -0.03,0.06 -0.04,0.09l-1.86 3.98c-0.05,0.1 -0.13,0.25 -0.18,0.35 -0.02,0.04 -0.07,0.14 -0.09,0.18 -0.16,0.32 0.13,-0.25 -0.09,0.18 -0.01,0.03 -0.03,0.06 -0.05,0.09l-0.49 0.97c-0.01,0.03 -0.03,0.06 -0.04,0.09 -0.01,0.03 -0.03,0.06 -0.04,0.09l-0.22 0.44c-0.01,0.03 -0.03,0.06 -0.04,0.09l-0.09 0.18c-0.01,0.03 -0.03,0.06 -0.04,0.09l-0.84 1.69c-0.12,0.21 -0.08,0.15 -0.21,0.32 -0.41,0.54 -0.59,1.15 -0.95,1.71l-0.35 0.45c-0.06,0.1 -0.13,0.24 -0.18,0.35l-1.32 2.4c-0.02,0.04 -0.07,0.14 -0.09,0.18l-1.37 2.21c-0.02,0.04 -0.07,0.14 -0.09,0.17l-4.06 6.03c-0.02,0.02 -0.04,0.06 -0.05,0.08l-0.72 1.14c-0.28,0.43 0.19,-0.22 -0.11,0.16l-1.88 2.51c-0.02,0.02 -0.03,0.06 -0.05,0.09l-0.46 0.6c-0.74,0.72 -1.18,1.74 -1.93,2.45l-0.44 0.49c-0.02,0.02 -0.03,0.06 -0.05,0.09l-1.15 1.5c-0.01,0.02 -0.03,0.06 -0.05,0.09l-1.33 1.59c-0.14,0.23 -0.4,0.45 -0.57,0.62 -1.05,1.03 -0.96,1.25 -2.39,2.65l-0.62 0.71c-0.02,0.03 -0.07,0.14 -0.09,0.18l-0.1 0.17c-0.54,0.78 -1.92,1.95 -2.65,2.67 -1.19,1.19 -5.6,5.85 -6.42,6.33l-0.42 0.24c-0.29,0.23 -0.1,0.09 -0.33,0.33l-1.72 1.6c-0.03,0.01 -0.06,0.03 -0.09,0.05l-0.84 0.75c-0.09,0.09 -0.18,0.18 -0.26,0.27l-0.75 0.57c-0.02,0.02 -0.06,0.03 -0.08,0.05l-1.17 1.09c-0.02,0.02 -0.06,0.04 -0.08,0.05l-4.43 3.41c-0.19,0.2 -0.34,0.4 -0.62,0.58l-1.86 1.33c-0.02,0.02 -0.06,0.03 -0.09,0.05 -0.15,0.09 -0.08,0.03 -0.26,0.14l-1.52 1.14c-0.02,0.02 -0.06,0.03 -0.08,0.05l-0.26 0.14c-0.02,0.02 -0.06,0.04 -0.08,0.05l-2.95 2.1c-0.02,0.02 -0.05,0.04 -0.08,0.05l-3.54 2.17c-0.04,0.02 -0.14,0.07 -0.17,0.09l-0.16 0.1c-0,0 -0.29,0.23 -0.3,0.24l-1.4 0.86c-0.07,0.03 -0.17,0.08 -0.27,0.13l-0.62 0.31c-0.02,0.02 -0.06,0.04 -0.08,0.05l-1.25 0.74c-0.06,0.04 -0.17,0.14 -0.3,0.23l-1.12 0.6c-0.03,0.01 -0.06,0.03 -0.09,0.04l-0.54 0.26c-0.03,0.01 -0.06,0.03 -0.09,0.04l-2.65 1.47c-0.03,0.01 -0.06,0.03 -0.09,0.04l-0.18 0.09c-0.04,0.02 -0.14,0.07 -0.18,0.09 -0.03,0.01 -0.06,0.03 -0.09,0.04 -0.03,0.01 -0.06,0.03 -0.09,0.05 -0.03,0.01 -0.06,0.03 -0.09,0.04l-6.55 3.14c-0.03,0.01 -0.06,0.03 -0.09,0.04 -0.03,0.01 -0.06,0.03 -0.09,0.04l-1.08 0.52c-0.03,0.01 -0.07,0.02 -0.1,0.03l-6.79 2.78c-0.03,0.01 -0.06,0.03 -0.09,0.04 -0.03,0.01 -0.06,0.03 -0.1,0.04l-0.8 0.26c-0.03,0.01 -0.07,0.02 -0.1,0.03l-4.52 1.6c-0.03,0.01 -0.07,0.02 -0.1,0.03l-0.6 0.2c-0.03,0.01 -0.07,0.02 -0.1,0.03 -0.03,0.01 -0.07,0.02 -0.1,0.03l-3.45 1.06c-0.03,0.01 -0.07,0.02 -0.1,0.03l-2.06 0.59c-0.03,0.01 -0.07,0.02 -0.1,0.03l-0.19 0.07c-0.03,0.01 -0.07,0.02 -0.1,0.03 -0.03,0.01 -0.07,0.02 -0.11,0.03l-0.86 0.2c-0.1,0.03 -0.25,0.08 -0.4,0.13l-0.29 0.11c-0.03,0.01 -0.06,0.03 -0.1,0.04 -0.03,0.01 -0.07,0.02 -0.1,0.03 -0.23,0.06 -0.24,0.03 -0.45,0.08 -0.04,0.01 -0.07,0.01 -0.11,0.02 -0.04,0.01 -0.07,0.02 -0.11,0.03l-2.22 0.56c-0.04,0.01 -0.15,0.06 -0.19,0.07l-0.96 0.23c-0.11,0.04 0.12,0.04 -0.41,0.12l-1.45 0.27c-0.2,0.02 -0.28,-0.01 -0.5,0.04 -0.63,0.12 -0.02,0.02 -0.39,0.14l-0.66 0.13c-0.04,0.01 -0.07,0.02 -0.11,0.03l-0.19 0.07c-0.11,0.03 0.12,0.04 -0.41,0.12 -0.18,0.02 -0.33,0 -0.5,0.03 -0.94,0.13 0.15,0.17 -0.94,0.25l-1.85 0.27c-0.42,0.04 -0.11,-0.02 -0.44,0.09 -0.36,0.11 0.24,0.02 -0.39,0.15 -0.4,0.08 -0.7,-0.03 -1.11,0.08l-0.85 0.22c-0.52,0.02 -0.64,-0.07 -1.11,0.09l-0.88 0.18c-0.2,0 -0.47,-0.02 -0.66,0 -0.67,0.09 -0.17,0.04 -0.41,0.13l-0.92 0.14c-0.75,-0.01 -0.9,0.11 -1.49,0.23 -0.61,0.13 -1.24,-0.05 -1.83,0.16l-0.65 0.14c-0.59,0.02 -1.73,-0.09 -2.24,0.02l-0.48 0.18c-1.05,0.3 -2.6,-0.14 -3.53,0.19 -0.12,0.04 0.11,0.02 -0.29,0.11 -0.09,0.02 -0.11,0.02 -0.11,0.03l0 0c0,-0 0.01,-0.01 -0.07,0l-12.95 0c-3.39,0 -1.83,-0.27 -4.12,-0.27 -2.56,0.01 -1.8,-0.2 -2.65,-0.27 -0.74,-0.06 -1.52,0.11 -2.26,-0 -0.88,-0.13 0.07,-0.13 -0.81,-0.25 -0.11,-0.02 -0.4,-0.01 -0.52,-0.01 -0.99,0.01 -1.1,-0.26 -1.99,-0.27 -0.49,-0 -0.89,0.03 -1.34,-0.12 -0.03,-0.01 -0.06,-0.03 -0.09,-0.04 -0.03,-0.01 -0.06,-0.03 -0.1,-0.04 -0.53,-0.15 -1.07,0.02 -1.58,-0.15l-0.88 -0.18c-1.18,-0 -0.83,-0.17 -1.47,-0.25 -0.17,-0.02 -0.35,0 -0.52,-0.01l-3.68 -0.71c-0.45,-0.14 -0.61,-0.04 -1.04,-0.15 -0.03,-0.01 -0.07,-0.02 -0.1,-0.04l-16.03 -4.29c-0.03,-0.01 -0.07,-0.02 -0.1,-0.04l-1.69 -0.57c-0.03,-0.01 -0.07,-0.02 -0.1,-0.03 -0.17,-0.05 -0.27,-0.08 -0.4,-0.13l-0.89 -0.3c-0.03,-0.01 -0.07,-0.02 -0.1,-0.03l-1.32 -0.54c-0.03,-0.01 -0.07,-0.02 -0.1,-0.03 -0.03,-0.01 -0.07,-0.02 -0.1,-0.03l-0.6 -0.2c-0.03,-0.01 -0.07,-0.02 -0.1,-0.03l-0.69 -0.24c-0.03,-0.01 -0.06,-0.03 -0.09,-0.05l-0.35 -0.18c-0.03,-0.01 -0.06,-0.03 -0.09,-0.04l-1.41 -0.45c-0.03,-0.01 -0.07,-0.03 -0.09,-0.04l-0.53 -0.27c-0.03,-0.01 -0.06,-0.03 -0.1,-0.04l-0.41 -0.12c-0.03,-0.01 -0.07,-0.02 -0.1,-0.03l-0.28 -0.11c-0.02,-0.01 -0.31,-0.16 -0.35,-0.18 -0.04,-0.02 -0.14,-0.07 -0.17,-0.09l-1.24 -0.48c-0.03,-0.01 -0.06,-0.03 -0.09,-0.04 -0.03,-0.01 -0.06,-0.03 -0.09,-0.04l-2.21 -0.98c-0.03,-0.01 -0.06,-0.03 -0.09,-0.05l-0.35 -0.18c-0.03,-0.01 -0.06,-0.03 -0.09,-0.04l-1.77 -0.75c-0.39,-0.2 0.22,0.11 -0.18,-0.09l-3.72 -1.86c-0.1,-0.05 -0.25,-0.13 -0.35,-0.18l-1.33 -0.66c-0.04,-0.02 -0.14,-0.07 -0.18,-0.09l-1.83 -0.96c-0.13,-0.1 -0.23,-0.19 -0.3,-0.23 -0.15,-0.1 -0.08,-0.05 -0.26,-0.14l-3.38 -1.93c-0.02,-0.02 -0.05,-0.04 -0.08,-0.05l-0.44 -0.23c-0.03,-0.01 -0.06,-0.03 -0.09,-0.04l-2.21 -1.37c-0.03,-0.02 -0.14,-0.07 -0.17,-0.09l-0.18 -0.08c-0.03,-0.01 -0.06,-0.03 -0.09,-0.04l-3.64 -2.33c-0.02,-0.02 -0.06,-0.04 -0.08,-0.05l-2.28 -1.57c-0.01,-0 -0.29,-0.23 -0.3,-0.23l-3.97 -2.8c-0.02,-0.01 -0.06,-0.03 -0.09,-0.05l-0.51 -0.42c-0.21,-0.22 -0.3,-0.35 -0.55,-0.51 -0.2,-0.13 -0.15,-0.06 -0.35,-0.18l-0.98 -0.75c-0.45,-0.27 -0.97,-0.86 -1.07,-0.92l-0.35 -0.18c-0.27,-0.17 -0.38,-0.4 -1.41,-1.11 -0.06,-0.04 -0.23,-0.2 -0.28,-0.25l-1.85 -1.6c-0.63,-0.64 -1.23,-0.95 -1.79,-1.53l-1.91 -1.67c-0.03,-0.02 -0.12,-0.09 -0.15,-0.12 -0.16,-0.14 -0.11,-0.1 -0.26,-0.27 -1.44,-1.48 -8.04,-7.79 -8.54,-8.59l-0.14 -0.26c-0.29,-0.5 -1.79,-1.8 -2.08,-2.3 -0.01,-0.03 -0.03,-0.06 -0.05,-0.09 -0.01,-0.02 -0.03,-0.06 -0.05,-0.09l-2.23 -2.55c-0.17,-0.16 -0.23,-0.21 -0.34,-0.33 -0.03,-0.03 -0.1,-0.11 -0.12,-0.15l-1.3 -1.76c-0,-0 -0.23,-0.29 -0.23,-0.3l-0.64 -0.69c-0.02,-0.02 -0.03,-0.06 -0.05,-0.09 -0.03,-0.05 -0.06,-0.12 -0.09,-0.17l-0.61 -0.72c-0.02,-0.02 -0.04,-0.06 -0.05,-0.08l-0.24 -0.43c-0.04,-0.06 -0.19,-0.23 -0.25,-0.28l-1 -1.26c-0.12,-0.12 -0.2,-0.18 -0.32,-0.34l-1.85 -2.66c-0.02,-0.02 -0.04,-0.06 -0.05,-0.08 -0.02,-0.02 -0.03,-0.06 -0.05,-0.08l-1.47 -2.11c-0.04,-0.05 -0.26,-0.33 -0.29,-0.38l-0.63 -0.96c-0.09,-0.15 -0.04,-0.09 -0.14,-0.25 -0.02,-0.02 -0.04,-0.06 -0.05,-0.08 -0.02,-0.02 -0.04,-0.05 -0.06,-0.08 -0.11,-0.15 -0.18,-0.22 -0.23,-0.3 -0.06,-0.1 -0.13,-0.24 -0.18,-0.35 -0.39,-0.81 -0.98,-1.41 -1.37,-2.22l-3.45 -5.84c-0.01,-0.03 -0.03,-0.06 -0.05,-0.09 -0.01,-0.03 -0.03,-0.06 -0.04,-0.09 -0.09,-0.18 0,0.01 -0.09,-0.18 -0.53,-1.08 -0.31,-0.33 -0.85,-1.41l-1.41 -2.84c-0.01,-0.03 -0.03,-0.06 -0.04,-0.09l-0.31 -0.62c-0.33,-0.66 0.14,0.29 -0.09,-0.18l-0.35 -0.71c-0.05,-0.1 -0.13,-0.25 -0.18,-0.35l-0.35 -0.71c-0.01,-0.03 -0.03,-0.06 -0.04,-0.09l-1.59 -3.45c-0.05,-0.11 -0.03,-0.07 -0.09,-0.18l-0.09 -0.18c-0.01,-0.03 -0.03,-0.06 -0.04,-0.09l-1.59 -3.72c-0.01,-0.03 -0.03,-0.06 -0.05,-0.09 -0.01,-0.03 -0.03,-0.06 -0.05,-0.09l-0.17 -0.36c-0.08,-0.23 -0.05,-0.19 -0.12,-0.41l-0.6 -1.52c-0.01,-0.04 -0.06,-0.15 -0.07,-0.2l-1.63 -4.35c-0.05,-0.15 -0.07,-0.25 -0.13,-0.41 -0.01,-0.03 -0.02,-0.07 -0.03,-0.1l-1.56 -4.68c-0.01,-0.03 -0.02,-0.07 -0.04,-0.1l-0.18 -0.75c-0.01,-0.04 -0.01,-0.07 -0.02,-0.11l-0.4 -1.2c-0.01,-0.03 -0.02,-0.07 -0.03,-0.1l-0.13 -0.4c-0.01,-0.03 -0.02,-0.07 -0.04,-0.1 -0.01,-0.03 -0.03,-0.06 -0.04,-0.1l-0.56 -2.23c-0.03,-0.1 -0.08,-0.25 -0.13,-0.4l-0.27 -1.06c-0.01,-0.04 -0.02,-0.07 -0.03,-0.11l-0.17 -0.5c-0.01,-0.04 -0.01,-0.07 -0.02,-0.11 -0.07,-0.32 -0.02,-0.24 -0.11,-0.55 -0.01,-0.04 -0.06,-0.15 -0.07,-0.19l-0.13 -0.67c-0.01,-0.04 -0.02,-0.07 -0.03,-0.1 -0.01,-0.03 -0.02,-0.07 -0.03,-0.1l-1.25 -5.79c-0.13,-0.94 -0.17,0.15 -0.25,-0.94l-0.27 -1.85c-0.06,-0.57 -0.12,-0.28 -0.23,-0.83 -0.08,-0.42 0.02,-0.78 -0.12,-1.21 -0.2,-0.62 -0.07,-1.27 -0.27,-1.86l-0.31 -1.95c-0.08,-0.22 -0.03,0.25 -0.13,-0.4 -0.02,-0.11 -0.01,-0.39 -0.01,-0.52 0.01,-0.99 -0.27,-1.1 -0.27,-1.99 -0,-0.44 0.05,-0.84 -0.08,-1.24l-0.18 -0.75c-0.03,-0.7 0.12,-1.57 -0.08,-2.17 -0.12,-0.37 -0.06,0.26 -0.17,-0.5 -0.15,-1.04 0.14,-2.13 -0.01,-3.17 -0.12,-0.8 -0.09,-0.02 -0.23,-0.7 -0.02,-0.09 -0.02,-0.11 -0.03,-0.11l0 0c0,0 0.01,0.01 0,-0.07l0 -12.95 0 -2.04c0.01,-0.07 0.02,-0.14 0.03,-0.19 0.13,-0.62 0.03,-0.02 0.15,-0.38 0.4,-1.19 -0.14,-2.78 0.27,-3.98 0.19,-0.56 0.09,-1.19 0.09,-1.77l0.14 -1.06c0.14,-0.38 0.07,-1.56 0.22,-2.03 0.22,-0.65 0.06,-1.52 0.27,-2.12 0.01,-0.03 0.03,-0.06 0.04,-0.09 0.01,-0.03 0.03,-0.06 0.04,-0.09l0.1 -0.56c0.04,-1.18 0.26,-1.16 0.26,-1.99 0,-1.05 0.22,-0.99 0.26,-2l0.33 -1.8c0.01,-0.03 0.02,-0.07 0.04,-0.1l0.08 -0.19c0.01,-0.03 0.03,-0.06 0.04,-0.1l1.65 -8.05c0.06,-0.32 0.01,-0.15 0.1,-0.43 0.01,-0.04 0.06,-0.16 0.07,-0.19l1.89 -6.74c0.06,-0.23 0.03,-0.24 0.08,-0.45l1.11 -3.41c0.01,-0.03 0.02,-0.07 0.03,-0.1 0.01,-0.03 0.02,-0.07 0.04,-0.1l1.13 -3.38c0.01,-0.03 0.02,-0.07 0.03,-0.1 0.01,-0.04 0.05,-0.17 0.06,-0.21 0.01,-0.03 0.02,-0.07 0.03,-0.1 0.01,-0.03 0.02,-0.07 0.03,-0.1l0.53 -1.33c0.01,-0.03 0.03,-0.07 0.04,-0.1l0.5 -1.23c0.01,-0.03 0.02,-0.07 0.03,-0.1 0.01,-0.03 0.02,-0.07 0.04,-0.1l2.48 -6.02c0.01,-0.03 0.03,-0.06 0.05,-0.09l1.2 -2.65c0.05,-0.1 0.12,-0.25 0.18,-0.35l3.27 -6.55c0.02,-0.04 0.07,-0.14 0.09,-0.18l0.89 -1.5c0.01,-0.03 0.03,-0.06 0.05,-0.09 0.01,-0.03 0.03,-0.06 0.04,-0.09 0.01,-0.03 0.03,-0.06 0.04,-0.09l1.82 -3.1c0.01,-0.03 0.03,-0.06 0.04,-0.09 0.05,-0.1 0.1,-0.2 0.13,-0.27 0.02,-0.04 0.07,-0.14 0.09,-0.18 0.05,-0.1 0.12,-0.25 0.18,-0.35l4.36 -6.8c0.22,-0.27 0.29,-0.23 0.5,-0.56l2.53 -3.71c0.02,-0.02 0.03,-0.06 0.05,-0.09 0.02,-0.02 0.04,-0.06 0.05,-0.08 0.02,-0.03 0.1,-0.12 0.12,-0.15l1 -1.26c0.03,-0.03 0.23,-0.28 0.24,-0.29l2.22 -2.83c0.2,-0.35 0.54,-0.53 0.92,-1.07 0.02,-0.02 0.04,-0.06 0.05,-0.08l0.14 -0.26c0.23,-0.39 0.64,-0.7 0.96,-1.04 0,-0 0.23,-0.29 0.23,-0.3 0.12,-0.2 0.06,-0.15 0.18,-0.35 0.29,-0.46 0.74,-0.77 1.11,-1.15 0.1,-0.1 0.21,-0.22 0.3,-0.36 0.12,-0.2 0.06,-0.15 0.18,-0.35 0.55,-0.87 1.6,-1.48 2.08,-2.3l0.22 -0.31c1.14,-1.33 3.45,-3.44 4.79,-4.78 0.75,-0.75 1.5,-1.51 2.26,-2.26l1.39 -1.4c0.29,-0.3 -0.07,0 0.27,-0.26 0.35,-0.27 0.62,-0.36 1.26,-1 1.47,-1.48 0.98,-0.89 1.79,-1.53 0.54,-0.42 0.93,-1.06 1.53,-1.4l0.6 -0.46c0.14,-0.15 0.12,-0.13 0.26,-0.27l0.64 -0.55c0.49,-0.29 0.75,-0.71 1.24,-1.02l1.76 -1.3c0.03,-0.02 0.12,-0.09 0.15,-0.12l7.39 -5.49c0.19,-0.12 0.15,-0.06 0.34,-0.19 0.05,-0.03 0.33,-0.25 0.38,-0.29l5.21 -3.29c0.02,-0.01 0.06,-0.03 0.09,-0.05 0.02,-0.02 0.06,-0.03 0.09,-0.05l1.42 -0.84c0.03,-0.01 0.06,-0.03 0.09,-0.04 0.03,-0.01 0.06,-0.03 0.09,-0.04l0.88 -0.58c0.02,-0.01 0.26,-0.13 0.27,-0.13 0.38,-0.18 -0.19,0.1 0.18,-0.08 0.1,-0.05 0.25,-0.12 0.35,-0.18l1.07 -0.66c0.18,-0.09 -0,0 0.18,-0.09 0.03,-0.01 0.06,-0.03 0.09,-0.05l0.44 -0.22c1.05,-0.51 0.55,-0.41 1.86,-1.06l0.89 -0.44c0.04,-0.02 0.14,-0.07 0.18,-0.09l0.27 -0.13c0.03,-0.01 0.06,-0.03 0.09,-0.04 0.04,-0.02 0.14,-0.07 0.18,-0.09l0.27 -0.13c0.03,-0.01 0.06,-0.03 0.09,-0.04 0.04,-0.02 0.14,-0.07 0.18,-0.09l0.27 -0.13c0.03,-0.01 0.06,-0.03 0.09,-0.04 0.04,-0.02 0.14,-0.07 0.18,-0.09l1.86 -0.93c0.03,-0.01 0.06,-0.03 0.09,-0.04 0.04,-0.02 0.14,-0.07 0.18,-0.09l0.27 -0.13c0.03,-0.01 0.06,-0.03 0.09,-0.04l0.53 -0.27c0,0 0.18,-0.09 0.18,-0.09l2.22 -0.97c0.04,-0.02 0.14,-0.07 0.17,-0.09l1.53 -0.73c0.23,-0.07 0.18,-0.04 0.41,-0.12l0.54 -0.26c0.03,-0.01 0.06,-0.03 0.09,-0.05l0.62 -0.31c0.03,-0.01 0.07,-0.02 0.1,-0.03l3.99 -1.59c0.03,-0.01 0.07,-0.02 0.1,-0.03l3.25 -1.26c0.03,-0.01 0.07,-0.02 0.1,-0.03 0.15,-0.05 0.25,-0.07 0.41,-0.13l3.38 -1.13c0.03,-0.01 0.07,-0.02 0.1,-0.04 0.03,-0.01 0.07,-0.02 0.1,-0.03 0.03,-0.01 0.07,-0.02 0.1,-0.03l2.74 -0.84c0.04,-0.01 0.07,-0.01 0.11,-0.02l1.89 -0.63c0.03,-0.01 0.07,-0.03 0.1,-0.04l1.17 -0.3c0.03,-0.01 0.07,-0.02 0.11,-0.03l3.98 -1.06c0.19,-0.04 0.27,-0.03 0.46,-0.07l0.95 -0.25c0.47,-0.09 0.2,-0.15 0.83,-0.24l5.17 -1.08c0.5,-0.04 0.5,0.06 0.97,-0.09 0.37,-0.12 -0.25,-0.01 0.39,-0.14l0.94 -0.12c0.36,-0.11 -0.25,-0.02 0.39,-0.14 0.48,-0.1 0.91,-0.04 1.39,-0.2l0.56 -0.1c0.52,-0.02 0.64,0.07 1.11,-0.09 0.37,-0.12 -0.24,-0.01 0.38,-0.15l1.57 -0.16c0.38,-0.13 1.56,-0.06 2.03,-0.22 0.36,-0.12 -0.24,-0.01 0.38,-0.15 0.54,-0.12 1.13,0.06 1.64,-0.08 1.64,-0.46 2.12,0 3.02,-0.3 1.05,-0.35 2.69,0.05 3.89,-0.23l0.19 -0.08c0.13,-0.08 0.29,-0.12 0.46,-0.13z"></path> <path class="fil0" d="M199.21 144.89c-0.04,0.12 0.02,0.27 -0.08,0.58 -0.01,0.03 -0.03,0.06 -0.04,0.09 -0.01,0.03 -0.03,0.06 -0.04,0.09l-0.19 0.35c-0.01,0.03 -0.03,0.06 -0.05,0.09l-0.79 1.33 -1.91 1.54c-0.15,0.09 -0.09,0.04 -0.26,0.14 -0.11,0.07 -0.34,0.27 -0.46,0.34l-1.05 0.67c-0.02,0.02 -0.06,0.03 -0.08,0.05l-0.46 0.34c-0.02,0.02 -0.06,0.03 -0.08,0.05 -0.15,0.09 -0.09,0.04 -0.26,0.14l-0.71 0.48c-0.02,0.02 -0.06,0.03 -0.08,0.05l-5.73 3.83c-0.07,0.05 -0.21,0.17 -0.22,0.18 -0.02,0.02 -0.06,0.04 -0.08,0.05l-0.26 0.14c-0.02,0.02 -0.06,0.03 -0.08,0.05l-1.25 0.87c-0.02,0.02 -0.06,0.03 -0.08,0.05l-0.17 0.09c-0.02,0.01 -0.06,0.03 -0.08,0.05l-2.05 1.4c-0.02,0.02 -0.06,0.03 -0.08,0.05l-0.17 0.09c-0.02,0.02 -0.06,0.03 -0.08,0.05l-1.51 1.01c-0.02,0.02 -0.06,0.03 -0.08,0.05l-2.31 1.55c-0.02,0.01 -0.06,0.03 -0.08,0.05l-1.25 0.87c-0.02,0.02 -0.06,0.03 -0.08,0.05l-0.34 0.2c-0.01,0.01 -0.15,0.12 -0.22,0.18l-1.75 1.17c-0.02,0.02 -0.06,0.03 -0.08,0.05l-0.71 0.48c-0.16,0.11 -0.11,0.05 -0.25,0.14l-0.54 0.39c-0.02,0.02 -0.06,0.03 -0.08,0.05l-2.87 1.91c-0.15,0.11 -0.1,0.09 -0.23,0.17 -0.16,0.1 -0.11,0.05 -0.25,0.14 -0.02,0.02 -0.06,0.03 -0.08,0.05l-0.16 0.11c-0.07,0.05 -0.21,0.17 -0.22,0.18l-0.34 0.2c-0.02,0.01 -0.06,0.03 -0.08,0.05 -0.02,0.02 -0.06,0.04 -0.08,0.05 -0.05,0.03 -0.32,0.25 -0.38,0.29l-0.8 0.53c-0.02,0.02 -0.06,0.03 -0.08,0.05l-7.58 5.03c-0.07,0.05 -0.21,0.17 -0.22,0.18l-1.67 1.11c-0.02,0.02 -0.06,0.03 -0.08,0.05l-1.05 0.67c-0.13,0.08 -0.07,0.05 -0.23,0.17l-4.71 3.13c-0.03,0.02 -0.11,0.1 -0.15,0.12l-1.75 1.17c-0.02,0.02 -0.06,0.03 -0.08,0.05l-0.17 0.09c-0.02,0.02 -0.06,0.03 -0.08,0.05l-3.1 2.08c-0.02,0.02 -0.06,0.03 -0.08,0.05l-2.31 1.55c-0.02,0.02 -0.06,0.03 -0.08,0.05l-2.31 1.55c-0.02,0.01 -0.06,0.03 -0.08,0.05l-2.05 1.4c-0.02,0.02 -0.06,0.03 -0.08,0.05l-0.71 0.48c-0.02,0.02 -0.06,0.03 -0.08,0.05l-1.77 1.16c-0.02,0.02 -0.06,0.03 -0.08,0.05l-6.04 4.06c-0.02,0.02 -0.06,0.03 -0.08,0.05l-2.39 1.59c-0.15,0.09 -0.09,0.04 -0.26,0.14l-0.71 0.48c-0.02,0.02 -0.06,0.03 -0.08,0.05l-1.34 0.92c-0.15,0.09 -0.09,0.04 -0.26,0.14l-0.71 0.48c-0.02,0.02 -0.06,0.03 -0.08,0.05l-2.14 1.45c-0.02,0.02 -0.06,0.03 -0.09,0.05l-1.93 1.13c-0.03,0.01 -0.07,0.02 -0.1,0.03 -0.49,0.16 -0.72,0.38 -1.42,0.44 -1.32,0.11 -2.29,-0.07 -3.37,-0.62 -0.33,-0.17 0.15,0.08 -0.18,-0.09 -0.08,-0.04 -0.15,-0.08 -0.27,-0.13l-0.77 -0.42c-0.19,-0.15 -0.11,-0.1 -0.2,-0.19 0,-0 -0.15,-0.16 -0.19,-0.2 -0.36,-0.37 -0.68,-0.62 -0.91,-1.08 -0.01,-0.03 -0.03,-0.06 -0.04,-0.09l-0.17 -0.36c-0.01,-0.03 -0.03,-0.06 -0.04,-0.09 -0.01,-0.03 -0.03,-0.06 -0.04,-0.09l-0.51 -1.22c-0.35,-1.02 -0.2,-2.24 -0.2,-3.39l0 -96.42c0,-2.73 -0.11,-2.65 0.88,-4.69l0.22 -0.45c0.42,-0.74 1.28,-1.37 2,-1.72l1.67 -0.72c0.09,-0.03 -0.05,-0.03 0.3,-0.1 0.14,-0.03 0.22,-0.03 0.36,-0.04 1.34,-0.05 1.74,0.06 2.9,0.44l1.06 0.53c0.02,0.02 0.06,0.03 0.08,0.05 0.14,0.09 0.09,0.04 0.25,0.14 0.12,0.07 0.34,0.26 0.46,0.34l2.31 1.54c0.02,0.02 0.06,0.04 0.08,0.05l2.01 1.31c0.02,0.02 0.05,0.04 0.07,0.06l3.83 2.55c0.02,0.02 0.06,0.04 0.08,0.05l2.23 1.49c0.02,0.02 0.06,0.03 0.08,0.05l6.37 4.25c0.13,0.08 0.07,0.06 0.23,0.17 0.15,0.11 0.1,0.09 0.23,0.17l0.72 0.48c0.02,0.02 0.06,0.04 0.08,0.05l2.39 1.59c0.02,0.02 0.06,0.03 0.08,0.05l1.51 1.01c0.02,0.02 0.06,0.03 0.08,0.05l3.02 2.02c0.02,0.02 0.06,0.04 0.08,0.05l0.42 0.24c0.01,0.01 0.15,0.12 0.22,0.18l3.76 2.48c0.01,0.01 0.15,0.12 0.22,0.18l3.26 2.18c0.02,0.02 0.06,0.04 0.08,0.05l3.68 2.43c0.07,0.05 0.21,0.17 0.22,0.18 0.02,0.02 0.06,0.04 0.08,0.05l2.01 1.31c0.01,0.01 0.15,0.12 0.22,0.18l5.43 3.6c0.07,0.05 0.21,0.17 0.22,0.18 0.02,0.02 0.06,0.04 0.08,0.05l0.8 0.53c0.02,0.02 0.06,0.03 0.08,0.05l3.02 2.02c0.02,0.02 0.06,0.04 0.08,0.05l1.51 1.01c0.02,0.02 0.06,0.04 0.08,0.05l0.8 0.53c0.02,0.02 0.06,0.03 0.08,0.05 0.1,0.06 0.07,0.03 0.17,0.09l0.46 0.34c0.02,0.02 0.06,0.04 0.08,0.05l1.51 1.01c0.02,0.02 0.06,0.04 0.08,0.05l3.19 2.12c0.02,0.02 0.06,0.03 0.08,0.05l3.19 2.12c0.02,0.02 0.06,0.03 0.09,0.05l0.88 0.58c0.02,0.01 0.06,0.03 0.08,0.05l0.46 0.34c0.02,0.02 0.06,0.03 0.08,0.05 0.02,0.02 0.06,0.03 0.09,0.05l0.63 0.43c0.02,0.02 0.06,0.03 0.08,0.05l1.43 0.96c0.02,0.02 0.06,0.04 0.08,0.05 0.02,0.02 0.06,0.03 0.08,0.05 0.02,0.02 0.06,0.03 0.09,0.05l0.63 0.44c0.16,0.1 0.11,0.05 0.26,0.14l4.45 2.99c0.02,0.02 0.06,0.04 0.08,0.05l4.07 2.71c0.02,0.01 0.06,0.03 0.09,0.05 0.02,0.01 0.06,0.03 0.09,0.05 0.02,0.02 0.06,0.03 0.09,0.05l2.16 3.02c0.24,0.69 0.32,1.28 0.33,2.07 0.01,1.58 -0.16,1.01 -0.27,1.33zm-81.81 -70.12c-0.16,0.1 0,0.05 -0.29,0.11l-1.43 0.03c-0.64,0.09 -0.09,0.11 -0.7,0.23 -0.42,0.08 -0.51,-0.01 -0.94,0.12 -0.03,0.01 -0.06,0.03 -0.1,0.04l-0.19 0.07c-0.15,0.05 -0.25,0.08 -0.4,0.13l-3.03 1.09c-0.03,0.01 -0.07,0.02 -0.1,0.04l-0.59 0.34c-0.12,0.09 -0.24,0.2 -0.3,0.23l-0.8 0.4c-0.02,0.01 -0.06,0.03 -0.08,0.05l-0.71 0.48c-0.02,0.01 -0.06,0.03 -0.09,0.05 -0.02,0.02 -0.06,0.03 -0.08,0.05l-0.98 0.75c-0.48,0.3 -0.82,0.77 -1.22,1.17 -0.51,0.51 -1.06,0.88 -1.43,1.49 -0.13,0.2 -0.06,0.15 -0.18,0.35 -0.01,0.01 -0.21,0.27 -0.24,0.29l-2.35 4.02c-0.01,0.03 -0.02,0.07 -0.03,0.1l-0.64 1.89c-0.01,0.03 -0.02,0.06 -0.04,0.1l-0.6 2.86c0,0.15 0.01,0.38 -0.01,0.52 -0.08,0.58 -0.26,0.49 -0.27,1.19 -0.12,8.85 0.01,17.72 0.01,26.57l0 70.26c0,1.12 -0.21,3.94 0.13,4.91 0.19,0.52 0.05,1.03 0.16,1.57l0.47 1.92c0.05,0.15 0.1,0.3 0.13,0.4l0.07 0.19c0.01,0.03 0.02,0.07 0.03,0.1l3.34 6.36c0.45,0.72 2.39,2.5 2.74,2.7 0.02,0.02 0.06,0.03 0.09,0.05l0.53 0.4c0.07,0.07 0.19,0.19 0.28,0.25 0.02,0.02 0.06,0.04 0.08,0.05l0.8 0.53c0.1,0.06 0.24,0.13 0.35,0.18 0,0 0.18,0.08 0.18,0.08 0.04,0.02 0.14,0.07 0.18,0.09 0.26,0.14 0.12,0.06 0.25,0.15l0.71 0.48c0.03,0.01 0.06,0.03 0.09,0.04l1.24 0.49c0.03,0.01 0.06,0.03 0.09,0.04 0.03,0.01 0.06,0.03 0.09,0.04 0.03,0.01 0.07,0.02 0.1,0.03l1.11 0.35c0.03,0.01 0.07,0.02 0.1,0.03l1.91 0.48c0.83,0.12 0.4,0.24 1.75,0.24 0.08,0 0.31,0 0.38,0.02 0.66,0.09 0.19,0.05 0.4,0.13l0.79 0.15c1.15,0.03 0.56,-0.25 2.67,-0.27l2.82 -0.64c0.03,-0.01 0.16,-0.06 0.19,-0.07 0.03,-0.01 0.07,-0.02 0.1,-0.03l2.9 -1.08c0.14,-0.07 0.03,-0.02 0.18,-0.09l2.92 -1.86c0.02,-0.02 0.06,-0.03 0.08,-0.05l0.46 -0.34c0.02,-0.02 0.06,-0.03 0.08,-0.05l2.31 -1.54c0.02,-0.02 0.06,-0.03 0.08,-0.05l2.31 -1.55c0.02,-0.02 0.06,-0.03 0.08,-0.05l0.8 -0.53c0.02,-0.02 0.06,-0.03 0.09,-0.05 0.02,-0.01 0.06,-0.03 0.09,-0.05l2.13 -1.45c0.02,-0.02 0.06,-0.03 0.08,-0.05 0.02,-0.02 0.06,-0.03 0.09,-0.05 0.02,-0.02 0.06,-0.03 0.09,-0.05l0.54 -0.39c0.02,-0.02 0.06,-0.03 0.08,-0.05 0.02,-0.02 0.06,-0.03 0.09,-0.05 0.02,-0.01 0.06,-0.03 0.09,-0.05l3.27 -2.17c0.13,-0.08 0.07,-0.06 0.23,-0.17l6.6 -4.42c0.02,-0.02 0.06,-0.03 0.08,-0.05l2.31 -1.54c0.02,-0.02 0.06,-0.03 0.08,-0.05l0.71 -0.48c0.02,-0.02 0.06,-0.03 0.08,-0.05l2.31 -1.54c0.02,-0.02 0.06,-0.03 0.08,-0.05l3.1 -2.08c0.02,-0.02 0.06,-0.03 0.08,-0.05l0.17 -0.09c0.02,-0.02 0.06,-0.03 0.08,-0.05l7.63 -5.12c0.02,-0.02 0.06,-0.03 0.08,-0.05l0.63 -0.43c0.02,-0.02 0.06,-0.04 0.08,-0.05 0.02,-0.02 0.06,-0.03 0.08,-0.05l2.31 -1.55c0.02,-0.02 0.06,-0.03 0.08,-0.05l5.75 -3.81c0.02,-0.01 0.06,-0.03 0.08,-0.05l3.1 -2.08c0.02,-0.02 0.06,-0.03 0.08,-0.05l5.49 -3.67c0.02,-0.02 0.06,-0.03 0.08,-0.05l0.16 -0.11c0.15,-0.11 0.22,-0.17 0.3,-0.23l0.88 -0.58c0.15,-0.09 0.09,-0.04 0.25,-0.14l4.14 -2.77c0.15,-0.11 0.22,-0.17 0.3,-0.23l1.85 -1.2c0.02,-0.02 0.06,-0.03 0.08,-0.05l2.05 -1.4c0.02,-0.02 0.06,-0.03 0.08,-0.05l0.71 -0.48c0.02,-0.02 0.06,-0.03 0.08,-0.05l0.17 -0.09c0.02,-0.02 0.06,-0.03 0.08,-0.05l2.31 -1.55c0.02,-0.02 0.06,-0.03 0.08,-0.05l2.31 -1.55c0.02,-0.01 0.06,-0.03 0.08,-0.05l0.46 -0.34c0.02,-0.02 0.06,-0.03 0.08,-0.05l0.97 -0.62c0.02,-0.02 0.06,-0.03 0.08,-0.05l0.71 -0.48c0.02,-0.02 0.06,-0.03 0.08,-0.05l1.82 -1.23c0.17,-0.15 0.22,-0.27 0.49,-0.44 0.96,-0.61 2.57,-2.14 3.14,-3.1l1.33 -1.86c0.33,-0.66 0.71,-0.97 0.96,-1.7 0.06,-0.18 0.05,-0.23 0.12,-0.42 0.01,-0.03 0.02,-0.07 0.03,-0.1l0.35 -0.72c0.01,-0.03 0.02,-0.07 0.04,-0.1l0.19 -0.61c0.01,-0.03 0.02,-0.07 0.03,-0.1l0.64 -2.41c0.09,-0.64 0.27,-0.53 0.26,-1.34 -0,-0.28 -0.04,-0.64 0.02,-0.91 0.15,-0.68 0.43,-1.11 0.21,-2.12 -0.14,-0.62 -0.03,-0.03 -0.15,-0.38 -0.2,-0.6 -0.06,-1.48 -0.26,-2.13l-0.36 -1.63c-0.01,-0.03 -0.02,-0.07 -0.03,-0.1l-0.59 -1.8c-0.01,-0.03 -0.02,-0.07 -0.04,-0.09l-2.46 -4.31c-0.55,-0.58 -0.03,-0.3 -1.79,-2.06l-2.35 -2.03c-0.19,-0.12 -0.15,-0.06 -0.34,-0.19l-1.34 -0.92c-0.02,-0.02 -0.06,-0.03 -0.09,-0.05 -0.02,-0.02 -0.06,-0.03 -0.09,-0.05l-0.62 -0.44c-0.03,-0.02 -0.14,-0.07 -0.17,-0.09 -0.02,-0.01 -0.06,-0.03 -0.08,-0.05l-0.54 -0.39c-0.15,-0.09 -0.09,-0.04 -0.25,-0.14 -0.09,-0.06 -0.15,-0.12 -0.3,-0.23l-3.6 -2.38c-0.02,-0.02 -0.06,-0.03 -0.08,-0.05l-2.31 -1.54c-0.02,-0.02 -0.06,-0.03 -0.08,-0.05l-0.46 -0.34c-0.02,-0.02 -0.06,-0.03 -0.08,-0.05l-0.17 -0.09c-0.02,-0.02 -0.06,-0.03 -0.08,-0.05l-1.34 -0.92c-0.15,-0.09 -0.09,-0.04 -0.26,-0.14l-3.9 -2.61c-0.02,-0.02 -0.06,-0.03 -0.08,-0.05 -0.02,-0.02 -0.06,-0.04 -0.08,-0.05l-2.23 -1.49c-0.02,-0.02 -0.06,-0.03 -0.08,-0.05l-0.46 -0.34c-0.02,-0.02 -0.06,-0.03 -0.08,-0.05 -0.02,-0.01 -0.06,-0.03 -0.09,-0.05 -0.02,-0.02 -0.06,-0.03 -0.09,-0.05 -0.02,-0.02 -0.06,-0.03 -0.08,-0.05l-2.31 -1.55c-0.02,-0.02 -0.06,-0.03 -0.08,-0.05l-0.71 -0.48c-0.02,-0.02 -0.06,-0.03 -0.08,-0.05l-2.05 -1.4c-0.02,-0.02 -0.06,-0.03 -0.08,-0.05l-0.17 -0.09c-0.02,-0.02 -0.06,-0.03 -0.08,-0.05l-2.05 -1.4c-0.02,-0.02 -0.06,-0.03 -0.08,-0.05l-0.17 -0.09c-0.02,-0.02 -0.06,-0.03 -0.08,-0.05l-2.05 -1.4c-0.02,-0.02 -0.06,-0.03 -0.08,-0.05 -0.03,-0.02 -0.14,-0.07 -0.17,-0.09 -0.02,-0.02 -0.06,-0.03 -0.08,-0.05l-0.95 -0.64c-0.15,-0.11 -0.22,-0.17 -0.3,-0.23 -0.19,-0.12 -0.15,-0.07 -0.34,-0.19l-0.46 -0.34c-0.02,-0.02 -0.06,-0.03 -0.08,-0.05l-0.71 -0.48c-0.02,-0.02 -0.06,-0.03 -0.08,-0.05l-0.17 -0.09c-0.02,-0.01 -0.06,-0.03 -0.08,-0.05l-0.71 -0.48c-0.02,-0.02 -0.06,-0.03 -0.08,-0.05l-2.31 -1.55c-0.02,-0.01 -0.06,-0.03 -0.08,-0.05l-2.05 -1.4c-0.02,-0.02 -0.06,-0.03 -0.08,-0.05l-0.17 -0.09c-0.02,-0.02 -0.06,-0.03 -0.08,-0.05l-0.46 -0.34c-0.02,-0.02 -0.06,-0.03 -0.08,-0.05 -0.03,-0.02 -0.14,-0.07 -0.17,-0.09 -0.02,-0.01 -0.06,-0.03 -0.08,-0.05l-1.51 -1.01c-0.02,-0.02 -0.06,-0.03 -0.08,-0.05l-0.46 -0.34c-0.02,-0.02 -0.06,-0.03 -0.08,-0.05 -0.03,-0.02 -0.14,-0.07 -0.17,-0.09 -0.02,-0.01 -0.06,-0.03 -0.08,-0.05l-2.31 -1.54c-0.02,-0.02 -0.06,-0.03 -0.08,-0.05l-0.71 -0.48c-0.02,-0.02 -0.06,-0.03 -0.08,-0.05l-0.46 -0.34c-0.02,-0.02 -0.06,-0.03 -0.08,-0.05l-0.71 -0.48c-0.02,-0.02 -0.06,-0.03 -0.08,-0.05l-0.8 -0.53c-0.1,-0.06 -0.07,-0.03 -0.17,-0.09 -0.02,-0.02 -0.06,-0.03 -0.08,-0.05l-0.71 -0.48c-0.02,-0.02 -0.06,-0.03 -0.08,-0.05l-1.25 -0.87c-0.02,-0.02 -0.06,-0.03 -0.08,-0.05l-0.17 -0.09c-0.02,-0.02 -0.06,-0.03 -0.08,-0.05l-0.46 -0.34c-0.02,-0.02 -0.06,-0.03 -0.08,-0.05l-0.17 -0.09c-0.02,-0.02 -0.06,-0.03 -0.08,-0.05l-2.39 -1.59c-0.02,-0.02 -0.06,-0.04 -0.08,-0.05l-2.23 -1.49c-0.02,-0.02 -0.06,-0.03 -0.08,-0.05l-0.46 -0.34c-0.02,-0.02 -0.06,-0.03 -0.08,-0.05l-0.97 -0.62c-0.02,-0.02 -0.06,-0.03 -0.08,-0.05l-2.31 -1.55c-0.02,-0.02 -0.06,-0.03 -0.08,-0.05l-1.51 -1.01c-0.02,-0.01 -0.06,-0.03 -0.08,-0.05l-2.85 -1.93c-0.02,-0.02 -0.06,-0.03 -0.08,-0.05l-0.17 -0.09c-0.02,-0.01 -0.06,-0.03 -0.08,-0.05l-0.54 -0.39c-0.1,-0.06 -0.07,-0.03 -0.17,-0.09 -0.02,-0.02 -0.06,-0.03 -0.08,-0.05l-1.25 -0.87c-0.02,-0.02 -0.06,-0.03 -0.08,-0.05 -0.03,-0.02 -0.14,-0.07 -0.17,-0.09 -0.02,-0.02 -0.06,-0.03 -0.08,-0.05l-0.71 -0.48c-0.02,-0.02 -0.06,-0.03 -0.08,-0.05l-2.05 -1.4c-0.02,-0.02 -0.06,-0.03 -0.08,-0.05l-0.17 -0.09c-0.02,-0.01 -0.06,-0.03 -0.08,-0.05l-3.98 -2.66c-0.13,-0.08 -0.07,-0.06 -0.23,-0.17l-2.16 -1.42c-0.02,-0.02 -0.06,-0.04 -0.08,-0.05l-1.25 -0.74c-0.03,-0.01 -0.06,-0.03 -0.09,-0.05l-0.62 -0.3c-0.03,-0.01 -0.07,-0.02 -0.1,-0.03l-2.2 -0.72c-0.03,-0.01 -0.07,-0.02 -0.1,-0.03 -0.03,-0.01 -0.07,-0.02 -0.1,-0.04 -0.03,-0.01 -0.07,-0.02 -0.1,-0.03 -0.03,-0.01 -0.07,-0.02 -0.1,-0.03l-1.92 -0.47c-0.44,-0.12 -0.96,-0.01 -1.41,-0.05 -0.64,-0.05 -1.21,-0.48 -2.36,-0.24 -0.04,0.01 -0.07,0.02 -0.1,0.03 -0.03,0.01 -0.07,0.03 -0.1,0.04 -0.02,0.01 -0.06,0.02 -0.09,0.04z"></path> </g> </g> </svg> 