<?xml version="1.0" encoding="UTF-8"?> <svg xmlns="http://www.w3.org/2000/svg" xmlns:xlink="http://www.w3.org/1999/xlink" xmlns:xodm="http://www.corel.com/coreldraw/odm/2003" xml:space="preserve" width="100.084mm" height="44.7661mm" version="1.1" style="shape-rendering:geometricPrecision; text-rendering:geometricPrecision; image-rendering:optimizeQuality; fill-rule:evenodd; clip-rule:evenodd" viewBox="0 0 8261.16 3695.1"> <defs> <style type="text/css"> .fil0 {fill:#7A5828;fill-rule:nonzero} </style> </defs> <g id="Слой_x0020_1"> <metadata id="CorelCorpID_0Corel-Layer"></metadata> <path class="fil0" d="M3791.8 3086.39c-214.85,45.7 -400.83,16.04 -558.76,-86.58 -170.76,-116.24 -259.74,-302.24 -266.16,-559.57 -2.41,-173.97 44.09,-344.72 140.29,-513.88 96.2,-169.15 245.32,-372.78 447.34,-610.88l-115.44 -82.58 -119.45 -76.95c-52.11,24.85 -141.9,79.36 -270.17,164.34l-56.11 37.68c-193.21,121.85 -403.24,246.91 -631.72,375.18 -532.32,295.02 -820.92,452.15 -865.01,472.19 -169.95,73.75 -306.24,102.62 -408.06,87.38 -31.27,-3.2 -54.51,-21.64 -68.14,-54.51 -6.41,-18.44 -1.61,-28.06 13.63,-28.06 9.62,0 21.64,6.41 35.27,19.24 28.06,28.06 88.99,31.27 181.18,8.82 88.99,-15.24 169.95,-40.88 242.1,-76.96 566.79,-288.6 1131.17,-610.08 1693.14,-965.22l101.02 -64.14c-297.42,-198.82 -523.5,-339.11 -679.02,-422.48 -364.77,-189.2 -770.42,-270.97 -1216.15,-244.52 -404.04,19.24 -764,129.87 -1078.26,331.09 -106.62,70.55 -177.17,130.67 -211.64,178.78 -21.65,31.26 -36.88,60.92 -45.7,88.18 -8.82,27.26 -12.03,48.91 -10.43,64.94 1.6,15.24 4.81,30.47 10.43,45.7 5.6,14.43 10.42,25.65 15.23,33.67 4.81,8.02 4.81,14.44 0,19.24 -4.81,4.01 -13.63,8.02 -28.06,11.23 -12.83,3.21 -21.65,-6.41 -28.06,-28.06 -24.85,-64.14 -19.24,-133.08 18.44,-206.83 36.08,-64.14 101.82,-129.87 197.21,-197.21 205.23,-141.1 440.92,-242.91 707.08,-305.44 266.16,-62.53 532.32,-84.18 798.47,-65.74 275.77,19.24 551.55,89.78 827.33,211.64 72.95,36.08 149.91,77.76 228.48,125.87 79.36,47.3 163.54,102.61 254.13,165.14 89.79,62.53 161.14,110.63 214.85,143.5l53.71 32.87c226.88,-156.33 528.3,-371.18 904.29,-643.75 165.95,-125.06 313.45,-224.47 441.73,-298.23 223.66,-137.89 348.73,-192.4 375.99,-164.34 2.4,3.21 4,7.21 4,12.03 0,4.81 -1.6,9.62 -4.8,16.03 -2.41,6.41 -5.61,12.03 -8.82,16.84 -3.2,4.81 -9.62,11.23 -19.24,20.04 -8.82,8.01 -18.44,16.84 -26.45,24.05 -8.82,8.01 -20.04,18.44 -34.47,31.27 -13.63,12.02 -25.65,23.24 -35.27,32.87 -54.52,51.3 -167.55,152.32 -339.12,301.43 -171.56,149.91 -334.3,296.62 -488.22,440.12 -154.72,144.31 -291.8,287.01 -412.86,428.1 45.7,38.48 121.06,81.77 226.08,129.07 271.76,128.27 521.89,194.01 748.77,197.21 98.61,0 179.57,-12.83 242.1,-37.67 36.07,-16.04 54.51,-20.85 56.12,-14.44 6.41,19.24 -8.02,32.87 -41.69,42.49 -230.88,76.96 -527.5,43.29 -890.66,-101.02l-366.36 -187.59c-397.63,439.32 -599.65,810.49 -606.07,1112.73 -6.41,218.05 64.14,380.79 211.64,489.02 153.12,118.65 348.73,145.9 586.83,81.77 165.94,-44.89 355.94,-134.68 568.39,-267.76 86.58,-51.31 133.88,-98.61 143.5,-140.29l0 -14.44c6.41,-9.62 14.43,-12.83 24.85,-9.62 9.62,3.2 15.23,11.23 15.23,24.05 0,24.85 -13.63,47.3 -40.08,67.34 -45.7,45.7 -121.86,99.41 -230.08,162.74 -205.23,123.46 -381.6,198.01 -528.31,222.86zm-202.02 -1803.77c173.97,-186.79 335.11,-345.52 483.42,-477 149.11,-131.48 440.92,-375.19 876.23,-730.33 39.28,-31.26 51.31,-46.5 35.28,-44.89 -15.24,3.2 -46.5,16.83 -91.39,40.08 -147.51,83.38 -295.02,174.77 -442.53,275.77 -148.31,101.02 -316.67,221.26 -506.66,360.76 -189.2,139.49 -341.52,249.32 -455.35,328.68l-136.29 96.2 91.39 59.32 145.9 91.39zm481.82 1111.13c-52.12,-36.08 -56.12,-91.39 -12.03,-164.35l4.8 -9.62c21.65,-39.28 48.11,-76.16 79.37,-111.43 31.26,-35.28 69.74,-74.56 114.63,-117.85 44.09,-42.49 80.97,-80.17 109.03,-111.43 -24.85,16.03 -82.58,56.91 -171.56,124.26l-96.2 72.95c-230.09,165.94 -375.19,256.53 -434.51,272.57 -45.7,12.83 -73.75,0 -84.98,-37.68 -18.44,-60.92 16.84,-136.29 105.82,-225.27 60.93,-64.13 102.62,-94.59 124.26,-91.39 32.07,5.61 27.26,28.06 -13.63,65.74 -39.28,36.08 -63.33,58.52 -72.95,68.15 -70.55,69.75 -105.82,131.47 -105.82,182.78 0,21.64 25.65,21.64 77.76,-2.4 51.31,-23.25 101.01,-52.91 147.5,-88.99 227.68,-156.33 388.02,-273.37 481.81,-350.33 16.04,-15.23 23.25,-28.86 23.25,-39.28 0,-12.83 15.23,-14.43 44.89,-4.81 18.44,12.03 36.07,18.44 51.31,18.44 28.86,0 20.84,22.45 -23.25,68.15 -6.41,6.41 -15.23,16.03 -28.06,28.06 -144.3,150.71 -237.3,261.35 -279.79,333.5 -31.27,48.91 -36.08,82.58 -13.63,101.02 36.07,31.27 113.83,8.01 233.29,-70.55 120.25,-77.76 226.07,-164.34 318.27,-258.14l44.89 -42.48c9.62,-8.82 16.84,-8.82 23.25,0 3.21,6.41 1.6,12.83 -4.81,19.24l-96.2 91.39c-121.85,116.24 -248.52,206.03 -379.99,270.16 -75.35,31.27 -130.67,34.48 -166.74,9.62zm464.97 -87.39c-21.64,19.24 -41.68,24.05 -58.52,14.43 -17.63,-9.62 -26.45,-30.46 -26.45,-63.33 0,-57.72 68.95,-147.51 206.83,-267.76 70.55,-67.35 117.05,-102.62 138.69,-105.83 9.62,0 17.64,4.81 23.25,14.44 6.41,5.6 9.62,12.02 9.62,18.43l-18.43 14.44c-28.06,15.23 -51.31,32.07 -68.15,48.9l-148.31 143.5c39.28,8.82 97,8.82 173.97,0 137.89,-22.44 234.09,-60.12 288.6,-115.44 6.41,-6.41 13.63,-9.62 21.65,-9.62 7.21,0 11.22,3.2 11.22,9.62 0,16.04 -20.84,34.48 -63.33,56.12 -70.55,42.49 -165.15,69.75 -283.8,82.58l-115.44 0c6.41,45.7 -24.04,98.61 -91.39,159.53zm72.95 -149.91c0,-16.03 -11.22,-16.03 -32.87,0 -6.41,3.21 -11.22,7.21 -14.43,11.23 -42.48,42.48 -64.94,80.97 -68.14,115.44 -3.21,42.48 18.44,35.27 63.33,-20.85 31.27,-42.48 48.91,-77.75 52.11,-105.82zm2132.46 -138.69c2.4,3.2 -1.6,12.83 -14.43,28.06 -95.4,98.61 -179.58,161.94 -252.53,190 -72.95,28.87 -181.18,39.28 -325.48,32.87l-105.02 80.17c-147.51,116.24 -312.65,178.77 -496.24,187.59 -85.78,0 -141.09,-20.04 -166.74,-60.93 -28.06,-44.89 -24.85,-95.39 9.62,-149.91 51.31,-76.96 148.31,-115.44 288.61,-115.44 92.99,-6.41 217.25,0 373.58,19.24 24.85,-22.44 43.29,-40.88 54.51,-56.91 44.89,-54.52 74.56,-109.03 88.99,-164.35 13.63,-54.51 -4.81,-86.58 -56.12,-96.19 -80.17,0 -194,22.44 -340.71,68.14 -109.83,39.28 -187.59,74.56 -232.49,105.82 -64.13,42.49 -136.29,115.44 -216.45,220.46l-735.14 941.97c214.85,-6.41 376.79,-3.21 486.62,9.62 79.36,6.41 192.41,21.65 338.31,45.7 145.1,24.05 251.73,39.29 319.07,45.7 269.36,21.65 489.02,-1.6 659.78,-70.54 12.83,22.44 -2.4,40.88 -44.09,56.91 -227.68,51.31 -416.07,67.35 -565.98,48.11 -150.72,-20.04 -343.92,-45.7 -579.61,-77.76 -235.7,-32.07 -432.11,-39.28 -590.84,-22.45l-56.12 4.81c-42.48,28.06 -82.57,58.52 -121.86,91.39 -116.24,92.19 -258.13,173.17 -427.29,242.1 -169.15,68.95 -287.8,88.99 -355.15,60.93 -44.89,-28.06 -56.91,-62.53 -36.07,-103.42 20.84,-40.88 58.52,-76.96 111.43,-108.23 134.68,-76.15 247.72,-126.66 339.11,-151.51 92.19,-24.05 240.5,-51.31 444.93,-80.97 32.07,-28.06 56.12,-52.11 72.95,-72.15 70.55,-83.37 182.79,-241.3 337.51,-473.78 153.92,-232.49 285.4,-400.84 393.63,-505.86 -55.32,21.64 -101.02,38.48 -137.89,48.9 -36.88,11.23 -73.76,17.64 -110.63,19.24 -36.08,1.61 -62.53,-8.01 -78.56,-28.06 -15.24,-20.84 -21.65,-52.11 -18.44,-93.79 9.62,-52.11 36.87,-100.21 81.77,-143.5 61.73,-64.14 144.3,-121.86 247.72,-171.56 104.22,-50.51 178.78,-68.94 222.06,-56.11 61.73,12.02 74.56,72.95 40.09,182.78 31.26,-31.27 50.5,-48.11 56.11,-51.31 173.97,-147.51 328.69,-219.66 463.37,-216.45 8.82,0 15.24,3.2 18.44,9.62 3.21,3.21 1.61,5.61 -4.8,7.21 -6.41,1.6 -13.64,2.41 -23.25,2.41 -48.91,5.6 -85.78,13.63 -110.63,23.24 -54.51,18.44 -113.84,56.92 -177.97,114.64 -48.91,42.48 -101.82,97.8 -160.34,164.34 170.76,-66.54 327.88,-103.42 472.19,-109.83 57.71,-6.41 96.19,10.43 115.44,50.51 18.44,40.08 20.04,88.18 4.81,144.3 -16.03,56.12 -40.08,109.83 -72.95,159.54 67.34,3.2 138.69,0 213.25,-9.62 92.99,-12.03 201.21,-80.97 327.08,-206.03 12.03,-16.03 23.24,-19.24 32.87,-9.62zm-1163.24 -164.34c6.41,-31.27 -5.61,-51.31 -36.07,-58.52 -30.47,-8.02 -65.74,-0.8 -104.22,20.84 -93,45.7 -181.98,109.03 -269.37,190 -86.58,81.77 -128.26,145.1 -125.86,190.8 6.41,38.48 58.52,43.29 155.53,13.63 95.39,-36.07 147.5,-58.52 157.13,-68.14 136.29,-112.23 210.84,-209.24 222.86,-288.6zm408.86 448.14l42.48 -44.09c-330.28,-57.72 -537.12,-25.65 -620.5,96.2 -28.06,42.48 -31.27,77.75 -8.82,106.62 21.64,28.86 56.92,43.29 105.82,43.29 164.34,0 324.68,-67.35 481.01,-202.02zm-1669.9 1125.55l183.59 -148.3 -197.22 28.06c-106.62,12.83 -218.05,43.29 -333.5,92.19 -160.34,64.14 -261.35,128.27 -303.03,192.41 -16.04,24.85 -8.82,44.09 20.84,56.11 60.92,21.65 152.32,8.82 273.37,-38.48 121.85,-48.1 240.5,-108.22 355.94,-181.98zm2490.01 -904.28c-48.9,15.23 -84.18,9.62 -105.82,-19.24 -42.49,-48.11 -20.84,-129.07 63.33,-241.31l49.7 -52.11c-157.13,88.99 -251.72,117.05 -284.6,82.58 -18.43,-19.24 -16.03,-52.91 9.62,-101.01 12.03,-22.45 66.54,-81.77 161.94,-178.78 3.2,-3.2 8.82,-9.62 17.64,-18.44 8.82,-9.62 15.23,-17.63 20.04,-24.85 4.8,-7.22 11.22,-12.03 20.84,-15.24 9.62,-3.2 17.64,-3.2 23.24,0 28.87,12.03 27.26,40.08 -4,81.77 -12.83,12.83 -40.88,39.28 -83.38,80.17 -43.29,40.88 -78.56,76.16 -105.82,106.62 -27.26,30.47 -38.48,50.51 -32.07,60.13 12.83,21.64 70.55,5.61 173.97,-49.71 57.71,-28.06 125.06,-75.36 202.02,-142.7 51.3,-45.7 88.18,-60.12 110.63,-44.89 8.82,9.62 1.6,27.26 -24.05,53.71l-101.02 101.02c-103.42,92.99 -165.94,175.57 -187.59,249.32 -9.62,39.28 4.8,58.52 42.48,58.52 73.75,0 272.57,-141.9 596.45,-427.29 60.92,-54.52 96.19,-80.97 105.82,-77.76 8.82,3.2 5.61,13.63 -12.03,30.46 -16.83,17.64 -77.76,69.75 -180.38,157.94 -229.28,195.61 -388.01,306.24 -477,331.09zm908.3 -110.63c-54.51,19.23 -94.59,11.22 -119.45,-23.25 -42.48,-55.32 4.01,-149.91 138.69,-284.6 36.08,-28.06 53.72,-44.09 53.72,-48.9l-18.44 -9.62 -141.1 87.39c-36.07,24.85 -81.77,47.3 -137.09,66.54 -56.12,19.24 -92.99,20.04 -112.23,0.8 -24.85,-24.85 -24.85,-60.12 0,-105.02 12.83,-12.83 25.65,-29.67 37.68,-49.71 31.26,-31.27 52.91,-48.1 63.33,-51.31 6.41,-3.2 12.83,-1.6 19.24,4.01 6.41,6.41 9.62,12.83 9.62,19.24 0,9.62 -5.61,19.24 -16.84,30.47 -11.23,11.22 -25.65,24.85 -43.29,40.88 -18.44,16.83 -32.07,29.66 -40.89,39.28 -28.86,41.68 -22.44,63.33 18.44,63.33 31.27,0 71.35,-13.63 119.45,-40.09l188.39 -115.44c-24.85,-8.82 -42.48,-21.65 -52.11,-37.68 -21.64,-35.27 -3.2,-78.56 56.92,-129.07 48.11,-48.1 99.41,-83.38 152.32,-104.22 53.71,-20.84 86.58,-16.83 98.61,12.83 16.03,45.7 -49.71,128.27 -197.22,249.32l23.25 8.82c12.83,9.62 16.03,19.24 9.62,29.66 -6.41,10.43 -29.66,36.88 -70.54,80.97 -92.2,98.61 -137.9,170.76 -136.29,216.45 3.2,18.44 13.63,29.67 32.07,33.67 17.63,4.01 40.88,-0.8 68.14,-14.43 27.26,-12.83 53.71,-26.45 78.56,-40.88 24.85,-13.63 50.51,-30.47 77.76,-48.91 112.23,-83.38 229.28,-177.97 349.53,-284.6 19.24,-12.02 30.46,-12.02 35.27,0 0,3.21 -5.61,9.62 -16.03,19.24 -249.33,217.26 -425.7,345.52 -529.11,384.81zm49.71 -394.43c98.61,-80.17 165.95,-147.51 202.02,-202.02 12.83,-18.44 9.62,-29.67 -9.62,-32.87 -18.44,0 -47.31,12.83 -86.59,37.68 -103.42,70.54 -155.53,125.06 -155.53,164.34 0,9.62 4.01,16.03 12.03,20.84 8.02,4.81 17.64,7.21 28.06,7.21l9.62 4.81z"></path> </g> </svg> 