<?xml version="1.0" encoding="UTF-8"?> <svg xmlns="http://www.w3.org/2000/svg" xmlns:xlink="http://www.w3.org/1999/xlink" xmlns:xodm="http://www.corel.com/coreldraw/odm/2003" xml:space="preserve" width="199.698mm" height="42.3399mm" version="1.1" style="shape-rendering:geometricPrecision; text-rendering:geometricPrecision; image-rendering:optimizeQuality; fill-rule:evenodd; clip-rule:evenodd" viewBox="0 0 4776.34 1012.68"> <defs> <style type="text/css"> .fil0 {fill:#7A5828;fill-rule:nonzero} </style> </defs> <g id="Слой_x0020_1"> <metadata id="CorelCorpID_0Corel-Layer"></metadata> <path class="fil0" d="M580.05 766.83c-41.81,0 -70.15,-10.68 -85.25,-32.06 -0.93,-1.62 -2.09,-4.18 -3.95,-7.43 -1.86,-3.02 -3.48,-6.97 -5.11,-11.15 -1.62,-4.42 -2.32,-8.36 -1.86,-11.85 0.47,-3.72 2.79,-5.58 6.97,-5.58 2.56,0 4.88,1.86 6.74,5.58 1.86,3.48 3.25,7.9 4.18,13.24 0.7,5.11 1.63,8.13 2.55,9.06 4.65,11.38 14.4,19.75 29.27,25.32 18.58,6.27 43.44,7.67 74.33,3.95 22.07,-0.93 42.51,-3.48 61.1,-8.13 97.56,-22.3 185.14,-54.82 262.73,-97.56 77.59,-42.98 169.35,-108.72 275.04,-196.99 41.58,-39.03 112.43,-111.5 212.32,-217.2 62.02,-63.88 106.16,-105.7 131.95,-125.21l30.67 -23.93c-31.83,8.36 -60.63,13.24 -86.42,15.1 -63.88,4.41 -129.62,4.18 -196.99,-0.7 -67.36,-5.11 -149.83,-14.87 -247.4,-29.5 -97.57,-14.87 -162.61,-24.39 -195.36,-28.34 -176.55,-18.58 -324.99,-12.08 -445.78,19.74 -129.39,33.45 -234.39,93.38 -315,179.57 -33.68,34.61 -57.14,71.31 -70.85,110.34 -17.66,51.34 -18.82,84.56 -3.48,100.12 9.06,7.2 11.15,11.85 6.27,14.17 -0.93,0 -1.86,0 -2.79,0 -2.79,0 -5.58,-1.39 -8.6,-3.95 -2.79,-2.79 -6.04,-8.36 -9.76,-16.73 -3.72,-8.36 -5.58,-18.82 -5.58,-31.13 0,-50.17 20.91,-101.28 62.72,-152.62 41.81,-51.57 88.74,-92.92 140.77,-124.28 100.35,-61.33 219.29,-98.03 356.81,-110.34 85.25,-8.13 184.44,-6.74 298.04,4.18 45.3,4.65 109.18,13.7 191.65,27.18 82.23,13.7 157.26,23.93 225.1,30.66 67.83,6.74 132.41,8.36 193.74,4.88 73.41,-5.58 124.74,-17.65 153.78,-36.24 78.98,-50.41 120.56,-68.53 125.21,-54.36 0.93,0.93 1.39,2.32 1.39,4.18 0,10.22 -8.83,20.91 -26.71,31.82 -2.55,1.86 -16.03,8.83 -39.95,21.14l-74.33 21.14 -41.35 29.27c-9.06,7.2 -22.3,19.28 -39.49,36.01 -17.66,15.8 -42.28,41.58 -73.64,76.89 -11.38,12.31 -33.68,36.24 -66.9,71.78 -33.45,35.77 -59.47,63.19 -78.05,82.7 -117.08,119.87 -225.1,207.67 -324.52,263.43 -145.19,80.84 -279.92,121.95 -404.2,123.81zm1039.77 -695.5c20.44,-2.79 42.28,-8.6 65.27,-17.66 15.1,-5.58 28.81,-13.24 41.35,-23.23 12.31,-9.99 17.66,-16.73 15.8,-20.44 -1.63,-2.55 -13.24,1.16 -34.61,11.61l-87.81 49.71zm104.07 682.02c-28.57,12.08 -57.84,14.87 -88.04,7.67 -30.2,-6.97 -54.12,-23.69 -71.78,-49.94 -27.64,-39.95 -28.11,-91.99 -1.39,-155.87 26.72,-63.88 67.6,-129.16 122.42,-195.36l94.78 -114.29c-6.51,3.72 -35.31,26.02 -86.42,67.37l-15.1 12.31c-40.89,32.52 -100.12,79.21 -177.94,139.38 -77.82,60.4 -122.65,95.71 -134.5,106.16 -55.75,42.74 -85.48,65.04 -88.97,66.9 -24.16,14.87 -43.21,14.4 -57.38,-1.39 -11.15,-11.38 -13.01,-30.43 -5.34,-57.14 11.38,-31.83 36.7,-72.24 76.19,-121.26 64.11,-78.05 157.5,-181.19 280.38,-309.65l27.88 -30.66c-33.45,48.09 -87.58,117.78 -161.91,209.07 -63.88,76.19 -114.99,139.38 -153.08,189.79 -10.45,14.17 -20.67,30.2 -30.67,48.32 -22.3,43.67 -25.32,67.37 -9.52,71.55 6.27,0.93 23.93,-6.74 52.5,-22.53 17.65,-11.38 33.45,-23 47.62,-34.61 8.13,-6.51 22.3,-18.35 42.51,-35.54 20.21,-17.19 35.77,-30.66 46.46,-40.19 68.07,-50.18 171.9,-131.48 311.05,-243.45 40.89,-33.68 62.72,-51.34 65.51,-53.2 29.73,-21.37 46.23,-29.73 48.78,-25.09 1.86,2.56 -9.29,19.05 -33.22,49.01 -8.13,10.22 -17.19,21.37 -27.18,32.99 -9.99,11.38 -21.14,24.39 -32.99,38.79 -12.08,14.17 -21.37,25.09 -27.64,32.29 -3.72,4.42 -22.3,30.2 -55.75,76.89 -1.86,2.79 -7.67,11.15 -17.42,25.09 -9.76,14.17 -16.03,23.23 -19.05,27.18 -3.02,4.18 -8.36,12.54 -16.26,24.86 -7.9,12.54 -13.7,21.84 -17.42,28.11 -3.72,6.04 -8.6,14.87 -14.64,26.48 -6.04,11.61 -10.68,21.37 -13.94,29.27 -3.25,7.9 -6.27,17.19 -9.52,27.88 -3.25,10.69 -5.58,20.67 -7.43,30.2 -6.51,38.1 3.25,70.15 29.27,95.94 25.79,26.02 60.86,34.38 105.46,25.32 23.93,-4.65 56.22,-19.51 96.64,-45.07 5.34,-3.48 9.06,-5.34 10.92,-5.34 1.86,0.93 2.09,2.79 1.39,5.34l-2.79 2.79c-35.31,22.77 -62.95,37.17 -82.47,43.67zm76.42 -149.13c-27.64,10.45 -46.23,7.9 -55.75,-7.43 -6.51,-7.2 -8.83,-17.42 -6.97,-30.66 1.86,-10.45 9.76,-24.39 23.93,-41.58l10.92 -13.01c12.08,-13.94 23.7,-25.09 34.61,-33.22 26.71,-21.37 46.23,-30.66 58.54,-27.87 9.06,3.48 12.08,11.61 8.83,23.69 -3.02,12.31 -10.22,23.46 -21.14,33.45 -25.78,22.3 -51.34,32.99 -76.89,32.06 -1.63,0 -5.58,4.41 -11.15,13.24 -5.58,8.83 -9.06,16.26 -9.99,22.07 -2.55,17.65 1.16,26.95 11.62,27.87 20.44,1.86 56.21,-15.33 107.55,-51.8 23.23,-16.73 46.23,-35.31 69.46,-55.75 5.34,-4.41 9.06,-5.34 10.92,-2.79 0,1.86 -3.25,6.04 -9.52,12.31 -10.45,9.06 -29.97,24.63 -58.54,46.23 -8.13,6.5 -22.77,16.26 -43.9,29.27 -21.14,13.24 -35.31,21.14 -42.51,23.93zm-19.74 -70.15c12.31,0.93 24.39,-1.86 36.7,-8.13 32.76,-19.51 50.18,-38.1 52.5,-55.75 0.93,-4.64 -0.93,-6.74 -5.58,-6.74 -6.27,1.62 -16.73,7.67 -31.36,17.89 -14.4,10.22 -25.32,19.98 -32.52,29.04l-19.74 23.7zm206.05 127.3c-17.65,5.34 -29.97,1.62 -37.4,-11.62 -8.13,-11.38 -8.13,-27.87 0,-49.71 5.58,-12.08 14.87,-28.57 27.88,-49.01 15.1,-23.93 18.58,-36.47 10.92,-37.4 -7.2,0 -21.6,9.99 -43.21,29.97 -21.6,19.98 -36.01,36.24 -43.21,49.01 -1.86,2.79 -3.95,5.81 -6.74,8.83 -9.06,2.79 -10.92,-3.25 -5.58,-18.35 9.29,-26.71 31.83,-63.42 68.06,-110.11 17.89,-22.3 30.67,-33.45 38.79,-33.45 10.45,0.93 13.47,5.34 8.83,13.7 -1.63,2.56 -6.97,9.29 -15.57,19.75 -5.34,7.2 -9.99,13.24 -13.47,18.35 -11.38,15.8 -16.73,24.16 -15.8,25.09 0,0.93 2.79,-0.93 8.59,-5.81 5.58,-4.65 11.62,-9.76 17.89,-15.33l19.74 -15.56c27.88,-23.23 55.98,-42.28 84.79,-57.61 28.81,-15.1 45.07,-15.1 48.78,0.46 3.48,13.94 -0.93,27.64 -13.7,40.89 -1.86,1.62 -4.41,2.55 -7.43,2.55 -5.58,0 -6.5,-1.86 -2.79,-5.34 18.58,-18.58 23,-31.83 13.01,-39.49 -13.24,-7.2 -48.08,11.38 -104.76,55.75 -6.51,4.64 -12.78,9.52 -18.82,14.63 -6.04,5.34 -10.45,9.06 -13.24,11.15 -2.79,2.32 -4.65,3.48 -5.58,3.48 10.45,-4.41 17.19,-3.25 19.74,4.18 2.79,4.42 -5.11,22.53 -23.69,54.36 -37.17,63.19 -40.19,92.69 -8.83,89.2 1.86,0 3.25,0 4.65,0 16.96,-1.86 37.63,-10.69 62.72,-26.48 46.23,-30.9 99.42,-75.03 159.82,-132.18 6.5,-6.27 9.76,-6.74 10.22,-1.39 0,1.86 -3.25,6.04 -10.22,12.31 -49.48,45.3 -80.38,72.94 -93.15,82.47 -49.01,39.26 -89.43,63.65 -121.26,72.71zm218.59 -57.15c-27.64,10.45 -46.23,7.9 -55.75,-7.43 -6.51,-7.2 -8.83,-17.42 -6.97,-30.66 1.86,-10.45 9.76,-24.39 23.93,-41.58l10.92 -13.01c12.08,-13.94 23.7,-25.09 34.61,-33.22 26.71,-21.37 46.23,-30.66 58.54,-27.87 9.06,3.48 12.08,11.61 8.83,23.69 -3.02,12.31 -10.22,23.46 -21.14,33.45 -25.78,22.3 -51.34,32.99 -76.89,32.06 -1.63,0 -5.58,4.41 -11.15,13.24 -5.58,8.83 -9.06,16.26 -9.99,22.07 -2.55,17.65 1.16,26.95 11.62,27.87 20.44,1.86 56.21,-15.33 107.55,-51.8 23.23,-16.73 46.23,-35.31 69.46,-55.75 5.34,-4.41 9.06,-5.34 10.92,-2.79 0,1.86 -3.25,6.04 -9.52,12.31 -10.45,9.06 -29.97,24.63 -58.54,46.23 -8.13,6.5 -22.77,16.26 -43.9,29.27 -21.14,13.24 -35.31,21.14 -42.51,23.93zm-19.74 -70.15c12.31,0.93 24.39,-1.86 36.7,-8.13 32.76,-19.51 50.18,-38.1 52.5,-55.75 0.93,-4.64 -0.93,-6.74 -5.58,-6.74 -6.27,1.62 -16.73,7.67 -31.36,17.89 -14.4,10.22 -25.32,19.98 -32.52,29.04l-19.74 23.7zm220.45 96.64c-14.17,-0.93 -20.21,-10.22 -18.35,-27.88 2.79,-22.3 13.7,-45.06 33.22,-68.76l17.19 -20.44 -15.1 1.39c-6.27,0.93 -16.72,1.39 -31.36,1.39 -6.27,0 -10.92,0.93 -14.17,2.79 -3.25,1.86 -9.06,7.67 -17.65,17.65 -11.38,14.87 -16.49,24.16 -15.1,27.88 0,4.65 -1.63,6.97 -5.34,7.43 -15.8,0 -16.73,-13.47 -2.79,-40.65 5.58,-11.38 19.98,-28.11 43.67,-49.71 23.46,-21.83 40.89,-35.08 52.27,-39.49 5.58,-1.86 11.61,-1.86 18.35,0 6.51,2.56 3.02,8.83 -10.22,18.35 -11.15,7.2 -21.84,16.03 -31.83,26.48 -11.38,11.38 -16.26,18.12 -14.64,20.21 1.63,1.86 9.99,2.55 25.55,1.63 14.87,-1.86 27.64,-7.2 38.1,-16.49 14.87,-11.15 25.55,-14.64 31.83,-9.99 3.72,0.7 4.64,3.25 2.79,7.43 -2.79,4.41 -14.4,16.96 -34.61,37.4 -26.02,25.79 -40.89,41.82 -45.07,47.62 -13.01,22.3 -17.19,36.47 -12.08,42.97 6.27,8.13 19.98,6.74 41.35,-4.18 23.23,-12.31 58.07,-36.93 104.76,-74.1l53.2 -44.37c5.34,-5.34 8.13,-5.34 8.13,0 0,1.86 -1.86,4.65 -5.34,8.13 -79.91,66.67 -135.2,106.62 -166.09,119.86 -11.38,4.88 -21.6,7.43 -30.66,7.43z"></path> <path class="fil0" d="M2756.45 521.76l-38.79 1.39c-13.24,0 -19.75,-0.93 -19.75,-2.55 0,-1.86 0.93,-3.72 2.79,-5.58 1.63,-1.86 4.18,-2.79 6.97,-3.02 3.02,-0.23 6.74,0 11.38,0.7 4.42,0.7 10.45,0.23 17.66,-1.16 46.23,-0.7 67.37,2.09 63.18,9.06 -1.39,0.93 -15.8,1.16 -43.44,1.16z"></path> <path class="fil0" d="M3279.53 495.28c5.34,-5.34 8.59,-5.81 9.52,-1.39 0,2.79 -12.54,14.87 -37.4,36.24 -33.68,27.64 -67.83,50.64 -102.91,69.23 -34.84,18.82 -58.31,22.07 -69.92,10.22 -5.58,-5.34 -7.43,-14.17 -5.58,-26.48 2.79,-15.8 14.87,-40.19 36.01,-72.71 -55.75,31.59 -87.81,50.64 -96.4,57.15 -1.86,1.86 -3.25,2.79 -4.18,3.25 -2.79,0 -4.18,-2.79 -4.18,-8.83 0.93,-6.27 4.88,-14.87 12.08,-25.55 6.97,-10.45 11.38,-18.12 13.24,-22.77 -10.45,3.72 -23.93,11.85 -40.19,24.62 -16.73,12.31 -33.68,21.6 -50.41,27.88 -11.38,4.41 -21.6,6.97 -30.89,7.2 -9.29,0.23 -13.94,-3.25 -13.94,-9.99 -0.93,-5.34 3.25,-10.45 12.77,-14.87 14.17,-8.13 34.15,-16.73 59.93,-25.32l23.93 -6.74 14.87 -19.75c35.54,-44.37 41.58,-66.67 18.35,-66.67 -16.72,0 -35.77,7.2 -57.14,21.83l-62.49 51.57c-2.79,2.79 -5.34,2.79 -7.67,0 -0.7,-1.63 -0.7,-3.02 0,-3.95 26.95,-25.09 52.96,-45.53 78.28,-61.33 11.38,-7.2 24.16,-11.85 38.56,-13.94 14.17,-2.09 24.39,0 30.2,5.81 13.24,9.06 8.36,31.36 -14.17,66.67l-9.52 13.7c13.94,-4.64 25.55,-11.38 34.61,-20.44 15.1,-13.24 24.39,-20.67 27.87,-22.53 4.65,-1.86 7.67,-1.86 9.52,0 4.65,2.79 4.18,6.74 -1.39,12.31 -3.48,4.42 -14.17,13.24 -31.83,26.48 -12.31,9.06 -25.32,25.32 -38.79,49.01 61.1,-34.38 101.51,-59.7 121.03,-75.5 39.03,-32.75 69.69,-48.78 91.99,-48.32 3.48,0 7.2,0.7 11.15,2.09 3.95,1.16 5.34,3.25 4.41,6.04 -0.93,1.86 -3.48,1.86 -7.43,0 -7.2,-2.79 -22.53,4.41 -45.53,21.14 -23.23,16.73 -43.67,34.38 -61.33,52.96 -25.09,26.95 -41.81,53.2 -50.41,78.98 -2.79,7.2 -2.09,12.31 2.09,15.33 3.95,3.02 9.99,3.48 17.66,1.63 41.81,-10.45 100.35,-48.55 175.62,-114.29zm-313.84 47.62l21.14 -19.75 -31.36 9.52 -17.65 6.97c-20.44,7.2 -32.76,14.17 -37.4,20.91 -2.79,4.65 -0.93,6.97 5.34,6.97 5.58,0 13.01,-1.39 22.53,-4.18 9.06,-2.32 21.6,-9.06 37.4,-20.44zm367.03 97.33c-20.44,6.51 -33.45,3.25 -39.03,-9.52 -3.48,-13.01 -3.72,-26.48 -0.46,-39.72 3.02,-13.47 7.67,-23.93 13.47,-31.59 -15.8,11.15 -26.71,17.89 -32.52,19.75 -13.24,5.34 -23.46,6.74 -30.67,3.95 -7.43,-2.79 -10.68,-9.06 -10.22,-19.28 0.46,-10.22 3.72,-21.14 10.22,-32.29 16.73,-26.02 41.82,-46 75.5,-59.93 29.97,-13.24 47.16,-11.85 51.8,3.95 3.48,10.45 1.16,20.67 -6.97,30.66 -2.55,5.34 -3.72,9.76 -3.25,13.01 0.7,3.48 -2.32,9.99 -9.52,19.05 -2.79,2.79 -6.5,6.97 -11.38,12.54 -4.64,5.58 -8.83,10.92 -12.54,15.56 -3.72,4.88 -6.74,9.52 -9.52,13.94 -17.66,36.47 -19.05,55.05 -4.18,55.98 12.31,1.63 38.33,-12.31 78.29,-42.28 26.02,-19.51 56.22,-46.23 90.6,-80.38l17.65 -18.35c6.51,-4.41 9.76,-4.41 10.22,0 0,0.93 -3.02,4.18 -8.83,9.52l-52.96 50.41c-18.82,17.66 -36.7,33.22 -53.89,46.23 -26.25,21.37 -46.92,34.38 -61.79,38.79zm-83.16 -65.27c0.93,2.79 8.59,1.86 23.23,-2.79 1.86,-0.93 9.76,-6.04 23.69,-15.56 0.93,-0.93 10.22,-8.83 27.88,-23.93 1.86,-1.63 6.74,-5.81 14.64,-11.85 7.9,-6.04 13.24,-11.38 16.03,-16.03 12.31,-15.8 13.71,-26.48 4.18,-31.82 -3.72,-3.72 -13.94,-0.47 -30.67,9.52 -18.58,10.22 -37.4,26.25 -56.21,47.85 -18.82,21.6 -26.48,36.47 -22.77,44.6zm420.69 -175.62c-30.89,12.31 -51.8,8.83 -62.72,-10.22 -10.45,-15.8 -8.13,-32.29 6.74,-49.71 4.64,-6.27 9.29,-7.43 14.4,-3.25 0.93,0.93 0.93,2.79 0,6.04 -0.93,0.93 -2.79,3.95 -5.81,8.83 -3.02,5.11 -4.88,9.29 -5.81,13.01 -4.64,23 2.56,34.84 21.14,35.31 4.42,0 19.98,-5.11 46.23,-15.57 1.86,-0.93 8.13,-4.64 19.05,-10.92 1.86,-0.93 3.72,-0.47 5.81,1.39 2.09,1.86 2.55,3.48 1.63,5.34 0,0.93 -0.7,1.63 -2.32,2.09 -1.63,0.46 -3.02,1.16 -4.42,2.09 -1.39,0.93 -2.55,1.86 -3.48,2.56 -2.56,2.32 -12.78,6.74 -30.43,13.01zm-138.22 245.07c-14.17,4.41 -24.39,2.79 -30.66,-5.58 -12.31,-13.94 -6.04,-37.4 18.35,-69.92l14.4 -15.1c-45.53,25.79 -72.94,33.92 -82.47,23.93 -5.34,-5.58 -4.64,-15.33 2.79,-29.27 3.48,-6.51 19.28,-23.7 46.92,-51.8 0.93,-0.93 2.55,-2.79 5.11,-5.34 2.55,-2.79 4.41,-5.11 5.81,-7.2 1.39,-2.09 3.25,-3.72 6.04,-5.11 2.79,-1.39 5.11,-1.63 6.74,-0.7 9.06,4.65 8.83,13.01 -1.16,25.09 -3.72,3.72 -11.85,11.38 -24.16,23.23 -12.54,11.85 -22.77,22.07 -30.66,30.89 -7.9,8.83 -11.15,14.64 -9.29,17.42 3.72,6.27 20.44,1.63 50.41,-14.4 16.72,-8.13 36.24,-21.84 58.54,-41.35 14.86,-13.24 25.55,-17.42 32.06,-13.01 2.55,2.79 0.46,7.9 -6.97,15.56l-29.27 29.27c-29.97,26.95 -48.08,50.87 -54.36,72.24 -2.79,11.38 1.39,16.96 12.31,16.96 21.37,0 78.98,-41.12 172.83,-123.81 17.65,-15.8 27.87,-23.46 30.66,-22.53 2.55,0.93 2.32,3.25 -1.39,6.97 -3.72,3.48 -21.83,19.51 -54.36,47.62 -67.36,56.68 -113.36,88.74 -138.22,95.94zm195.13 -33.45c-9.06,-11.38 -5.11,-31.59 11.62,-61.1 8.13,-13.24 19.74,-27.41 34.84,-42.28l-59.93 14.17c3.48,7.43 3.48,16.26 0,26.72 -5.58,11.38 -13.01,19.74 -22.53,25.09 -6.27,3.72 -12.54,4.18 -18.35,1.39 -4.42,-1.86 -6.74,-7.43 -6.74,-16.96 0.93,-9.06 6.97,-21.14 18.35,-36.24 0.93,-1.62 13.01,-16.72 36.01,-44.83l16.96 -16.26c4.64,-6.5 9.99,-9.29 16.49,-8.83l1.39 0 1.16 1.39c0.93,2.56 0.46,5.11 -1.16,7.43l-9.52 12.31 -36.24 43.44c39.95,-7.2 68.3,-16.03 85.25,-26.48 1.63,-0.93 3.72,-2.09 6.04,-3.48 2.32,-1.39 4.42,-2.56 6.74,-3.72 2.32,-1.16 4.88,-1.63 7.43,-1.63 1.86,0 2.79,0.46 2.79,1.39 0.93,1.63 0.47,4.18 -1.39,7.43 -39.96,39.95 -64.81,68.76 -74.8,86.41 -8.13,13.94 -11.15,25.09 -8.83,33.22 3.72,6.5 16.73,3.25 39.49,-9.52 22.3,-15.8 62.02,-50.64 119.63,-104.77 4.64,-4.41 7.43,-4.88 8.36,-1.39 0.7,1.86 -1.39,5.58 -6.97,10.92 -53.89,50.41 -92.45,83.4 -115.68,98.73 -23,15.33 -39.95,17.89 -50.41,7.43zm-48.32 -44.83c2.79,4.41 7.43,3.72 13.7,-2.79 4.64,-2.79 8.36,-7.43 11.15,-13.94 3.02,-6.5 4.41,-12.31 4.41,-17.42 0,-4.88 -1.39,-7.43 -4.64,-7.43 -3.72,-0.93 -9.52,4.88 -17.66,17.42 -8.13,12.54 -10.45,20.44 -6.97,24.16zm392.12 99.42c-13.24,-6.51 -19.05,-18.35 -17.42,-35.54 1.63,-17.19 8.83,-35.08 22.07,-53.66l42.98 -54.59 -40.19 26.72c-29.97,19.51 -50.87,27.87 -62.72,25.09 -10.45,-1.86 -16.26,-8.36 -17.65,-19.75 -1.39,-11.38 1.16,-22.77 7.43,-34.61l19.74 -23.93 -85.02 58.54c-30.89,21.37 -54.59,24.63 -71.55,9.53 -8.13,-8.13 -8.59,-19.75 -1.16,-34.61 14.87,-26.02 29.5,-38.79 43.44,-38.79 10.45,0.93 8.59,7.67 -5.34,20.44 -8.13,9.06 -13.94,15.57 -16.96,19.75 -7.43,12.08 -9.76,21.6 -6.97,28.57 2.79,6.74 10.22,8.83 22.53,6.04 18.58,-4.64 85.49,-51.57 200.71,-140.77 12.31,-10.45 19.51,-15.57 21.83,-15.1 3.48,0.93 3.72,5.58 0.7,13.94 -3.25,8.36 -6.27,13.94 -8.83,16.73 -37.17,32.75 -58.54,51.8 -64.11,57.14 -14.87,15.1 -26.48,29.27 -34.61,42.98 -1.86,2.55 -3.25,6.74 -4.42,12.54 -1.16,5.58 0.23,9.76 4.42,12.54 11.38,2.79 49.94,-19.05 115.68,-65.27 22.3,-16.73 35.08,-26.48 38.79,-29.27l10.92 -8.13c1.86,-0.93 3.25,-1.39 4.65,-1.39 1.86,0 2.79,2.32 2.79,6.74 0,2.79 -0.46,5.34 -1.39,7.43 -0.93,2.32 -2.79,4.88 -5.81,7.9 -2.79,3.02 -4.88,4.88 -5.81,5.81 -3.48,4.41 -9.52,11.15 -17.89,19.98 -8.36,8.83 -14.4,15.57 -18.12,20.21 -55.75,62.02 -79.68,103.37 -71.55,123.82 7.43,16.73 48.32,1.16 123.35,-46.92 60.4,-39.95 109.88,-76.66 148.9,-110.34 5.58,-5.34 8.36,-5.34 8.36,0 0,1.86 -2.79,5.58 -8.36,10.92 -39.03,32.76 -91.53,70.85 -157.73,114.29 -55.98,36.24 -94.54,51.34 -115.68,45.07zm278.76 -54.59c-9.06,-11.38 -5.11,-31.59 11.62,-61.1 8.13,-13.24 19.74,-27.41 34.84,-42.28l-59.93 14.17c3.48,7.43 3.48,16.26 0,26.72 -5.58,11.38 -13.01,19.74 -22.53,25.09 -6.27,3.72 -12.54,4.18 -18.35,1.39 -4.42,-1.86 -6.74,-7.43 -6.74,-16.96 0.93,-9.06 6.97,-21.14 18.35,-36.24 0.93,-1.62 13.01,-16.72 36.01,-44.83l16.96 -16.26c4.64,-6.5 9.99,-9.29 16.49,-8.83l1.39 0 1.16 1.39c0.93,2.56 0.46,5.11 -1.16,7.43l-9.52 12.31 -36.24 43.44c39.95,-7.2 68.3,-16.03 85.25,-26.48 1.63,-0.93 3.72,-2.09 6.04,-3.48 2.32,-1.39 4.42,-2.56 6.74,-3.72 2.32,-1.16 4.88,-1.63 7.43,-1.63 1.86,0 2.79,0.46 2.79,1.39 0.93,1.63 0.47,4.18 -1.39,7.43 -39.96,39.95 -64.81,68.76 -74.8,86.41 -8.13,13.94 -11.15,25.09 -8.83,33.22 3.72,6.5 16.73,3.25 39.49,-9.52 22.3,-15.8 62.02,-50.64 119.63,-104.77 4.64,-4.41 7.43,-4.88 8.36,-1.39 0.7,1.86 -1.39,5.58 -6.97,10.92 -53.89,50.41 -92.45,83.4 -115.68,98.73 -23,15.33 -39.95,17.89 -50.41,7.43zm-48.32 -44.83c2.79,4.41 7.43,3.72 13.7,-2.79 4.64,-2.79 8.36,-7.43 11.15,-13.94 3.02,-6.5 4.41,-12.31 4.41,-17.42 0,-4.88 -1.39,-7.43 -4.64,-7.43 -3.72,-0.93 -9.52,4.88 -17.66,17.42 -8.13,12.54 -10.45,20.44 -6.97,24.16zm-106.16 446.48c-21.37,0 -27.18,-19.05 -17.66,-57.15 2.79,-15.1 9.52,-30.43 20.44,-46.46 8.13,-12.08 30.2,-37.17 65.97,-74.8 34.38,-34.38 64.11,-60.86 89.2,-79.68 29.97,-22.07 52.04,-38.56 66.67,-48.78l52.96 -36.24c25.09,-15.8 42.05,-27.88 51.11,-36.01 7.2,-15.8 10.68,-30.43 10.22,-43.67 0,-6.27 -5.58,-9.06 -16.96,-8.13 -3.72,1.86 -5.58,0.47 -5.58,-3.95l-1.16 -11.61c-1.86,-3.72 1.62,-9.52 10.68,-17.65 70.85,-60.4 106.16,-98.5 106.16,-114.29 -0.7,-5.58 -9.29,-3.25 -25.09,6.74 -6.27,4.41 -30.43,25.78 -72.24,63.88 -1.63,1.86 -3.72,1.39 -6.04,-1.39 -0.93,-1.63 2.55,-6.27 10.22,-13.47l38.79 -34.85c14.17,-13.01 25.09,-21.83 33.45,-26.48l3.95 -2.79c14.17,-6.27 22.53,-5.34 25.32,2.79 2.55,4.65 2.55,11.38 0,20.44 -7.43,20.44 -26.95,45.53 -58.54,75.5l-29.27 27.88 -12.31 12.31 5.34 10.22c4.64,8.13 6.5,17.42 5.58,27.87l-1.39 19.05c10.45,-6.27 26.25,-17.42 47.62,-33.22 20.44,-15.1 45.3,-35.54 74.8,-61.33l34.15 -32.06c5.34,-3.48 8.13,-3.95 8.13,-1.39 0,2.79 -3.25,7.43 -9.52,13.7 -20.44,20.44 -43.44,40.42 -68.76,59.93l-27.88 22.3c-14.17,10.45 -23.93,17.65 -29.27,21.14l-15.1 9.52 -15.57 11.61 -13.7 41.58c-5.34,16.73 -12.31,31.59 -20.91,44.83 -13.24,21.37 -32.75,49.01 -58.54,83.16 -26.95,36.24 -56.45,70.15 -89.2,101.98 -46.23,42.74 -81.31,71.08 -104.77,85.02 -26.71,16.96 -47.16,24.86 -61.33,23.93zm-12.31 -26.48c0,7.2 2.55,11.61 7.67,13.47 4.88,1.86 11.15,1.39 18.58,-1.39 7.43,-2.55 14.17,-5.58 19.74,-8.83 5.81,-3.25 10.45,-6.04 13.94,-8.83 38.1,-24.86 68.76,-50.64 91.99,-76.89 87.58,-92.92 145.65,-170.97 174.22,-234.16l10.92 -22.3 -28.11 18.35c-98.26,69.69 -150.76,107.32 -157.03,112.9 -34.61,28.57 -67.37,61.09 -98.73,97.33 -36.24,39.95 -54.13,76.66 -53.2,110.34zm575.87 -496.19l-1.39 -5.58c0,-3.48 1.39,-6.97 3.95,-10.22 5.58,-3.48 9.76,-3.02 12.78,1.39 2.79,4.64 3.02,9.29 0.23,14.4 -0.93,1.86 -3.25,2.55 -7.2,2.55 -3.72,0 -6.74,-0.7 -8.36,-2.55zm-37.63 68.06c-3.48,-1.86 -5.81,-5.58 -6.97,-11.38 -1.16,-5.58 -0.23,-9.29 3.02,-11.15 10.45,-5.34 16.26,-2.09 17.65,10.22 0.93,3.72 -0.23,7.2 -3.48,10.92 -3.02,3.72 -6.51,3.95 -10.22,1.39z"></path> </g> </svg> 