<?xml version="1.0" encoding="UTF-8"?> <svg xmlns="http://www.w3.org/2000/svg" xmlns:xlink="http://www.w3.org/1999/xlink" xmlns:xodm="http://www.corel.com/coreldraw/odm/2003" xml:space="preserve" width="159.624mm" height="33.5738mm" version="1.1" style="shape-rendering:geometricPrecision; text-rendering:geometricPrecision; image-rendering:optimizeQuality; fill-rule:evenodd; clip-rule:evenodd" viewBox="0 0 590655.42 124233.18"> <defs> <style type="text/css"> .fil0 {fill:#7A5828;fill-rule:nonzero} </style> </defs> <g id="Слой_x0020_1"> <metadata id="CorelCorpID_0Corel-Layer"></metadata> <path class="fil0" d="M235457.21 1587.43c8912.92,-2479.94 13584.92,-2048.49 14016,1257.73 539.13,2875.13 -2407.79,6253.14 -8840.76,10206.54 -2336,1257.73 -4923.62,2479.57 -7798.76,3665.52 -7295.51,2875.13 -15561.25,4815.94 -24761.68,5786.16 -8050.01,1006.48 -12830.05,1760.97 -14303.51,2336 -3018.71,1114.16 -5893.84,2623.51 -8625.03,4528.43 -27169.46,17825.46 -44563.84,38094.6 -52146.87,60843.69 -4132.87,11931.62 -3414.27,20700.6 2120.27,26343.19 3594.1,3557.84 8050.38,5570.43 13369.19,6001.52 6037.78,682.71 13728.49,-143.57 23072.49,-2551.73 10314.22,-2587.62 21275.62,-6181.35 32847.95,-10817.46 3845.35,-1401.67 8229.84,-3486.05 13153.46,-6217.25 287.51,-143.94 575.03,-179.83 826.65,-107.68 287.51,71.79 359.3,251.25 215.36,502.87 -143.57,431.46 -610.92,862.54 -1473.46,1294 -16711.3,8193.95 -32883.47,14016 -48516.87,17466.16 -7439.09,2048.49 -14375.3,2587.25 -20736.49,1688.82 -14411.19,-1904.55 -21599.03,-9990.81 -21599.03,-24330.22 287.51,-13692.6 6576.55,-27528.76 18903.73,-41544.76 12326.81,-13980.11 26235.14,-25372.6 41724.6,-34141.57 -3989.29,682.71 -15058.38,826.28 -33243.14,395.19 -3594.1,-143.57 -8733.08,-503.24 -15381.78,-1150.05 -6684.59,-610.92 -11356.59,-1006.11 -14123.68,-1150.05 -11500.54,-862.54 -22857.13,-1293.63 -34105.68,-1365.78 -12219.14,-287.51 -23395.9,575.03 -33566.54,2623.51 -19119.46,3989.29 -34285.51,12111.46 -45498.17,24330.59 -6468.87,6468.87 -9739.56,12146.98 -9811.35,17034.71 0,1294 -179.46,1689.19 -610.92,1294 -1114.16,-1006.48 -575.03,-3701.78 1617.4,-8158.05 2227.95,-4456.64 5067.19,-8625.4 8589.14,-12506.65 4276.81,-4636.11 8589.51,-8302 12901.84,-10997.3 4312.7,-2695.3 10134.76,-5354.71 17430.27,-7942.33 8768.97,-3162.65 18148.87,-5175.24 28103.79,-6109.57 12902.21,-1617.4 36190.06,-1078.27 69792.86,1581.14 10529.95,1114.16 22281.73,1473.46 35183.58,1042.37l16208.43 -826.65c21850.65,-11392.49 36872.76,-18148.87 45066.71,-20305.03zm-2012.59 12937.73c6756.38,-2875.13 11356.59,-5966 13800.27,-9272.22 1006.48,-1617.03 934.7,-2695.3 -215.36,-3270.33 -3162.65,-1401.67 -9739.56,71.79 -19730.38,4384.49 -9990.81,4312.7 -20161.46,9559.73 -30475.68,15741.08 16064.49,-1473.46 28283.62,-4025.19 36621.14,-7583.03zm-101705.74 23252.32c-11356.59,14123.68 -19371.08,23755.19 -24007.19,28966.33 -8337.52,9200.06 -17106.49,17430.27 -26306.92,24725.78 -11500.17,9056.49 -22281.73,16279.85 -32344.7,21599.03 -12326.81,6324.93 -22245.84,9487.57 -29684.93,9487.57 -2587.62,0 -4780.05,-503.24 -6612.81,-1545.25 -1832.76,-1006.48 -2875.13,-2156.54 -3162.65,-3414.27 -287.51,-1904.55 108.05,-3342.11 1150.05,-4312.7 970.22,-1401.3 1617.4,-2048.49 1904.92,-1904.55 287.51,143.57 -72.16,934.33 -1042.37,2336 -1760.97,2300.11 -1221.84,4312.7 1653.29,6001.52 3018.71,2012.59 7834.65,2192.43 14447.09,503.24 14950.33,-4132.87 32416.49,-14626.92 52434.38,-31482.16 10817.46,-8768.97 20808.27,-18364.6 30008.7,-28750.6 1617.03,-1869.02 8409.67,-10350.48 20413.08,-25372.6 1257.73,-1617.4 2120.27,-2515.83 2587.62,-2731.56 466.98,-215.36 970.22,-35.89 1509.35,539.13 502.87,683.08 -467.35,2479.94 -2946.92,5355.08zm-18831.94 46863.58c-2048.49,4132.87 -3342.11,7654.81 -3917.14,10529.95 -251.62,1760.97 -143.94,3270.33 323.41,4528.43 0,143.57 107.68,431.09 323.41,826.65 215.73,431.09 431.09,862.54 646.81,1329.52 215.73,467.35 359.3,683.08 503.24,683.08 -1869.02,1257.73 -3342.48,1185.95 -4420.38,-251.62 -1042.37,-1437.57 -1581.51,-3198.54 -1581.51,-5211.13 0,-2875.13 790.75,-6181.35 2336,-9919.03 2012.59,-4887.73 5786.16,-11356.59 11248.92,-19371.08 6324.93,-9307.74 11680,-15956.44 16136.27,-19873.95 2587.62,-2048.49 4240.92,-2982.81 4923.62,-2767.09 1006.11,-251.62 1509.35,-179.83 1545.25,215.73 35.89,431.09 -1114.16,1652.92 -3450.16,3701.41 -7618.92,7798.76 -15848.76,19658.59 -24617.73,35579.14zm69181.94 -8840.76c575.03,-431.46 826.28,-431.46 826.28,0 0,431.09 -143.57,754.49 -395.19,1042 -1617.03,1258.1 -2802.98,2120.64 -3593.73,2515.83 -3162.65,1760.97 -6576.92,1940.81 -10206.54,539.13 -862.54,1617.03 -1689.19,2982.81 -2515.83,4096.97 -1293.63,1760.97 -3162.65,3773.57 -5714.01,6001.89 -3019.08,2048.49 -5067.56,3054.6 -6217.62,3054.6 -1868.65,287.51 -3018.71,-431.09 -3450.16,-2192.43 -287.14,-2048.49 1329.89,-5103.09 4887.73,-9164.17 3557.84,-4061.08 6145.46,-6109.57 7834.65,-6109.57 575.03,0 1006.48,359.3 1257.73,1042.37 -107.68,-251.62 -179.46,-754.86 -179.46,-1473.46 0,-970.59 287.51,-1833.13 934.33,-2623.51 970.22,-1401.67 2048.49,-1760.97 3162.65,-1042.37 1401.67,970.22 1473.46,3414.27 215.73,7259.62 2299.74,970.22 4635.74,1185.95 6935.84,610.92 1689.19,-179.83 3773.57,-1401.67 6217.62,-3557.84zm-14231.73 2515.46c143.57,-143.57 251.62,-359.3 323.41,-610.92 71.79,-287.51 143.57,-538.76 215.73,-754.49 71.79,-215.73 143.57,-503.24 215.36,-826.65 72.16,-359.3 108.05,-718.6 108.05,-1114.16 0,-395.19 0,-754.49 0,-1114.16 0,-359.3 -71.79,-646.81 -215.73,-934.33 -287.51,-1114.16 -826.65,-1185.95 -1689.19,-215.73 -431.09,287.51 -682.71,718.97 -826.65,1258.1 -287.51,1401.67 -143.57,2479.57 395.56,3270.33 431.09,431.09 790.75,682.71 1078.27,826.65l395.19 215.36zm-8625.4 11284.81c3162.65,-2479.57 5894.21,-5857.95 8230.21,-10242.43l-1078.27 -610.92c-539.13,-287.51 -1006.48,-718.6 -1365.78,-1257.73l-2084.38 1473.46c-1617.4,1114.16 -3270.33,2623.51 -4959.51,4528.06 -4636.11,5750.27 -5857.95,8625.4 -3701.78,8625.4 143.94,-143.94 359.67,-215.73 647.18,-215.73 1113.79,-143.57 2551.36,-898.43 4312.33,-2300.11zm47402.71 -27600.55c-4779.68,1904.55 -8014.11,1365.41 -9703.3,-1581.51 -1617.03,-2443.68 -1257.73,-4995.41 1042.37,-7690.71 718.6,-970.59 1437.57,-1150.05 2227.95,-503.24 143.94,143.94 143.94,431.46 0,934.33 -143.57,143.94 -431.09,610.92 -898.43,1365.78 -466.98,790.75 -754.49,1437.57 -898.43,2012.59 -718.6,3557.84 395.56,5390.6 3270.33,5462.75 683.08,0 3090.86,-790.75 7151.94,-2408.16 287.51,-143.57 1257.73,-718.6 2946.92,-1688.82 287.51,-143.94 575.03,-72.16 898.43,215.36 323.41,287.51 395.19,539.13 251.62,826.65 0,143.94 -107.68,251.62 -359.3,323.41 -251.62,71.79 -467.35,179.83 -683.08,323.41 -215.36,143.94 -395.19,287.51 -538.76,395.56 -395.56,359.3 -1976.7,1042 -4708.26,2012.59zm-21383.3 37915.14c-2192.06,682.71 -3773.57,431.09 -4743.79,-862.54 -1904.92,-2156.54 -934.33,-5786.16 2839.24,-10817.83l2227.95 -2336c-7043.89,3989.29 -11284.44,5247.03 -12758.27,3701.78 -826.28,-862.54 -718.6,-2371.89 431.46,-4528.06 539.13,-1006.48 2982.81,-3665.89 7259.62,-8014.48 143.57,-143.57 395.19,-431.09 790.75,-826.65 395.19,-431.09 682.71,-790.38 898.43,-1113.79 215.36,-323.78 502.87,-575.03 934.33,-790.75 431.09,-215.73 790.75,-251.62 1042,-108.05 1401.67,718.97 1365.78,2012.59 -179.46,3881.62 -575.03,575.03 -1832.76,1760.97 -3737.67,3593.73 -1940.81,1832.76 -3521.95,3414.27 -4743.79,4779.68 -1221.84,1365.78 -1725.08,2264.21 -1437.57,2695.67 575.03,970.22 3162.65,251.62 7798.76,-2228.32 2587.25,-1257.73 5606.33,-3378.38 9056.49,-6397.08 2299.74,-2048.49 3953.03,-2695.3 4959.51,-2012.59 395.19,431.46 71.79,1221.84 -1078.27,2407.79l-4528.43 4528.43c-4636.11,4168.76 -7439.09,7870.54 -8409.3,11176.76 -431.46,1760.97 215.36,2623.51 1904.55,2623.51 3306.22,0 12219.14,-6361.19 26738.38,-19154.98 2731.19,-2444.05 4312.33,-3630 4743.79,-3486.05 395.19,143.57 359.3,502.87 -215.73,1077.9 -575.03,539.13 -3378.01,3019.08 -8409.67,7367.67 -10421.9,8768.97 -17537.95,13728.49 -21383.3,14842.65zm64617.25 -6433.34c-4599.84,1617.4 -7583.03,1006.48 -8840.76,-1796.87 -395.19,-1114.16 -467.35,-2767.09 -215.73,-4923.62 431.46,-1904.55 1473.46,-3917.14 3054.97,-6001.52 2336,-3162.65 4887.73,-5714.38 7690.71,-7583.03 2875.13,-1617.4 5282.92,-2407.79 7187.84,-2336 2012.59,0 3198.54,575.03 3557.84,1689.19 359.3,1113.79 -179.83,2551.36 -1581.14,4312.33 -1114.16,1401.67 -2156.54,2515.83 -3162.65,3306.59 -970.59,826.65 -1653.29,1185.95 -1976.7,1114.16 -359.3,-72.16 -610.92,-179.83 -754.86,-323.78 2048.49,-1257.73 3701.78,-2767.09 4995.41,-4492.17 1294,-1760.97 1833.13,-2946.92 1545.62,-3486.05 -1006.48,-2336 -4025.19,-1221.84 -9056.49,3270.33 -1617.4,1258.1 -3665.89,3450.16 -6109.57,6612.81 -3019.08,4276.81 -4061.08,7439.46 -3162.65,9487.94 718.6,1760.97 2479.57,2012.22 5354.71,718.6 5498.65,-2156.17 11248.92,-5714.38 17286.7,-10601.73 682.71,-575.03 2838.87,-2444.05 6432.97,-5606.7 538.76,-538.76 970.22,-538.76 1257.73,0 0,287.51 -215.73,647.18 -646.81,1078.27 -8625.4,7762.86 -16244.32,12974 -22857.13,15561.25zm30260.32 5786.16c-3162.65,1006.48 -5175.24,503.24 -6037.78,-1473.46 -539.13,-2012.59 -575.03,-4096.97 -71.79,-6145.46 466.98,-2084.38 1185.95,-3701.41 2084.38,-4887.73 -2443.68,1725.08 -4132.87,2767.46 -5031.3,3054.97 -2048.49,826.65 -3630,1042 -4744.16,610.92 -1150.05,-431.09 -1652.92,-1401.67 -1581.14,-2982.81 71.79,-1581.51 575.03,-3270.33 1581.14,-4995.41 2587.62,-4025.19 6469.24,-7116.05 11680,-9272.22 4636.11,-2048.49 7295.51,-1832.76 8014.48,610.92 539.13,1617.4 179.46,3198.54 -1078.27,4743.79 -395.19,826.65 -575.03,1509.35 -503.24,2012.59 108.05,539.13 -359.3,1545.25 -1473.46,2946.92 -431.09,431.46 -1006.11,1078.27 -1760.97,1940.81 -718.6,862.54 -1365.41,1689.19 -1940.44,2407.79 -575.03,754.86 -1042.37,1473.46 -1473.46,2156.54 -2731.56,5642.22 -2946.92,8517.35 -647.18,8660.93 1904.92,251.62 5930.1,-1904.55 12111.46,-6540.65 4025.19,-3019.08 8697.19,-7151.94 14016,-12434.86l2731.19 -2839.24c1006.48,-682.71 1509.72,-682.71 1581.51,0 0,143.94 -467.35,647.18 -1365.78,1473.46l-8193.95 7798.76c-2911.03,2731.56 -5678.11,5139.35 -8337.89,7151.94 -4060.71,3306.22 -7259.25,5318.81 -9559.36,6001.52zm-12865.95 -10098.49c143.57,431.09 1329.52,287.51 3593.73,-431.46 287.51,-143.57 1509.35,-934.33 3665.52,-2407.79 143.94,-143.94 1581.51,-1365.78 4312.7,-3701.78 287.51,-251.62 1042.37,-898.43 2264.21,-1832.76 1221.84,-934.33 2048.49,-1760.97 2479.57,-2479.94 1904.92,-2443.68 2120.64,-4096.97 647.18,-4923.25 -575.03,-575.03 -2156.54,-72.16 -4744.16,1473.46 -2874.76,1581.14 -5785.79,4061.08 -8696.82,7403.19 -2911.03,3342.11 -4096.97,5642.22 -3521.95,6900.32zm52865.47 4959.51c-2336.37,-1617.4 -2515.83,-4096.97 -539.13,-7367.67l215.36 -431.09c970.59,-1760.97 2156.54,-3414.27 3558.21,-4995.41 1401.3,-1581.51 3126.38,-3342.48 5138.98,-5282.92 1976.7,-1904.92 3630,-3594.1 4887.73,-4995.41 -1114.16,718.6 -3701.78,2551.36 -7690.71,5570.43l-4312.7 3270.33c-10314.59,7439.09 -16819.35,11500.17 -19478.76,12219.14 -2048.49,575.03 -3306.22,0 -3809.46,-1689.19 -826.65,-2731.19 754.86,-6109.57 4743.79,-10098.86 2731.56,-2874.76 4600.21,-4240.55 5570.43,-4096.97 1437.57,251.62 1222.21,1258.1 -610.92,2946.92 -1760.97,1617.4 -2838.87,2623.51 -3270.33,3054.97 -3162.65,3126.75 -4743.79,5893.84 -4743.79,8193.95 0,970.22 1150.05,970.22 3486.05,-107.68 2300.11,-1042.37 4528.06,-2371.89 6612.44,-3989.29 10206.54,-7008 17394.38,-12255.03 21599.03,-15705.19 718.97,-682.71 1042.37,-1293.63 1042.37,-1760.97 0,-575.03 682.71,-646.81 2012.59,-215.73 826.65,539.13 1617.03,826.65 2300.11,826.65 1293.63,0 934.33,1006.48 -1042.37,3054.97 -287.51,287.51 -682.71,718.6 -1257.73,1257.73 -6468.87,6756.38 -10638,11715.89 -12542.54,14950.33 -1401.67,2192.43 -1617.4,3701.78 -610.92,4528.43 1617.03,1401.67 5103.09,359.3 10458.16,-3162.65 5390.6,-3486.05 10134.39,-7367.3 14267.62,-11572.32l2012.22 -1904.55c431.46,-395.56 754.86,-395.56 1042.37,0 143.94,287.51 71.79,575.03 -215.73,862.54l-4312.7 4096.97c-5462.38,5211.13 -11140.87,9235.95 -17034.71,12111.09 -3378.01,1401.67 -5857.95,1545.62 -7474.98,431.46zm39388.6 9451.68c-575.03,-1114.16 -251.62,-2839.24 934.33,-5139.35 2300.11,-4276.44 7187.84,-10170.28 14626.92,-17681.52 2444.05,-2479.94 3630,-3917.51 3486.05,-4348.59 -287.51,-539.13 -1760.97,-143.94 -4420.38,1221.84 -2695.3,1365.78 -5175.24,2839.24 -7475.35,4384.49 -3162.65,1869.02 -5822.05,4061.08 -8014.11,6504.76 -1257.73,1294 -1832.76,1294 -1689.19,0 143.94,-2012.22 1221.84,-4060.71 3270.33,-6073.3 431.46,-575.03 1617.4,-1940.81 3630,-4061.08 2012.59,-2156.54 3809.46,-4096.97 5462.38,-5857.95 1653.29,-1760.97 2551.73,-2767.46 2695.67,-3054.97 287.51,-539.13 431.09,-1006.11 431.09,-1365.41 0,-359.67 -287.51,-467.35 -862.54,-323.78 -2875.13,575.03 -7403.19,3306.59 -13584.55,8158.05 -6145.46,4887.73 -10494.05,9092.75 -12938.1,12578.43 -682.71,718.97 -970.22,1222.21 -826.65,1473.83 0,287.51 -287.51,574.66 -862.17,862.17 -539.13,431.46 -1042.37,467.35 -1401.67,108.05 -395.56,-359.3 -646.81,-1078.27 -790.75,-2228.32 -431.09,-3845.35 2875.13,-9308.11 9883.13,-16423.79 3450.16,-3414.27 5965.63,-5498.65 7583.03,-6217.25 862.54,-251.62 1581.14,-431.46 2228.32,-503.24 682.71,143.57 1006.11,539.13 934.33,1185.95 -72.16,682.71 -467.35,1150.05 -1150.05,1437.57 -1006.48,431.09 -2946.92,2084.38 -5893.84,4959.51 -4276.81,4276.81 -7187.84,7511.24 -8661.3,9667.41l-2515.83 5175.24c862.54,-1006.48 1940.81,-2120.64 3270.33,-3378.38 6037.78,-5893.84 11536.43,-10494.05 16531.84,-13800.27 3450.16,-2444.05 6541.02,-3809.46 9272.22,-4096.97 682.71,-143.94 1150.05,35.89 1401.67,539.13 251.62,466.98 359.3,1042 287.51,1652.92 -72.16,647.18 -251.62,1222.21 -539.13,1689.19 -431.46,1006.48 -2336,3486.05 -5678.48,7475.35l-2946.92 3701.41c8193.95,-5067.19 12938.1,-7043.89 14195.84,-6001.52 287.51,143.57 503.24,359.3 646.81,610.92 431.46,1293.63 -826.65,3342.11 -3701.78,6217.25l-5785.79 6325.3 -1581.51 1904.55c-1114.16,1114.16 -2084.38,2192.43 -2946.92,3198.54 -826.65,1042.37 -1832.76,2336 -2982.81,3917.51 -1185.95,1581.14 -1832.76,2731.19 -1976.7,3450.16 -107.68,754.49 -71.79,1473.46 215.73,2156.17 1760.97,1006.48 7511.24,-2515.83 17286.33,-10529.95 3018.71,-2443.68 7079.79,-6181.35 12219.14,-11248.92l5462.75 -4959.51c287.51,-287.51 502.87,-431.09 646.81,-431.09 395.19,0 610.92,143.57 610.92,431.09 143.57,143.94 71.79,359.67 -215.73,647.18 -826.65,682.71 -2587.62,2263.84 -5247.03,4743.79 -2659.41,2443.68 -4743.79,4312.7 -6217.25,5570.43 -4923.62,4636.11 -9236.32,8373.78 -12937.73,11248.92 -7511.24,5498.28 -11967.51,7008 -13369.19,4528.06zm44419.9 -4312.7c-3162.65,1006.48 -5175.24,503.24 -6037.78,-1473.46 -539.13,-2012.59 -575.03,-4096.97 -71.79,-6145.46 466.98,-2084.38 1185.95,-3701.41 2084.38,-4887.73 -2443.68,1725.08 -4132.87,2767.46 -5031.3,3054.97 -2048.49,826.65 -3630,1042 -4744.16,610.92 -1150.05,-431.09 -1652.92,-1401.67 -1581.14,-2982.81 71.79,-1581.51 575.03,-3270.33 1581.14,-4995.41 2587.62,-4025.19 6469.24,-7116.05 11680,-9272.22 4636.11,-2048.49 7295.51,-1832.76 8014.48,610.92 539.13,1617.4 179.46,3198.54 -1078.27,4743.79 -395.19,826.65 -575.03,1509.35 -503.24,2012.59 108.05,539.13 -359.3,1545.25 -1473.46,2946.92 -431.09,431.46 -1006.11,1078.27 -1760.97,1940.81 -718.6,862.54 -1365.41,1689.19 -1940.44,2407.79 -575.03,754.86 -1042.37,1473.46 -1473.46,2156.54 -2731.56,5642.22 -2946.92,8517.35 -647.18,8660.93 1904.92,251.62 5930.1,-1904.55 12111.46,-6540.65 4025.19,-3019.08 8697.19,-7151.94 14016,-12434.86l2731.19 -2839.24c1006.48,-682.71 1509.72,-682.71 1581.51,0 0,143.94 -467.35,647.18 -1365.78,1473.46l-8193.95 7798.76c-2911.03,2731.56 -5678.11,5139.35 -8337.89,7151.94 -4060.71,3306.22 -7259.25,5318.81 -9559.36,6001.52zm-12865.95 -10098.49c143.57,431.09 1329.52,287.51 3593.73,-431.46 287.51,-143.57 1509.35,-934.33 3665.52,-2407.79 143.94,-143.94 1581.51,-1365.78 4312.7,-3701.78 287.51,-251.62 1042.37,-898.43 2264.21,-1832.76 1221.84,-934.33 2048.49,-1760.97 2479.57,-2479.94 1904.92,-2443.68 2120.64,-4096.97 647.18,-4923.25 -575.03,-575.03 -2156.54,-72.16 -4744.16,1473.46 -2874.76,1581.14 -5785.79,4061.08 -8696.82,7403.19 -2911.03,3342.11 -4096.97,5642.22 -3521.95,6900.32zm47905.95 8625.03c-2192.43,-143.57 -3126.75,-1581.14 -2839.24,-4312.7 431.09,-3449.79 2120.27,-6971.74 5138.98,-10637.63l2659.78 -3162.65 -2336.37 215.73c-970.22,143.57 -2587.25,215.73 -4851.47,215.73 -970.22,0 -1689.19,143.57 -2192.43,431.09 -502.87,287.51 -1401.3,1185.95 -2731.19,2731.19 -1760.97,2300.11 -2551.73,3737.67 -2336,4312.7 0,718.97 -251.62,1078.27 -826.65,1150.05 -2443.68,0 -2587.62,-2084.38 -431.09,-6289.03 862.54,-1760.97 3090.49,-4348.59 6756.38,-7691.08 3629.63,-3378.01 6325.3,-5426.49 8086.27,-6109.57 862.54,-287.51 1796.87,-287.51 2838.87,0 1006.48,395.56 467.35,1365.78 -1581.14,2839.24 -1725.08,1114.16 -3378.38,2479.94 -4923.62,4096.97 -1760.97,1760.97 -2515.83,2803.35 -2264.21,3126.75 251.62,287.51 1545.62,395.19 3953.4,251.62 2300.11,-287.51 4276.44,-1114.16 5893.84,-2551.73 2300.11,-1725.08 3953.4,-2264.21 4923.62,-1545.25 575.03,107.68 718.6,502.87 431.09,1150.05 -431.09,682.71 -2227.95,2623.51 -5354.71,5785.79 -4025.19,3989.29 -6325.3,6469.24 -6972.11,7367.67 -2012.59,3450.16 -2659.41,5642.22 -1868.65,6648.33 970.22,1258.1 3090.49,1042.37 6397.08,-646.81 3593.73,-1904.55 8984.33,-5714.01 16208.06,-11464.27l8229.84 -6864.43c826.65,-826.28 1258.1,-826.28 1258.1,0 0,287.51 -287.51,718.97 -826.65,1258.1 -12363.08,10314.22 -20916.32,16495.57 -25696,18544.06 -1760.97,754.86 -3342.48,1150.05 -4743.79,1150.05zm35183.58 1473.46c-3162.65,1006.48 -5175.24,503.24 -6037.78,-1473.46 -539.13,-2012.59 -575.03,-4096.97 -71.79,-6145.46 466.98,-2084.38 1185.95,-3701.41 2084.38,-4887.73 -2443.68,1725.08 -4132.87,2767.46 -5031.3,3054.97 -2048.49,826.65 -3630,1042 -4744.16,610.92 -1150.05,-431.09 -1652.92,-1401.67 -1581.14,-2982.81 71.79,-1581.51 575.03,-3270.33 1581.14,-4995.41 2587.62,-4025.19 6469.24,-7116.05 11680,-9272.22 4636.11,-2048.49 7295.51,-1832.76 8014.48,610.92 539.13,1617.4 179.46,3198.54 -1078.27,4743.79 -395.19,826.65 -575.03,1509.35 -503.24,2012.59 108.05,539.13 -359.3,1545.25 -1473.46,2946.92 -431.09,431.46 -1006.11,1078.27 -1760.97,1940.81 -718.6,862.54 -1365.41,1689.19 -1940.44,2407.79 -575.03,754.86 -1042.37,1473.46 -1473.46,2156.54 -2731.56,5642.22 -2946.92,8517.35 -647.18,8660.93 1904.92,251.62 5930.1,-1904.55 12111.46,-6540.65 4025.19,-3019.08 8697.19,-7151.94 14016,-12434.86l2731.19 -2839.24c1006.48,-682.71 1509.72,-682.71 1581.51,0 0,143.94 -467.35,647.18 -1365.78,1473.46l-8193.95 7798.76c-2911.03,2731.56 -5678.11,5139.35 -8337.89,7151.94 -4060.71,3306.22 -7259.25,5318.81 -9559.36,6001.52zm-12865.95 -10098.49c143.57,431.09 1329.52,287.51 3593.73,-431.46 287.51,-143.57 1509.35,-934.33 3665.52,-2407.79 143.94,-143.94 1581.51,-1365.78 4312.7,-3701.78 287.51,-251.62 1042.37,-898.43 2264.21,-1832.76 1221.84,-934.33 2048.49,-1760.97 2479.57,-2479.94 1904.92,-2443.68 2120.64,-4096.97 647.18,-4923.25 -575.03,-575.03 -2156.54,-72.16 -4744.16,1473.46 -2874.76,1581.14 -5785.79,4061.08 -8696.82,7403.19 -2911.03,3342.11 -4096.97,5642.22 -3521.95,6900.32zm51499.68 14411.19c-575.03,-1114.16 -251.62,-2839.24 934.33,-5139.35 2300.11,-4276.44 7187.84,-10170.28 14626.92,-17681.52 2444.05,-2479.94 3630,-3917.51 3486.05,-4348.59 -287.51,-539.13 -1760.97,-143.94 -4420.38,1221.84 -2695.3,1365.78 -5175.24,2839.24 -7475.35,4384.49 -3162.65,1869.02 -5822.05,4061.08 -8014.11,6504.76 -1257.73,1294 -1832.76,1294 -1689.19,0 143.94,-2012.22 1221.84,-4060.71 3270.33,-6073.3 431.46,-575.03 1617.4,-1940.81 3630,-4061.08 2012.59,-2156.54 3809.46,-4096.97 5462.38,-5857.95 1653.29,-1760.97 2551.73,-2767.46 2695.67,-3054.97 287.51,-539.13 431.09,-1006.11 431.09,-1365.41 0,-359.67 -287.51,-467.35 -862.54,-323.78 -2875.13,575.03 -7403.19,3306.59 -13584.55,8158.05 -6145.46,4887.73 -10494.05,9092.75 -12938.1,12578.43 -682.71,718.97 -970.22,1222.21 -826.65,1473.83 0,287.51 -287.51,574.66 -862.17,862.17 -539.13,431.46 -1042.37,467.35 -1401.67,108.05 -395.56,-359.3 -646.81,-1078.27 -790.75,-2228.32 -431.09,-3845.35 2875.13,-9308.11 9883.13,-16423.79 3450.16,-3414.27 5965.63,-5498.65 7583.03,-6217.25 862.54,-251.62 1581.14,-431.46 2228.32,-503.24 682.71,143.57 1006.11,539.13 934.33,1185.95 -72.16,682.71 -467.35,1150.05 -1150.05,1437.57 -1006.48,431.09 -2946.92,2084.38 -5893.84,4959.51 -4276.81,4276.81 -7187.84,7511.24 -8661.3,9667.41l-2515.83 5175.24c862.54,-1006.48 1940.81,-2120.64 3270.33,-3378.38 6037.78,-5893.84 11536.43,-10494.05 16531.84,-13800.27 3450.16,-2444.05 6541.02,-3809.46 9272.22,-4096.97 682.71,-143.94 1150.05,35.89 1401.67,539.13 251.62,466.98 359.3,1042 287.51,1652.92 -72.16,647.18 -251.62,1222.21 -539.13,1689.19 -431.46,1006.48 -2336,3486.05 -5678.48,7475.35l-2946.92 3701.41c8193.95,-5067.19 12938.1,-7043.89 14195.84,-6001.52 287.51,143.57 503.24,359.3 646.81,610.92 431.46,1293.63 -826.65,3342.11 -3701.78,6217.25l-5785.79 6325.3 -1581.51 1904.55c-1114.16,1114.16 -2084.38,2192.43 -2946.92,3198.54 -826.65,1042.37 -1832.76,2336 -2982.81,3917.51 -1185.95,1581.14 -1832.76,2731.19 -1976.7,3450.16 -107.68,754.49 -71.79,1473.46 215.73,2156.17 1760.97,1006.48 7511.24,-2515.83 17286.33,-10529.95 3018.71,-2443.68 7079.79,-6181.35 12219.14,-11248.92l5462.75 -4959.51c287.51,-287.51 502.87,-431.09 646.81,-431.09 395.19,0 610.92,143.57 610.92,431.09 143.57,143.94 71.79,359.67 -215.73,647.18 -826.65,682.71 -2587.62,2263.84 -5247.03,4743.79 -2659.41,2443.68 -4743.79,4312.7 -6217.25,5570.43 -4923.62,4636.11 -9236.32,8373.78 -12937.73,11248.92 -7511.24,5498.28 -11967.51,7008 -13369.19,4528.06zm38489.79 -8840.76c-1401.3,-1760.97 -790.38,-4887.73 1797.24,-9452.05 1257.73,-2048.49 3054.6,-4240.55 5390.6,-6540.65l-9272.22 2192.06c539.13,1150.05 539.13,2515.83 0,4133.24 -862.54,1760.97 -2012.59,3054.6 -3486.05,3881.25 -970.22,575.03 -1940.44,646.81 -2838.87,215.73 -683.08,-287.51 -1042.37,-1150.05 -1042.37,-2623.51 143.57,-1401.67 1078.27,-3270.7 2839.24,-5606.7 143.57,-251.25 2012.59,-2587.25 5570.43,-6935.84l2623.51 -2515.83c718.6,-1006.11 1545.25,-1437.57 2551.73,-1365.78l215.36 0 179.83 215.73c143.57,395.56 71.79,790.75 -179.83,1150.05l-1473.46 1904.92 -5606.33 6720.49c6181.35,-1114.16 10565.84,-2479.94 13189.35,-4096.97 251.62,-143.94 575.03,-323.41 934.33,-539.13 359.67,-215.73 683.08,-395.56 1042.37,-575.03 359.3,-179.83 754.86,-251.62 1150.05,-251.62 287.51,0 431.09,71.79 431.09,215.73 143.94,251.62 72.16,646.81 -215.36,1150.05 -6181.72,6181.35 -10027.08,10637.63 -11572.32,13368.82 -1257.73,2156.54 -1725.08,3881.62 -1365.78,5139.35 575.03,1006.11 2587.62,503.24 6109.57,-1473.46 3450.16,-2443.68 9595.62,-7834.65 18508.54,-16208.43 718.6,-682.71 1150.05,-754.49 1293.63,-215.36 107.68,287.51 -215.73,862.54 -1078.27,1688.82 -8337.52,7798.76 -14303.51,12902.21 -17897.25,15274.1 -3557.84,2371.89 -6181.35,2767.09 -7798.76,1150.05zm-7474.98 -6936.21c431.09,682.71 1150.05,575.03 2120.27,-431.09 718.6,-431.46 1293.63,-1150.05 1725.08,-2156.54 467.35,-1006.11 682.71,-1904.55 682.71,-2695.3 0,-754.86 -215.36,-1150.05 -718.6,-1150.05 -575.03,-143.94 -1473.46,754.86 -2731.56,2695.3 -1257.73,1940.81 -1617.03,3162.65 -1077.9,3737.67zm44132.38 -11787.68l-215.73 -862.54c0,-539.13 215.73,-1078.27 610.92,-1581.51 862.54,-539.13 1509.72,-466.98 1976.7,215.73 431.46,718.6 467.35,1437.57 35.89,2228.32 -143.57,287.51 -502.87,395.19 -1114.16,395.19 -575.03,0 -1042,-107.68 -1293.63,-395.19zm-5822.05 10529.95c-539.13,-287.51 -898.43,-862.54 -1078.27,-1760.97 -179.46,-862.54 -35.89,-1437.57 467.35,-1725.08 1617.4,-826.65 2515.83,-323.41 2731.19,1581.14 143.94,575.03 -35.89,1114.16 -538.76,1689.19 -467.35,575.03 -1006.48,610.92 -1581.51,215.73z"></path> </g> </svg> 