<?xml version="1.0" encoding="UTF-8"?> <svg xmlns="http://www.w3.org/2000/svg" xmlns:xlink="http://www.w3.org/1999/xlink" xmlns:xodm="http://www.corel.com/coreldraw/odm/2003" xml:space="preserve" width="212.242mm" height="47.0949mm" version="1.1" style="shape-rendering:geometricPrecision; text-rendering:geometricPrecision; image-rendering:optimizeQuality; fill-rule:evenodd; clip-rule:evenodd" viewBox="0 0 22230.91 4932.87"> <defs> <style type="text/css"> .fil0 {fill:#7A5828;fill-rule:nonzero} </style> </defs> <g id="Слой_x0020_1"> <metadata id="CorelCorpID_0Corel-Layer"></metadata> <path class="fil0" d="M2540.19 3593.02c-183.11,0 -307.22,-46.79 -373.35,-140.39 -4.06,-7.11 -9.15,-18.31 -17.29,-32.55 -8.14,-13.22 -15.26,-30.51 -22.38,-48.82 -7.11,-19.34 -10.17,-36.63 -8.14,-51.89 2.04,-16.28 12.21,-24.42 30.52,-24.42 11.2,0 21.37,8.14 29.51,24.42 8.14,15.26 14.23,34.59 18.31,57.99 3.05,22.38 7.12,35.61 11.19,39.68 20.35,49.85 63.08,86.48 128.18,110.89 81.39,27.46 190.23,33.57 325.53,17.29 96.65,-4.07 186.17,-15.26 267.56,-35.61 427.26,-97.66 810.78,-240.08 1150.56,-427.26 339.78,-188.2 741.61,-476.1 1204.48,-862.67 182.1,-170.91 492.37,-488.3 929.8,-951.17 271.62,-279.76 464.91,-462.87 577.83,-548.32l134.29 -104.78c-139.37,36.62 -265.52,57.99 -378.44,66.12 -279.76,19.33 -567.66,18.31 -862.67,-3.05 -295.01,-22.38 -656.15,-65.11 -1083.42,-129.2 -427.27,-65.11 -712.11,-106.82 -855.54,-124.11 -773.15,-81.39 -1423.21,-52.91 -1952.2,86.47 -566.63,146.49 -1026.45,408.96 -1379.46,786.38 -147.51,151.57 -250.25,312.3 -310.27,483.21 -77.32,224.82 -82.4,370.3 -15.26,438.45 39.68,31.54 48.83,51.88 27.46,62.06 -4.06,0 -8.14,0 -12.2,0 -12.21,0 -24.42,-6.11 -37.64,-17.29 -12.2,-12.21 -26.45,-36.63 -42.72,-73.25 -16.28,-36.63 -24.42,-82.4 -24.42,-136.32 0,-219.73 91.56,-443.55 274.67,-668.37 183.11,-225.84 388.61,-406.92 616.49,-544.26 439.47,-268.56 960.33,-429.3 1562.57,-483.21 373.35,-35.6 807.74,-29.51 1305.19,18.31 198.37,20.35 478.13,60.02 839.28,119.03 360.12,60.02 688.71,104.77 985.76,134.28 297.05,29.5 579.86,36.62 848.43,21.36 321.47,-24.42 546.29,-77.31 673.45,-158.7 345.88,-220.76 527.98,-300.1 548.33,-238.05 4.06,4.07 6.1,10.18 6.1,18.32 0,44.76 -38.65,91.56 -116.99,139.36 -11.19,8.14 -70.19,38.66 -174.97,92.58l-325.53 92.57 -181.08 128.17c-39.68,31.54 -97.66,84.44 -172.94,157.68 -77.32,69.18 -185.15,182.1 -322.48,336.73 -49.85,53.92 -147.51,158.7 -292.99,314.34 -146.49,156.66 -260.42,276.71 -341.81,362.16 -512.72,524.93 -985.77,909.46 -1421.16,1153.62 -635.81,354.02 -1225.85,534.07 -1770.11,542.21zm4553.43 -3045.78c89.52,-12.21 185.14,-37.64 285.85,-77.32 66.12,-24.42 126.15,-57.99 181.08,-101.73 53.92,-43.74 77.32,-73.25 69.18,-89.52 -7.12,-11.19 -57.99,5.09 -151.58,50.86l-384.53 217.71zm455.75 2986.78c-125.13,52.91 -253.31,65.11 -385.56,33.57 -132.25,-30.51 -237.02,-103.76 -314.34,-218.71 -121.05,-174.97 -123.09,-402.85 -6.11,-682.61 117,-279.76 296.04,-565.61 536.12,-855.54l415.07 -500.51c-28.49,16.28 -154.63,113.94 -378.44,295.02l-66.12 53.91c-179.05,142.43 -438.45,346.9 -779.26,610.38 -340.79,264.5 -537.13,419.13 -589.01,464.9 -244.15,187.19 -374.36,284.85 -389.62,292.99 -105.8,65.11 -189.22,63.08 -251.27,-6.11 -48.83,-49.85 -56.97,-133.26 -23.4,-250.25 49.85,-139.37 160.73,-316.38 333.67,-531.03 280.77,-341.82 689.73,-793.49 1227.88,-1356.07l122.08 -134.28c-146.49,210.59 -383.53,515.78 -709.06,915.57 -279.76,333.67 -503.56,610.38 -670.4,831.14 -45.78,62.05 -90.54,132.25 -134.29,211.59 -97.66,191.25 -110.88,295.02 -41.71,313.33 27.47,4.07 104.78,-29.5 229.91,-98.68 77.31,-49.85 146.49,-100.71 208.54,-151.57 35.61,-28.49 97.66,-80.37 186.17,-155.65 88.51,-75.28 156.66,-134.28 203.45,-175.99 298.08,-219.74 752.81,-575.79 1362.16,-1066.13 179.05,-147.51 274.68,-224.83 286.88,-232.97 130.22,-93.59 202.45,-130.21 213.63,-109.87 8.14,11.2 -40.69,83.42 -145.48,214.65 -35.6,44.77 -75.28,93.59 -119.02,144.46 -43.74,49.85 -92.57,106.82 -144.46,169.88 -52.9,62.06 -93.59,109.88 -121.05,141.4 -16.28,19.34 -97.66,132.25 -244.16,336.73 -8.14,12.21 -33.57,48.83 -76.29,109.87 -42.72,62.06 -70.19,101.74 -83.42,119.03 -13.23,18.31 -36.63,54.93 -71.21,108.85 -34.59,54.94 -60.02,95.63 -76.29,123.09 -16.28,26.45 -37.64,65.11 -64.09,115.97 -26.45,50.86 -46.79,93.59 -61.03,128.17 -14.25,34.6 -27.46,75.29 -41.71,122.08 -14.25,46.8 -24.42,90.54 -32.55,132.25 -28.49,166.83 14.25,307.22 128.17,420.15 112.92,113.94 266.54,150.56 461.85,110.89 104.78,-20.35 246.19,-85.46 423.2,-197.36 23.39,-15.26 39.67,-23.4 47.8,-23.4 8.14,4.06 9.15,12.2 6.11,23.4l-12.2 12.2c-154.63,99.69 -275.69,162.77 -361.14,191.25zm519.84 -495.42c-89.52,28.49 -146.49,14.25 -170.91,-41.71 -15.26,-56.97 -16.28,-115.97 -2.03,-173.96 13.22,-59 33.57,-104.77 59,-138.36 -69.17,48.83 -116.99,78.34 -142.42,86.48 -57.99,23.4 -102.75,29.5 -134.29,17.29 -32.55,-12.2 -46.79,-39.68 -44.76,-84.43 2.03,-44.77 16.28,-92.57 44.76,-141.4 73.25,-113.94 183.12,-201.43 330.62,-262.47 131.23,-57.99 206.51,-51.88 226.86,17.29 15.26,45.78 5.08,90.54 -30.52,134.28 -11.19,23.4 -16.28,42.72 -14.25,56.97 3.06,15.26 -10.17,43.74 -41.71,83.42 -12.2,12.21 -28.48,30.52 -49.85,54.94 -20.34,24.42 -38.65,47.82 -54.93,68.16 -16.28,21.37 -29.51,41.71 -41.71,61.04 -77.32,159.71 -83.42,241.1 -18.32,245.16 53.92,7.12 167.86,-53.91 342.83,-185.14 113.94,-85.46 246.19,-202.45 396.75,-351.99l77.31 -80.37c28.49,-19.33 42.74,-19.33 44.77,0 0,4.07 -13.23,18.32 -38.66,41.71l-231.94 220.76c-82.4,77.32 -160.73,145.48 -236.02,202.45 -114.95,93.59 -205.49,150.56 -270.59,169.88zm-364.19 -285.85c4.06,12.2 37.63,8.14 101.73,-12.21 8.14,-4.06 42.72,-26.45 103.76,-68.16 4.07,-4.07 44.77,-38.66 122.08,-104.78 8.14,-7.12 29.51,-25.43 64.09,-51.88 34.59,-26.45 57.99,-49.85 70.19,-70.2 53.92,-69.17 60.03,-115.97 18.32,-139.36 -16.28,-16.28 -61.04,-2.04 -134.29,41.71 -81.37,44.76 -163.78,114.96 -246.18,209.56 -82.4,94.6 -115.97,159.71 -99.69,195.32zm1292.98 378.44c-77.31,23.39 -131.23,7.11 -163.79,-50.87 -35.6,-49.85 -35.6,-122.07 0,-217.7 24.42,-52.9 65.11,-125.13 122.08,-214.65 66.12,-104.78 81.39,-159.71 47.82,-163.79 -31.54,0 -94.61,43.74 -189.22,131.23 -94.61,87.49 -157.68,158.7 -189.22,214.65 -8.14,12.21 -17.29,25.43 -29.51,38.66 -39.68,12.2 -47.82,-14.25 -24.42,-80.37 40.69,-116.99 139.37,-277.73 298.07,-482.2 78.34,-97.66 134.29,-146.49 169.89,-146.49 45.77,4.06 59,23.4 38.66,60.02 -7.12,11.2 -30.52,40.69 -68.17,86.48 -23.39,31.53 -43.74,57.99 -59,80.36 -49.85,69.18 -73.25,105.8 -69.17,109.88 0,4.06 12.2,-4.07 37.63,-25.43 24.42,-20.35 50.87,-42.74 78.34,-67.15l86.47 -68.16c122.08,-101.73 245.17,-185.14 371.31,-252.28 126.15,-66.12 197.36,-66.12 213.63,2.03 15.26,61.03 -4.06,121.06 -60.02,179.05 -8.14,7.11 -19.33,11.19 -32.55,11.19 -24.42,0 -28.48,-8.14 -12.21,-23.4 81.39,-81.39 100.72,-139.37 56.97,-172.94 -57.99,-31.54 -210.58,49.85 -458.8,244.16 -28.49,20.34 -55.95,41.71 -82.4,64.08 -26.45,23.4 -45.78,39.68 -57.99,48.83 -12.21,10.18 -20.35,15.26 -24.42,15.26 45.77,-19.33 75.28,-14.23 86.47,18.31 12.21,19.34 -22.37,98.68 -103.76,238.05 -162.77,276.71 -176,405.9 -38.66,390.65 8.14,0 14.25,0 20.35,0 74.26,-8.14 164.8,-46.8 274.67,-115.97 202.44,-135.31 435.41,-328.59 699.9,-578.85 28.48,-27.46 42.72,-29.5 44.76,-6.1 0,8.14 -14.25,26.45 -44.76,53.91 -216.69,198.37 -351.99,319.44 -407.94,361.14 -214.65,171.93 -391.66,278.74 -531.03,318.42zm974.57 -256.37c-130.21,45.78 -214.65,28.49 -250.25,-50.86 -11.19,-31.54 -13.23,-78.33 -6.11,-139.37 12.21,-53.91 41.71,-110.88 86.48,-169.88 66.12,-89.52 138.36,-161.75 217.7,-214.65 81.39,-45.78 149.54,-68.16 203.46,-66.12 56.97,0 90.54,16.28 100.71,47.82 10.17,31.53 -5.09,72.22 -44.76,122.07 -31.54,39.68 -61.04,71.21 -89.52,93.6 -27.47,23.4 -46.8,33.57 -55.95,31.54 -10.17,-2.04 -17.29,-5.09 -21.37,-9.17 57.99,-35.6 104.78,-78.33 141.4,-127.16 36.63,-49.85 51.89,-83.42 43.75,-98.68 -28.49,-66.12 -113.94,-34.59 -256.36,92.57 -45.78,35.61 -103.77,97.66 -172.94,187.19 -85.46,121.06 -114.96,210.59 -89.52,268.57 20.34,49.85 70.19,56.96 151.57,20.34 155.65,-61.03 318.42,-161.75 489.33,-300.1 19.33,-16.28 80.36,-69.18 182.1,-158.71 15.25,-15.25 27.46,-15.25 35.6,0 0,8.14 -6.11,18.32 -18.31,30.52 -244.16,219.74 -459.82,367.25 -647.01,440.49zm856.57 163.79c-89.52,28.49 -146.49,14.25 -170.91,-41.71 -15.26,-56.97 -16.28,-115.97 -2.03,-173.96 13.22,-59 33.57,-104.77 59,-138.36 -69.17,48.83 -116.99,78.34 -142.42,86.48 -57.99,23.4 -102.75,29.5 -134.29,17.29 -32.55,-12.2 -46.79,-39.68 -44.76,-84.43 2.03,-44.77 16.28,-92.57 44.76,-141.4 73.25,-113.94 183.12,-201.43 330.62,-262.47 131.23,-57.99 206.51,-51.88 226.86,17.29 15.26,45.78 5.08,90.54 -30.52,134.28 -11.19,23.4 -16.28,42.72 -14.25,56.97 3.06,15.26 -10.17,43.74 -41.71,83.42 -12.2,12.21 -28.48,30.52 -49.85,54.94 -20.34,24.42 -38.65,47.82 -54.93,68.16 -16.28,21.37 -29.51,41.71 -41.71,61.04 -77.32,159.71 -83.42,241.1 -18.32,245.16 53.92,7.12 167.86,-53.91 342.83,-185.14 113.94,-85.46 246.19,-202.45 396.75,-351.99l77.31 -80.37c28.49,-19.33 42.74,-19.33 44.77,0 0,4.07 -13.23,18.32 -38.66,41.71l-231.94 220.76c-82.4,77.32 -160.73,145.48 -236.02,202.45 -114.95,93.59 -205.49,150.56 -270.59,169.88zm-364.19 -285.85c4.06,12.2 37.63,8.14 101.73,-12.21 8.14,-4.06 42.72,-26.45 103.76,-68.16 4.07,-4.07 44.77,-38.66 122.08,-104.78 8.14,-7.12 29.51,-25.43 64.09,-51.88 34.59,-26.45 57.99,-49.85 70.19,-70.2 53.92,-69.17 60.03,-115.97 18.32,-139.36 -16.28,-16.28 -61.04,-2.04 -134.29,41.71 -81.37,44.76 -163.78,114.96 -246.18,209.56 -82.4,94.6 -115.97,159.71 -99.69,195.32zm1457.78 407.93c-16.28,-31.54 -7.12,-80.37 26.45,-145.48 65.11,-121.05 203.46,-287.89 414.04,-500.5 69.18,-70.2 102.75,-110.89 98.68,-123.09 -8.14,-15.26 -49.85,-4.07 -125.13,34.59 -76.29,38.66 -146.49,80.37 -211.6,124.11 -89.52,52.91 -164.8,114.96 -226.85,184.13 -35.6,36.63 -51.88,36.63 -47.82,0 4.07,-56.96 34.59,-114.95 92.57,-171.91 12.21,-16.28 45.78,-54.94 102.75,-114.96 56.97,-61.04 107.83,-115.97 154.62,-165.82 46.8,-49.85 72.23,-78.34 76.31,-86.48 8.14,-15.26 12.2,-28.48 12.2,-38.65 0,-10.18 -8.14,-13.23 -24.42,-9.17 -81.39,16.28 -209.56,93.6 -384.53,230.93 -173.96,138.36 -297.05,257.39 -366.23,356.05 -19.33,20.35 -27.46,34.6 -23.4,41.72 0,8.14 -8.14,16.27 -24.41,24.41 -15.26,12.21 -29.51,13.23 -39.68,3.06 -11.2,-10.17 -18.31,-30.52 -22.38,-63.08 -12.2,-108.85 81.39,-263.48 279.76,-464.9 97.66,-96.65 168.87,-155.65 214.65,-175.99 24.42,-7.12 44.76,-12.21 63.08,-14.25 19.33,4.06 28.48,15.26 26.45,33.57 -2.04,19.33 -13.23,32.55 -32.55,40.69 -28.49,12.2 -83.42,59 -166.83,140.39 -121.06,121.06 -203.46,212.62 -245.17,273.65l-71.21 146.49c24.42,-28.49 54.94,-60.03 92.57,-95.63 170.91,-166.83 326.56,-297.05 467.96,-390.64 97.66,-69.18 185.15,-107.83 262.47,-115.97 19.33,-4.07 32.55,1.02 39.68,15.26 7.12,13.22 10.17,29.5 8.14,46.79 -2.04,18.32 -7.12,34.6 -15.26,47.82 -12.21,28.49 -66.12,98.68 -160.74,211.6l-83.42 104.77c231.94,-143.44 366.23,-199.39 401.84,-169.88 8.14,4.06 14.25,10.17 18.31,17.29 12.21,36.62 -23.4,94.6 -104.78,175.99l-163.78 179.05 -44.77 53.91c-31.54,31.54 -59,62.06 -83.42,90.54 -23.4,29.51 -51.88,66.12 -84.43,110.89 -33.57,44.76 -51.88,77.31 -55.95,97.66 -3.05,21.36 -2.03,41.71 6.11,61.03 49.85,28.49 212.62,-71.21 489.32,-298.07 85.45,-69.17 200.4,-174.97 345.88,-318.42l154.63 -140.39c8.14,-8.14 14.23,-12.2 18.31,-12.2 11.19,0 17.29,4.06 17.29,12.2 4.06,4.07 2.03,10.18 -6.11,18.32 -23.4,19.33 -73.25,64.08 -148.53,134.28 -75.28,69.17 -134.28,122.08 -175.99,157.68 -139.37,131.23 -261.45,237.03 -366.22,318.42 -212.62,155.64 -338.76,198.37 -378.44,128.17z"></path> <path class="fil0" d="M14025.61 2519.77l-169.88 6.11c-57.99,0 -86.48,-4.06 -86.48,-11.19 0,-8.14 4.07,-16.28 12.21,-24.42 7.12,-8.14 18.31,-12.21 30.51,-13.23 13.23,-1.02 29.51,0 49.85,3.06 19.34,3.05 45.78,1.02 77.32,-5.09 202.44,-3.05 295.02,9.15 276.7,39.68 -6.1,4.06 -69.17,5.08 -190.23,5.08z"></path> <path class="fil0" d="M14309.21 3208.49c-62.06,-12.21 -104.78,-33.57 -128.18,-65.11 -20.34,-12.2 -33.57,-29.51 -41.71,-50.86 0,-23.4 2.03,-35.6 6.11,-35.6 0,-8.14 4.06,-12.21 11.19,-12.21l12.21 12.21c24.42,53.91 65.11,90.53 122.08,109.87 49.85,20.34 127.16,30.52 232.96,30.52 679.55,0 1377.42,-317.4 2094.61,-951.18 228.9,-194.3 530.02,-495.42 903.37,-903.36 373.35,-406.92 625.63,-674.47 756.86,-801.63 -512.72,81.39 -986.77,113.94 -1424.21,98.68 -62.06,-4.07 -392.68,0 -992.88,12.2 -468.98,7.12 -843.34,32.55 -1123.1,74.26 -395.73,61.04 -749.75,164.8 -1064.1,310.28 -415.06,198.37 -677.52,422.18 -787.39,670.4 -27.47,48.83 -44.77,74.26 -52.91,74.26 -20.34,-24.42 11.2,-95.63 92.57,-214.65 125.14,-194.3 323.51,-363.18 595.12,-506.61 260.43,-143.45 593.09,-252.29 995.94,-327.57 260.43,-49.85 598.17,-88.51 1013.23,-116.99 158.7,-7.12 537.13,-11.19 1132.25,-11.19 596.13,0 1055.96,-23.4 1377.42,-69.18l285.85 -47.82c81.39,-65.1 145.48,-113.93 191.25,-145.47 260.43,-170.91 493.39,-279.76 699.9,-324.52l92.57 -12.21c69.18,-12.2 105.8,-2.03 109.88,29.51l0 56.96c-31.54,65.11 -100.72,120.05 -208.55,163.79 -174.97,89.52 -347.91,149.54 -517.8,182.1l-232.97 68.17 -140.39 128.17c-146.48,146.49 -362.15,378.44 -645.98,692.78 -284.84,315.36 -496.44,544.26 -634.8,686.67 -533.06,541.21 -1116.99,904.38 -1752.8,1091.56 -419.13,123.09 -745.68,157.68 -977.62,103.77zm4181.09 -2744.67l191.25 -50.87c150.56,-39.67 288.91,-86.47 414.04,-139.36 174.97,-78.34 268.57,-140.39 279.76,-188.2 12.21,-39.68 -9.15,-56.97 -65.11,-50.86 -49.85,8.14 -121.05,32.55 -214.65,74.26 -194.3,81.37 -379.45,187.18 -554.43,316.38l-50.86 38.66zm-872.85 3796.55c202.45,62.06 424.22,56.97 666.33,-14.25 241.1,-72.22 430.32,-189.21 567.66,-351.98 12.2,0 17.29,10.17 17.29,29.5 0,8.14 -3.06,16.28 -11.2,24.42 -8.14,4.07 -12.2,8.14 -12.2,12.21 -20.35,19.33 -80.37,70.19 -182.1,151.57 -174.97,116.99 -372.33,190.23 -593.09,218.72 -220.76,29.5 -430.32,-2.04 -628.69,-93.6 -198.37,-91.56 -340.79,-238.04 -426.25,-441.5 -116.99,-279.76 -112.91,-611.4 12.21,-994.92 93.59,-280.77 289.93,-620.55 590.03,-1019.33 365.22,-500.51 617.5,-840.29 756.87,-1019.33 23.4,-27.47 40.69,-37.64 50.86,-29.51 4.07,0 -4.06,12.21 -22.38,38.66 -19.33,25.43 -46.79,63.07 -82.4,112.91 -35.6,49.85 -65.1,89.52 -87.48,119.03 -23.4,30.52 -51.88,70.19 -88.51,119.02 -454.73,614.45 -770.09,1123.1 -946.08,1525.95 -176,403.87 -210.59,776.2 -105.8,1118.01 81.39,256.36 256.36,421.16 524.92,494.41z"></path> <path class="fil0" d="M18222.75 3038.6c-89.52,28.49 -146.49,14.25 -170.91,-41.71 -15.26,-56.97 -16.28,-115.97 -2.03,-173.96 13.22,-59 33.57,-104.77 59,-138.36 -69.17,48.83 -116.99,78.34 -142.42,86.48 -57.99,23.4 -102.75,29.5 -134.29,17.29 -32.55,-12.2 -46.79,-39.68 -44.76,-84.43 2.03,-44.77 16.28,-92.57 44.76,-141.4 73.25,-113.94 183.12,-201.43 330.62,-262.47 131.23,-57.99 206.51,-51.88 226.86,17.29 15.26,45.78 5.08,90.54 -30.52,134.28 -11.19,23.4 -16.28,42.72 -14.25,56.97 3.06,15.26 -10.17,43.74 -41.71,83.42 -12.2,12.21 -28.48,30.52 -49.85,54.94 -20.34,24.42 -38.65,47.82 -54.93,68.16 -16.28,21.37 -29.51,41.71 -41.71,61.04 -77.32,159.71 -83.42,241.1 -18.32,245.16 53.92,7.12 167.86,-53.91 342.83,-185.14 113.94,-85.46 246.19,-202.45 396.75,-351.99l77.31 -80.37c28.49,-19.33 42.74,-19.33 44.77,0 0,4.07 -13.23,18.32 -38.66,41.71l-231.94 220.76c-82.4,77.32 -160.73,145.48 -236.02,202.45 -114.95,93.59 -205.49,150.56 -270.59,169.88zm-364.19 -285.85c4.06,12.2 37.63,8.14 101.73,-12.21 8.14,-4.06 42.72,-26.45 103.76,-68.16 4.07,-4.07 44.77,-38.66 122.08,-104.78 8.14,-7.12 29.51,-25.43 64.09,-51.88 34.59,-26.45 57.99,-49.85 70.19,-70.2 53.92,-69.17 60.03,-115.97 18.32,-139.36 -16.28,-16.28 -61.04,-2.04 -134.29,41.71 -81.37,44.76 -163.78,114.96 -246.18,209.56 -82.4,94.6 -115.97,159.71 -99.69,195.32z"></path> <path class="fil0" d="M20164.77 2391.6c12.2,12.2 4.06,32.55 -23.4,60.02 -228.9,220.76 -406.93,374.37 -535.1,461.85 -128.18,87.49 -320.45,196.34 -576.81,324.52 -49.85,24.42 -86.47,42.74 -109.87,56.97 -4.07,4.07 -16.28,18.32 -35.61,43.75 -20.34,24.42 -38.65,46.79 -56.96,67.14 -39.68,52.9 -180.06,231.94 -420.15,536.12 -362.16,454.73 -699.9,755.85 -1013.23,903.36 -147.51,65.11 -244.16,93.59 -291.96,86.48 -74.26,-12.21 -106.82,-63.08 -98.68,-152.6 8.14,-154.63 128.17,-346.9 361.13,-574.78 158.71,-155.64 382.51,-312.3 670.41,-471.01 65.11,-31.53 304.16,-163.78 715.15,-396.75l53.92 -77.31c3.05,-4.06 69.17,-105.8 197.36,-305.19 128.17,-200.4 198.37,-308.24 210.58,-323.5 -206.51,131.23 -336.73,195.32 -390.64,193.28 -35.6,0 -59,-12.2 -71.21,-38.65 -12.2,-25.43 -13.22,-54.94 -3.05,-87.49 10.17,-32.55 22.38,-61.03 38.66,-85.45 49.85,-69.18 110.88,-143.45 183.11,-222.79 72.22,-80.37 120.04,-122.08 141.4,-125.13 53.91,-8.14 79.34,3.05 78.33,35.6 0,11.19 -9.15,27.46 -27.46,45.77 -17.29,19.34 -40.69,40.69 -70.2,64.09 -28.48,24.42 -46.79,41.71 -54.93,53.92 -146.49,154.62 -222.79,249.24 -226.86,282.81 -3.05,12.2 -3.05,22.38 0,29.51 12.21,28.48 78.34,9.15 197.36,-55.95l169.89 -101.74c39.68,-23.39 100.71,-77.31 184.13,-160.73 78.34,-77.31 144.46,-140.39 200.4,-188.2 89.52,-65.11 139.37,-82.4 151.58,-49.85 4.06,15.26 -13.23,42.72 -53.92,80.37 -116.99,104.78 -283.82,312.31 -500.5,622.58 -45.78,65.11 -83.42,122.08 -112.92,168.88 -29.51,45.77 -52.9,82.4 -70.2,107.83 -17.29,26.45 -27.46,41.71 -31.53,47.82l155.64 -80.37c275.69,-150.56 487.29,-284.85 634.8,-401.84 104.78,-85.45 241.11,-205.5 407.94,-361.14 12.2,-12.2 20.34,-15.25 23.4,-12.2zm-1629.72 1252.3c89.52,-105.8 152.6,-189.22 190.23,-250.26 -548.32,298.07 -863.68,475.08 -947.1,530.01 -195.32,131.23 -356.06,263.48 -483.22,396.75 -93.59,101.74 -153.61,183.12 -182.1,244.16 -92.57,183.11 -102.74,289.93 -29.51,322.48 16.28,7.12 35.61,10.17 60.03,8.14 162.76,-19.33 360.12,-129.2 593.09,-330.62 221.76,-194.3 488.3,-501.53 798.57,-920.65z"></path> <path class="fil0" d="M18201.38 4156.61c-39.67,0 -60.02,-13.23 -62.05,-38.66l0 -6.11 6.11 -6.11 5.08 6.11c16.28,12.21 44.77,18.31 86.48,20.35 306.21,-23.4 609.36,-197.36 909.46,-520.86 139.37,-151.58 391.66,-484.24 756.86,-998.99 108.86,-158.71 221.77,-286.88 336.73,-384.54 174.97,-142.42 321.47,-219.73 438.45,-231.94 49.85,-8.14 94.61,-12.2 134.29,-12.2 27.46,0 40.69,0 38.65,0 -2.03,0 -23.4,4.06 -63.07,12.2 -8.14,4.07 -15.26,6.11 -23.4,6.11 -147.51,27.46 -275.69,88.51 -384.54,181.08 -16.28,12.2 -42.72,36.62 -79.34,73.25 -36.63,36.62 -70.2,72.22 -99.69,105.79l-41.71 47.82 122.07 -86.47c298.07,-186.17 466.94,-247.2 506.62,-182.1 53.91,81.39 -29.51,198.37 -250.26,348.93 -121.05,89.52 -198.37,172.94 -231.94,250.25 -36.62,97.66 -7.12,142.42 85.46,134.28 159.71,-16.28 382.5,-132.25 671.41,-348.93 35.6,-27.46 72.23,-55.95 109.87,-86.47 8.14,-4.07 19.34,-12.21 32.55,-26.45 14.25,-14.25 26.45,-22.38 36.63,-26.46 11.19,-12.2 17.29,-8.14 17.29,11.2 0,8.14 -11.2,22.37 -32.55,41.71 -220.76,195.31 -455.75,339.78 -707.03,435.4 -92.57,35.61 -168.87,43.75 -225.84,24.42 -57.99,-20.34 -77.32,-69.17 -60.02,-146.48 24.41,-112.92 121.05,-227.88 291.96,-342.83 66.12,-45.77 125.13,-95.62 178.02,-150.56 51.89,-54.94 72.23,-91.56 61.04,-111.91 -28.49,-45.77 -170.91,13.23 -429.3,176 -62.06,39.68 -128.18,97.66 -199.39,172.94 -28.49,27.46 -94.61,108.85 -198.37,243.13 -104.78,134.28 -215.67,280.77 -333.68,439.47 -119.02,158.71 -195.31,260.43 -230.93,304.17 -151.57,166.83 -283.82,295.02 -398.78,384.54 -113.94,89.52 -256.36,162.76 -427.27,220.75 -125.13,44.77 -240.08,68.17 -345.88,68.17z"></path> <path class="fil0" d="M21453.69 3038.6c-89.52,28.49 -146.49,14.25 -170.91,-41.71 -15.26,-56.97 -16.28,-115.97 -2.03,-173.96 13.22,-59 33.57,-104.77 59,-138.36 -69.17,48.83 -116.99,78.34 -142.42,86.48 -57.99,23.4 -102.75,29.5 -134.29,17.29 -32.55,-12.2 -46.79,-39.68 -44.76,-84.43 2.03,-44.77 16.28,-92.57 44.76,-141.4 73.25,-113.94 183.12,-201.43 330.62,-262.47 131.23,-57.99 206.51,-51.88 226.86,17.29 15.26,45.78 5.08,90.54 -30.52,134.28 -11.19,23.4 -16.28,42.72 -14.25,56.97 3.06,15.26 -10.17,43.74 -41.71,83.42 -12.2,12.21 -28.48,30.52 -49.85,54.94 -20.34,24.42 -38.65,47.82 -54.93,68.16 -16.28,21.37 -29.51,41.71 -41.71,61.04 -77.32,159.71 -83.42,241.1 -18.32,245.16 53.92,7.12 167.86,-53.91 342.83,-185.14 113.94,-85.46 246.19,-202.45 396.75,-351.99l77.31 -80.37c28.49,-19.33 42.74,-19.33 44.77,0 0,4.07 -13.23,18.32 -38.66,41.71l-231.94 220.76c-82.4,77.32 -160.73,145.48 -236.02,202.45 -114.95,93.59 -205.49,150.56 -270.59,169.88zm-364.19 -285.85c4.06,12.2 37.63,8.14 101.73,-12.21 8.14,-4.06 42.72,-26.45 103.76,-68.16 4.07,-4.07 44.77,-38.66 122.08,-104.78 8.14,-7.12 29.51,-25.43 64.09,-51.88 34.59,-26.45 57.99,-49.85 70.19,-70.2 53.92,-69.17 60.03,-115.97 18.32,-139.36 -16.28,-16.28 -61.04,-2.04 -134.29,41.71 -81.37,44.76 -163.78,114.96 -246.18,209.56 -82.4,94.6 -115.97,159.71 -99.69,195.32z"></path> </g> </svg> 