<?xml version="1.0" encoding="UTF-8"?> <svg xmlns="http://www.w3.org/2000/svg" xmlns:xlink="http://www.w3.org/1999/xlink" xmlns:xodm="http://www.corel.com/coreldraw/odm/2003" xml:space="preserve" width="26.2884mm" height="24.1103mm" version="1.1" style="shape-rendering:geometricPrecision; text-rendering:geometricPrecision; image-rendering:optimizeQuality; fill-rule:evenodd; clip-rule:evenodd" viewBox="0 0 185.3 169.95"> <defs> <style type="text/css"> .fil0 {fill:#7A5828;fill-rule:nonzero} </style> </defs> <g id="Слой_x0020_1"> <metadata id="CorelCorpID_0Corel-Layer"></metadata> <path class="fil0" d="M92.65 28.23c5.11,-8.67 10.39,-15.35 16.86,-20.05 7.49,-5.45 16.41,-8.18 28.23,-8.18 13.08,0 24.94,4.84 33.54,12.67 8.66,7.88 14.03,18.79 14.03,30.84 0,21.17 -11.5,42.18 -28.75,63.11 -17.04,20.68 -39.64,41.24 -62.23,61.8l-1.67 1.52 -1.67 -1.52c-22.59,-20.56 -45.19,-41.13 -62.23,-61.8 -17.25,-20.93 -28.75,-41.94 -28.75,-63.11 0,-12.05 5.36,-22.96 14.03,-30.84 8.6,-7.83 20.46,-12.67 33.54,-12.67 11.82,0 20.74,2.73 28.23,8.18 6.47,4.71 11.75,11.38 16.86,20.05zm19.77 -16.05c-6.7,4.88 -12.12,12.31 -17.6,22.27l-2.18 3.96 -2.18 -3.96c-5.47,-9.96 -10.9,-17.39 -17.6,-22.27 -6.6,-4.8 -14.59,-7.21 -25.31,-7.21 -11.81,0 -22.49,4.35 -30.2,11.37 -7.66,6.97 -12.39,16.57 -12.39,27.17 0,19.85 11.04,39.87 27.6,59.97 16.36,19.85 38.15,39.8 60.07,59.76 21.93,-19.96 43.72,-39.91 60.07,-59.76 16.56,-20.1 27.6,-40.11 27.6,-59.97 0,-10.59 -4.74,-20.2 -12.39,-27.17 -7.72,-7.02 -18.4,-11.37 -30.2,-11.37 -10.72,0 -18.71,2.4 -25.31,7.21z"></path> </g> </svg> 